G04*
G04 #@! TF.GenerationSoftware,Altium Limited,Altium Designer,19.0.10 (269)*
G04*
G04 Layer_Physical_Order=1*
G04 Layer_Color=255*
%FSLAX23Y23*%
%MOIN*%
G70*
G01*
G75*
%ADD10C,0.008*%
%ADD11C,0.006*%
%ADD12C,0.010*%
%ADD13C,0.020*%
%ADD14C,0.004*%
%ADD15R,0.061X0.028*%
%ADD16R,0.058X0.018*%
%ADD17R,0.057X0.039*%
%ADD18R,0.037X0.055*%
%ADD19R,0.057X0.036*%
%ADD20R,0.039X0.057*%
%ADD21R,0.036X0.057*%
%ADD22R,0.072X0.028*%
%ADD36R,0.059X0.059*%
%ADD37C,0.059*%
%ADD38R,0.059X0.059*%
%ADD39C,0.047*%
%ADD40C,0.050*%
D10*
X1086Y4424D02*
Y4774D01*
Y4424D02*
X1275D01*
Y4774D01*
X1086D02*
X1275D01*
D11*
X3636Y456D02*
X3644Y449D01*
X3528Y456D02*
X3636D01*
X3527Y456D02*
Y465D01*
X3520Y473D02*
X3527Y465D01*
Y456D02*
X3528Y456D01*
X3520Y473D02*
Y548D01*
X3527Y456D02*
Y456D01*
X3500Y559D02*
X3509D01*
X3495Y565D02*
X3500Y559D01*
X3509D02*
X3520Y548D01*
X3495Y565D02*
Y573D01*
X3581Y276D02*
X3600Y295D01*
X3644D01*
X3535Y286D02*
X3545Y276D01*
X3581D01*
X3527Y286D02*
X3535D01*
X3523Y442D02*
X3586D01*
X3608Y420D01*
X3640D02*
X3644Y423D01*
X3608Y420D02*
X3640D01*
X3541Y353D02*
X3581D01*
X3541Y353D02*
X3541Y353D01*
X3587Y346D02*
X3644D01*
X3581Y353D02*
X3587Y346D01*
X3534Y353D02*
X3541D01*
X3531Y350D02*
X3534Y353D01*
X3638Y264D02*
X3644Y269D01*
X3545Y264D02*
X3638D01*
X3535Y254D02*
X3545Y264D01*
X3515Y254D02*
X3535D01*
X3586Y372D02*
X3644D01*
X3537Y369D02*
X3541Y365D01*
X3579D02*
X3586Y372D01*
X3541Y365D02*
X3579D01*
X3636Y1156D02*
X3644Y1149D01*
X3528Y1156D02*
X3636D01*
X3527Y1156D02*
Y1165D01*
X3520Y1173D02*
X3527Y1165D01*
Y1156D02*
X3528Y1156D01*
X3520Y1173D02*
Y1248D01*
X3527Y1156D02*
Y1156D01*
X3500Y1259D02*
X3509D01*
X3495Y1265D02*
X3500Y1259D01*
X3509D02*
X3520Y1248D01*
X3495Y1265D02*
Y1273D01*
X3581Y976D02*
X3600Y995D01*
X3644D01*
X3535Y986D02*
X3545Y976D01*
X3581D01*
X3527Y986D02*
X3535D01*
X3523Y1142D02*
X3586D01*
X3608Y1120D01*
X3640D02*
X3644Y1123D01*
X3608Y1120D02*
X3640D01*
X3541Y1053D02*
X3581D01*
X3541Y1053D02*
X3541Y1053D01*
X3587Y1046D02*
X3644D01*
X3581Y1053D02*
X3587Y1046D01*
X3534Y1053D02*
X3541D01*
X3531Y1050D02*
X3534Y1053D01*
X3638Y964D02*
X3644Y969D01*
X3545Y964D02*
X3638D01*
X3535Y954D02*
X3545Y964D01*
X3515Y954D02*
X3535D01*
X3586Y1072D02*
X3644D01*
X3537Y1069D02*
X3541Y1065D01*
X3579D02*
X3586Y1072D01*
X3541Y1065D02*
X3579D01*
X3636Y1856D02*
X3644Y1849D01*
X3528Y1856D02*
X3636D01*
X3527Y1856D02*
Y1865D01*
X3520Y1873D02*
X3527Y1865D01*
Y1856D02*
X3528Y1856D01*
X3520Y1873D02*
Y1948D01*
X3527Y1856D02*
Y1856D01*
X3500Y1959D02*
X3509D01*
X3495Y1965D02*
X3500Y1959D01*
X3509D02*
X3520Y1948D01*
X3495Y1965D02*
Y1973D01*
X3581Y1676D02*
X3600Y1695D01*
X3644D01*
X3535Y1686D02*
X3545Y1676D01*
X3581D01*
X3527Y1686D02*
X3535D01*
X3523Y1842D02*
X3586D01*
X3608Y1820D01*
X3640D02*
X3644Y1823D01*
X3608Y1820D02*
X3640D01*
X3541Y1753D02*
X3581D01*
X3541Y1753D02*
X3541Y1753D01*
X3587Y1746D02*
X3644D01*
X3581Y1753D02*
X3587Y1746D01*
X3534Y1753D02*
X3541D01*
X3531Y1750D02*
X3534Y1753D01*
X3638Y1664D02*
X3644Y1669D01*
X3545Y1664D02*
X3638D01*
X3535Y1654D02*
X3545Y1664D01*
X3515Y1654D02*
X3535D01*
X3586Y1772D02*
X3644D01*
X3537Y1769D02*
X3541Y1765D01*
X3579D02*
X3586Y1772D01*
X3541Y1765D02*
X3579D01*
X3636Y2556D02*
X3644Y2549D01*
X3528Y2556D02*
X3636D01*
X3527Y2556D02*
Y2565D01*
X3520Y2573D02*
X3527Y2565D01*
Y2556D02*
X3528Y2556D01*
X3520Y2573D02*
Y2648D01*
X3527Y2556D02*
Y2556D01*
X3500Y2659D02*
X3509D01*
X3495Y2665D02*
X3500Y2659D01*
X3509D02*
X3520Y2648D01*
X3495Y2665D02*
Y2673D01*
X3581Y2376D02*
X3600Y2395D01*
X3644D01*
X3535Y2386D02*
X3545Y2376D01*
X3581D01*
X3527Y2386D02*
X3535D01*
X3523Y2542D02*
X3586D01*
X3608Y2520D01*
X3640D02*
X3644Y2523D01*
X3608Y2520D02*
X3640D01*
X3541Y2453D02*
X3581D01*
X3541Y2453D02*
X3541Y2453D01*
X3587Y2446D02*
X3644D01*
X3581Y2453D02*
X3587Y2446D01*
X3534Y2453D02*
X3541D01*
X3531Y2450D02*
X3534Y2453D01*
X3638Y2364D02*
X3644Y2369D01*
X3545Y2364D02*
X3638D01*
X3535Y2354D02*
X3545Y2364D01*
X3515Y2354D02*
X3535D01*
X3586Y2472D02*
X3644D01*
X3537Y2469D02*
X3541Y2465D01*
X3579D02*
X3586Y2472D01*
X3541Y2465D02*
X3579D01*
X3636Y3256D02*
X3644Y3249D01*
X3528Y3256D02*
X3636D01*
X3527Y3256D02*
Y3265D01*
X3520Y3273D02*
X3527Y3265D01*
Y3256D02*
X3528Y3256D01*
X3520Y3273D02*
Y3348D01*
X3527Y3256D02*
Y3256D01*
X3500Y3359D02*
X3509D01*
X3495Y3365D02*
X3500Y3359D01*
X3509D02*
X3520Y3348D01*
X3495Y3365D02*
Y3373D01*
X3581Y3076D02*
X3600Y3095D01*
X3644D01*
X3535Y3086D02*
X3545Y3076D01*
X3527Y3086D02*
X3535D01*
X3545Y3076D02*
X3581D01*
X3523Y3242D02*
X3586D01*
X3608Y3220D01*
X3640D02*
X3644Y3223D01*
X3608Y3220D02*
X3640D01*
X3541Y3153D02*
X3581D01*
X3541Y3153D02*
X3541Y3153D01*
X3587Y3146D02*
X3644D01*
X3581Y3153D02*
X3587Y3146D01*
X3534Y3153D02*
X3541D01*
X3531Y3150D02*
X3534Y3153D01*
X3638Y3064D02*
X3644Y3069D01*
X3545Y3064D02*
X3638D01*
X3535Y3054D02*
X3545Y3064D01*
X3515Y3054D02*
X3535D01*
X3586Y3172D02*
X3644D01*
X3537Y3169D02*
X3541Y3165D01*
X3579D02*
X3586Y3172D01*
X3541Y3165D02*
X3579D01*
X3636Y3956D02*
X3644Y3949D01*
X3528Y3956D02*
X3636D01*
X3527D02*
Y3956D01*
Y3965D01*
Y3956D02*
X3528Y3956D01*
X3520Y3973D02*
Y4048D01*
Y3973D02*
X3527Y3965D01*
X3500Y4059D02*
X3509D01*
X3495Y4065D02*
X3500Y4059D01*
X3509D02*
X3520Y4048D01*
X3495Y4065D02*
Y4073D01*
X3581Y3776D02*
X3600Y3795D01*
X3644D01*
X3535Y3786D02*
X3545Y3776D01*
X3581D01*
X3527Y3786D02*
X3535D01*
X3523Y3942D02*
X3586D01*
X3608Y3920D01*
X3640D02*
X3644Y3923D01*
X3608Y3920D02*
X3640D01*
X3541Y3853D02*
X3581D01*
X3541Y3853D02*
X3541Y3853D01*
X3587Y3846D02*
X3644D01*
X3581Y3853D02*
X3587Y3846D01*
X3534Y3853D02*
X3541D01*
X3531Y3850D02*
X3534Y3853D01*
X3638Y3764D02*
X3644Y3769D01*
X3545Y3764D02*
X3638D01*
X3535Y3754D02*
X3545Y3764D01*
X3515Y3754D02*
X3535D01*
X3586Y3872D02*
X3644D01*
X3537Y3869D02*
X3541Y3865D01*
X3579D02*
X3586Y3872D01*
X3541Y3865D02*
X3579D01*
X3636Y4656D02*
X3644Y4649D01*
X3528Y4656D02*
X3636D01*
X3527Y4656D02*
Y4665D01*
X3520Y4673D02*
X3527Y4665D01*
Y4656D02*
X3528Y4656D01*
X3520Y4673D02*
Y4748D01*
X3527Y4656D02*
Y4656D01*
X3509Y4759D02*
X3520Y4748D01*
X3500Y4759D02*
X3509D01*
X3495Y4765D02*
Y4773D01*
Y4765D02*
X3500Y4759D01*
X3581Y4476D02*
X3600Y4495D01*
X3644D01*
X3535Y4486D02*
X3545Y4476D01*
X3581D01*
X3527Y4486D02*
X3535D01*
X3523Y4642D02*
X3586D01*
X3608Y4620D01*
X3640D02*
X3644Y4623D01*
X3608Y4620D02*
X3640D01*
X3541Y4553D02*
X3581D01*
X3541Y4553D02*
X3541Y4553D01*
X3587Y4546D02*
X3644D01*
X3581Y4553D02*
X3587Y4546D01*
X3534Y4553D02*
X3541D01*
X3531Y4550D02*
X3534Y4553D01*
X3638Y4464D02*
X3644Y4469D01*
X3545Y4464D02*
X3638D01*
X3535Y4454D02*
X3545Y4464D01*
X3515Y4454D02*
X3535D01*
X3586Y4572D02*
X3644D01*
X3541Y4565D02*
X3579D01*
X3586Y4572D01*
X3537Y4569D02*
X3541Y4565D01*
X3636Y5358D02*
X3643Y5350D01*
X3527Y5358D02*
X3636D01*
X3527Y5358D02*
Y5367D01*
Y5358D02*
X3527Y5358D01*
X3508Y5461D02*
X3520Y5449D01*
X3500Y5461D02*
X3508D01*
X3520Y5375D02*
Y5449D01*
X3494Y5466D02*
Y5475D01*
Y5466D02*
X3500Y5461D01*
X3527Y5358D02*
Y5358D01*
X3520Y5375D02*
X3527Y5367D01*
X3580Y5178D02*
X3600Y5197D01*
X3643D01*
X3534Y5188D02*
X3545Y5178D01*
X3527Y5188D02*
X3534D01*
X3545Y5178D02*
X3580D01*
X3586Y5344D02*
X3608Y5322D01*
X3640D02*
X3643Y5325D01*
X3608Y5322D02*
X3640D01*
X3523Y5344D02*
X3586D01*
X3580Y5255D02*
X3587Y5248D01*
X3540Y5255D02*
X3580D01*
X3540Y5255D02*
X3540Y5255D01*
X3587Y5248D02*
X3643D01*
X3533Y5255D02*
X3540D01*
X3530Y5252D02*
X3533Y5255D01*
X3637Y5166D02*
X3643Y5171D01*
X3535Y5156D02*
X3545Y5166D01*
X3637D01*
X3515Y5156D02*
X3535D01*
X3585Y5274D02*
X3643D01*
X3578Y5267D02*
X3585Y5274D01*
X3536Y5271D02*
X3540Y5267D01*
X3578D01*
D12*
X3249Y916D02*
X3252Y913D01*
X3249Y1616D02*
X3252Y1613D01*
Y1211D02*
Y1613D01*
X3249Y2316D02*
X3252Y2313D01*
X3249Y3016D02*
X3252Y3013D01*
X3249Y3716D02*
X3252Y3713D01*
Y3311D02*
Y3713D01*
X3249Y4243D02*
X3252Y4240D01*
X3249Y4243D02*
Y4416D01*
X3249Y4943D02*
X3252Y4940D01*
X3249Y4943D02*
Y5118D01*
X3223Y5670D02*
X3252Y5642D01*
X1160Y5670D02*
X3223D01*
X6054Y4428D02*
X6125Y4499D01*
X5726Y4428D02*
X6054D01*
X5640Y4514D02*
X5726Y4428D01*
X6138Y4412D02*
X6225Y4499D01*
X5705Y4412D02*
X6138D01*
X5629Y4488D02*
X5705Y4412D01*
X6222Y4396D02*
X6325Y4499D01*
X5685Y4396D02*
X6222D01*
X5619Y4462D02*
X5685Y4396D01*
X6306Y4380D02*
X6425Y4499D01*
X5665Y4380D02*
X6306D01*
X5608Y4437D02*
X5665Y4380D01*
X5441Y4514D02*
X5640D01*
X5436Y4519D02*
X5441Y4514D01*
Y4488D02*
X5629D01*
X5436Y4493D02*
X5441Y4488D01*
Y4462D02*
X5619D01*
X5436Y4467D02*
X5441Y4462D01*
Y4437D02*
X5608D01*
X5436Y4442D02*
X5441Y4437D01*
X6167Y3742D02*
X6325Y3900D01*
X5436Y3742D02*
X6167D01*
X6092Y3767D02*
X6225Y3900D01*
X5436Y3767D02*
X6092D01*
X6018Y3793D02*
X6125Y3900D01*
X5436Y3793D02*
X6018D01*
X5944Y3819D02*
X6025Y3900D01*
X5436Y3819D02*
X5944D01*
X5872Y3047D02*
X6725Y3900D01*
X5441Y3047D02*
X5872D01*
X5436Y3042D02*
X5441Y3047D01*
X5797Y3072D02*
X6625Y3900D01*
X5441Y3072D02*
X5797D01*
X5436Y3067D02*
X5441Y3072D01*
X5723Y3098D02*
X6525Y3900D01*
X5441Y3098D02*
X5723D01*
X5436Y3093D02*
X5441Y3098D01*
X5649Y3124D02*
X6425Y3900D01*
X5441Y3124D02*
X5649D01*
X5436Y3119D02*
X5441Y3124D01*
X5708Y2414D02*
X6445Y1677D01*
X5441Y2414D02*
X5708D01*
X5436Y2419D02*
X5441Y2414D01*
X5634Y2388D02*
X6345Y1677D01*
X5441Y2388D02*
X5634D01*
X5436Y2393D02*
X5441Y2388D01*
X5559Y2362D02*
X6245Y1677D01*
X5441Y2362D02*
X5559D01*
X5436Y2367D02*
X5441Y2362D01*
X5485Y2337D02*
X6145Y1677D01*
X5441Y2337D02*
X5485D01*
X5436Y2342D02*
X5441Y2337D01*
X6693Y1525D02*
X6845Y1677D01*
X6619Y1551D02*
X6745Y1677D01*
X6544Y1576D02*
X6645Y1677D01*
X6545Y1642D02*
Y1677D01*
X6505Y1602D02*
X6545Y1642D01*
X5742Y1602D02*
X6505D01*
X5625Y1719D02*
X5742Y1602D01*
Y1576D02*
X6544D01*
X5625Y1693D02*
X5742Y1576D01*
Y1551D02*
X6619D01*
X5625Y1667D02*
X5742Y1551D01*
Y1525D02*
X6693D01*
X5625Y1642D02*
X5742Y1525D01*
X5436Y1719D02*
X5625D01*
X5436Y1693D02*
X5625D01*
X5436Y1642D02*
X5625D01*
X5436Y1667D02*
X5625D01*
X6307Y942D02*
X6445Y1080D01*
X5436Y942D02*
X6307D01*
X6232Y967D02*
X6345Y1080D01*
X5436Y967D02*
X6232D01*
X6158Y993D02*
X6245Y1080D01*
X5436Y993D02*
X6158D01*
X6084Y1019D02*
X6145Y1080D01*
X5436Y1019D02*
X6084D01*
X6737Y884D02*
Y972D01*
X6845Y1080D01*
X6711Y884D02*
Y1046D01*
X6745Y1080D01*
X6645D02*
X6686Y1039D01*
Y884D02*
Y1039D01*
X6545Y1080D02*
X6660Y965D01*
Y884D02*
Y965D01*
X6095Y242D02*
X6737Y884D01*
X6095Y267D02*
X6711Y884D01*
X6095Y293D02*
X6686Y884D01*
X6095Y319D02*
X6660Y884D01*
X5436Y319D02*
X6095D01*
X5436Y293D02*
X6095D01*
X5436Y242D02*
X6095D01*
X5436Y267D02*
X6095D01*
X5436Y916D02*
X5437D01*
X5440Y912D01*
Y495D02*
Y912D01*
X5436Y1200D02*
X5436Y1200D01*
Y1616D01*
Y2316D02*
X5437D01*
X5440Y2312D01*
Y1895D02*
Y2312D01*
X5436Y2599D02*
X5440Y2595D01*
X5436Y2599D02*
Y3016D01*
X5436Y3300D02*
X5436Y3300D01*
Y3716D01*
Y4416D02*
X5437D01*
X5440Y4412D01*
Y3995D02*
Y4412D01*
X3475Y565D02*
X3480Y570D01*
X3400Y565D02*
X3475D01*
X3439Y285D02*
X3485D01*
X3418Y264D02*
X3439Y285D01*
X3405Y265D02*
X3416D01*
X3418Y264D01*
X3626Y504D02*
X3629Y500D01*
X3479Y286D02*
X3527D01*
X3889Y218D02*
X3893Y214D01*
X3937Y360D02*
X3944Y352D01*
X3923Y346D02*
X3937Y360D01*
X3944Y345D02*
Y352D01*
X3875Y346D02*
X3923D01*
X3871Y496D02*
X3875Y500D01*
X3872Y349D02*
X3875Y346D01*
X3873Y272D02*
X3875Y269D01*
X3836Y496D02*
X3871D01*
X3840Y423D02*
X3875D01*
X3835Y417D02*
X3840Y423D01*
X3838Y349D02*
X3872D01*
X3838Y272D02*
X3873D01*
X3835Y353D02*
X3838Y349D01*
X3835Y417D02*
Y495D01*
Y353D02*
Y417D01*
Y495D02*
X3836Y496D01*
X3835Y275D02*
X3838Y272D01*
X3835Y275D02*
Y353D01*
X3252Y511D02*
Y913D01*
X3951Y507D02*
X3989D01*
X3918Y474D02*
X3951Y507D01*
X3875Y474D02*
X3918D01*
X3964Y563D02*
X4032D01*
X3942Y540D02*
X3964Y563D01*
X4032D02*
X4062Y532D01*
X3626Y504D02*
Y518D01*
X3629Y500D02*
X3644D01*
X3559Y540D02*
Y587D01*
X3537Y609D02*
X3559Y587D01*
Y540D02*
X3603D01*
X3366Y609D02*
X3537D01*
X3341Y584D02*
X3366Y609D01*
X3341Y543D02*
Y584D01*
X3603Y540D02*
X3626Y518D01*
X3603Y540D02*
X3942D01*
X3331Y510D02*
Y533D01*
X3341Y543D01*
X3328Y507D02*
X3331Y510D01*
X3249Y407D02*
Y507D01*
X3249Y417D02*
Y426D01*
X3519Y437D02*
X3523Y442D01*
X3519Y419D02*
Y437D01*
X3509Y410D02*
X3519Y419D01*
X3331Y410D02*
X3509D01*
X3327Y408D02*
Y417D01*
X3917Y412D02*
X3989D01*
X3907Y401D02*
X3917Y412D01*
X3879Y401D02*
X3907D01*
X3875Y397D02*
X3879Y401D01*
X4069Y426D02*
Y434D01*
X4057Y426D02*
X4069D01*
X3235Y439D02*
X3249Y426D01*
X3207Y439D02*
X3235D01*
X3194Y260D02*
X3214Y280D01*
X3190Y457D02*
X3207Y439D01*
X3127Y457D02*
X3190D01*
X3214Y280D02*
X3249D01*
X3134Y260D02*
X3194D01*
X3120Y450D02*
X3127Y457D01*
X3120Y274D02*
Y450D01*
Y274D02*
X3134Y260D01*
X3496Y315D02*
X3531Y350D01*
X3446Y315D02*
X3496D01*
X3334Y312D02*
Y317D01*
X3436Y305D02*
X3446Y315D01*
X3341Y305D02*
X3436D01*
X3334Y312D02*
X3341Y305D01*
X3970Y295D02*
X3989Y314D01*
X3934Y295D02*
X3970D01*
X3875Y321D02*
X3908D01*
X3934Y295D01*
X4070Y311D02*
X4084D01*
X3249Y216D02*
Y280D01*
X3449Y254D02*
X3515D01*
X3447Y251D02*
Y252D01*
X3449Y254D01*
X3446Y251D02*
X3447D01*
X3446Y244D02*
Y251D01*
X3445Y238D02*
Y244D01*
X3446Y244D01*
X3422Y215D02*
X3445Y238D01*
X3328Y215D02*
X3422D01*
X3328D02*
Y216D01*
X3327Y215D02*
X3328Y216D01*
X3946Y216D02*
X3989D01*
X3918Y244D02*
X3946Y216D01*
X3875Y244D02*
X3918D01*
X4067Y216D02*
X4095Y188D01*
X4069Y156D02*
Y187D01*
X4075Y193D01*
X3996Y84D02*
X4069Y156D01*
X3414Y84D02*
X3996D01*
X3328Y170D02*
X3414Y84D01*
X3328Y170D02*
Y215D01*
X4209Y593D02*
X4211Y591D01*
Y582D02*
Y591D01*
X4153Y593D02*
X4209D01*
X4067Y507D02*
X4153Y593D01*
X4365Y465D02*
X4368Y463D01*
X4287Y465D02*
X4365D01*
X4286Y473D02*
X4293Y480D01*
X4207Y473D02*
Y481D01*
X4141Y460D02*
Y470D01*
X4134Y478D02*
X4141Y470D01*
Y460D02*
X4207D01*
X4213Y465D01*
X4104Y448D02*
X4134Y478D01*
X4083Y448D02*
X4104D01*
X4069Y434D02*
X4083Y448D01*
X3328Y407D02*
X3331Y410D01*
X3180Y401D02*
Y410D01*
X3298Y379D02*
X3327Y408D01*
X3298Y379D02*
X3298D01*
X3298Y379D02*
X3298Y379D01*
X3298Y379D02*
X3298D01*
X3178Y399D02*
X3180Y401D01*
X3178Y399D02*
X3204Y373D01*
X3292D02*
X3298Y379D01*
X3204Y373D02*
X3292D01*
X4095Y188D02*
X4180D01*
X4213Y155D01*
X4084Y311D02*
X4090Y305D01*
X4144Y295D02*
X4169D01*
X4090Y305D02*
X4129D01*
X4193Y270D02*
X4213Y290D01*
X4169Y295D02*
X4193Y270D01*
X4129Y305D02*
X4144Y290D01*
Y295D01*
X3298Y346D02*
X3314Y330D01*
X3207Y346D02*
X3298D01*
X3314Y310D02*
Y330D01*
X3188Y327D02*
X3207Y346D01*
X3314Y310D02*
X3327Y297D01*
X3471Y504D02*
X3475Y508D01*
X3438Y443D02*
X3479D01*
X3437Y504D02*
X3471D01*
X3407Y474D02*
X3437Y504D01*
X3407Y474D02*
X3438Y443D01*
X3527Y379D02*
X3537Y369D01*
X3479Y379D02*
X3527D01*
X3466Y366D02*
X3479Y379D01*
X3426Y366D02*
X3466D01*
X3405Y345D02*
X3426Y366D01*
X3479Y180D02*
Y222D01*
X3495Y141D02*
X3531D01*
X3477Y159D02*
X3495Y141D01*
X3469Y170D02*
X3479Y180D01*
X3469Y159D02*
X3477D01*
X3469D02*
Y170D01*
X3644Y190D02*
Y218D01*
X3618Y164D02*
X3644Y190D01*
X3700Y144D02*
X3705Y149D01*
X3598Y144D02*
X3700D01*
X3608Y164D02*
X3618D01*
X3595Y151D02*
X3608Y164D01*
X3595Y141D02*
Y151D01*
Y141D02*
X3598Y144D01*
X1995Y430D02*
X2000Y425D01*
X2062D02*
X2075Y412D01*
X2000Y425D02*
X2062D01*
X2690D02*
X2695Y430D01*
X2613Y425D02*
X2690D01*
X2597Y410D02*
X2613Y425D01*
X2595Y412D02*
X2597Y410D01*
X2599Y344D02*
X2599Y345D01*
X2569Y410D02*
X2597D01*
X2549Y390D02*
X2569Y410D01*
X2485Y390D02*
X2549D01*
X2200Y335D02*
X2205Y340D01*
X2078Y400D02*
X2079Y402D01*
Y400D02*
X2205D01*
X4917Y503D02*
X4981D01*
X4902Y505D02*
X4908D01*
X4917Y514D01*
Y503D02*
Y514D01*
X4952Y205D02*
X4980Y233D01*
X4902Y205D02*
X4952D01*
X4970Y163D02*
X4980D01*
X4962Y155D02*
X4970Y163D01*
X4902Y155D02*
X4962D01*
X4673Y170D02*
X4676Y166D01*
X4610Y170D02*
X4673D01*
X4600Y310D02*
X4602Y308D01*
X4685D02*
X4688Y305D01*
X4705D01*
X4602Y308D02*
X4685D01*
X4825Y455D02*
X4902D01*
X4840Y255D02*
X4902D01*
X4775Y405D02*
X4825Y455D01*
X4775Y320D02*
X4840Y255D01*
X4805Y220D02*
X4840Y255D01*
X4805Y133D02*
Y220D01*
X4799Y127D02*
X4805Y133D01*
X4688Y405D02*
X4775D01*
Y320D02*
Y405D01*
X4600Y230D02*
X4663D01*
X4688Y205D01*
X4583Y127D02*
X4799D01*
X4540Y170D02*
X4600Y230D01*
X4540Y170D02*
X4583Y127D01*
X2119Y490D02*
X2205D01*
X2105Y504D02*
Y504D01*
Y504D02*
X2119Y490D01*
X2047Y320D02*
X2075Y348D01*
X1995Y320D02*
X2047D01*
X1995Y309D02*
Y320D01*
X2005Y271D02*
Y299D01*
Y271D02*
X2026Y250D01*
X1995Y309D02*
X2005Y299D01*
X2203Y292D02*
X2205Y290D01*
X2138Y292D02*
X2203D01*
X2104Y259D02*
X2138Y292D01*
X2104Y250D02*
Y259D01*
X2688Y303D02*
X2695Y310D01*
X2688Y254D02*
Y303D01*
X2634Y310D02*
X2695D01*
X2674Y240D02*
X2688Y254D01*
X2599Y345D02*
X2634Y310D01*
X2595Y348D02*
X2599Y344D01*
X2596Y240D02*
Y249D01*
X2554Y290D02*
X2596Y249D01*
X2485Y290D02*
X2554D01*
X2586Y504D02*
Y504D01*
X2572Y490D02*
X2586Y504D01*
X2485Y490D02*
X2572D01*
X2664Y504D02*
Y520D01*
X2024Y606D02*
Y684D01*
Y606D02*
X2026Y605D01*
X2026Y504D02*
Y591D01*
X3559Y494D02*
X3563Y491D01*
X3592D01*
X3609Y474D02*
X3644D01*
X3592Y491D02*
X3609Y474D01*
X2104Y632D02*
Y684D01*
Y632D02*
X2118Y619D01*
X2119Y604D02*
X2183Y540D01*
X2205D01*
X3593Y403D02*
X3599Y397D01*
X3560Y403D02*
X3593D01*
X3561Y403D02*
X3561D01*
X3560Y403D02*
X3561Y403D01*
X3599Y397D02*
X3644D01*
X2196Y231D02*
X2205Y240D01*
X2166Y231D02*
X2196D01*
X2104Y170D02*
X2166Y231D01*
X2104Y161D02*
Y170D01*
Y90D02*
Y161D01*
X2026D02*
Y250D01*
X2675Y150D02*
Y239D01*
X2674Y240D02*
X2675Y239D01*
X3599Y321D02*
X3644D01*
X3592Y314D02*
X3599Y321D01*
X3561Y314D02*
X3592D01*
X2835Y295D02*
Y305D01*
X2694Y154D02*
X2835Y295D01*
X2515Y231D02*
X2596Y150D01*
X2599Y127D02*
X2608D01*
X2586Y141D02*
Y150D01*
X2485Y240D02*
X2494Y231D01*
X2515D01*
X2694Y118D02*
Y154D01*
X2681Y105D02*
X2694Y118D01*
X2631Y105D02*
X2681D01*
X2586Y141D02*
X2599Y127D01*
X2608D02*
X2631Y105D01*
X2665Y616D02*
Y685D01*
X2660Y611D02*
X2665Y616D01*
X2660Y611D02*
X2665Y606D01*
X2664Y605D02*
X2665Y606D01*
X2664Y520D02*
Y591D01*
X3643Y244D02*
X3644Y244D01*
X3609Y244D02*
X3643D01*
X2875Y288D02*
Y580D01*
X2835Y248D02*
X2875Y288D01*
X3562Y228D02*
X3592D01*
X3609Y244D01*
X3559Y224D02*
X3562Y228D01*
X2835Y215D02*
Y248D01*
X2615Y735D02*
X2720D01*
X2586Y705D02*
X2615Y735D01*
X2720D02*
X2875Y580D01*
X2586Y605D02*
Y705D01*
X2576Y600D02*
X2586Y591D01*
X2516Y540D02*
X2576Y600D01*
X2485Y540D02*
X2516D01*
X2120Y443D02*
X2202D01*
X2078Y485D02*
X2120Y443D01*
X2202D02*
X2205Y440D01*
X1885Y485D02*
X2078D01*
X1565Y511D02*
X1859D01*
X1885Y485D01*
X2196Y349D02*
X2205Y340D01*
X2161Y349D02*
X2196D01*
X1596Y380D02*
X2130D01*
X1565Y411D02*
X1596Y380D01*
X2130D02*
X2161Y349D01*
X2485Y340D02*
X2485Y340D01*
X2455Y340D02*
X2485D01*
X2166Y50D02*
X2455Y340D01*
X1565Y311D02*
X1769D01*
X2030Y50D02*
X2166D01*
X1769Y311D02*
X2030Y50D01*
X2463Y440D02*
X2485D01*
X1655Y730D02*
X2173D01*
X2463Y440D01*
X1520Y595D02*
X1655Y730D01*
X1520Y255D02*
Y595D01*
Y255D02*
X1565Y211D01*
X5436Y500D02*
X5440Y495D01*
X5225Y546D02*
X5330D01*
X5333Y543D01*
X5203Y240D02*
X5205Y242D01*
X5160Y233D02*
X5167Y240D01*
X5203D01*
X5160Y200D02*
Y233D01*
X5113Y153D02*
X5160Y200D01*
X5066Y153D02*
X5113D01*
X4825Y548D02*
X5035D01*
X5060Y523D01*
X4732Y455D02*
X4825Y548D01*
X4688Y455D02*
X4732D01*
X5060Y159D02*
Y523D01*
Y159D02*
X5066Y153D01*
X5163Y267D02*
X5205D01*
X5110Y215D02*
X5163Y267D01*
X5110Y213D02*
Y215D01*
X5201Y289D02*
X5205Y293D01*
X5176Y289D02*
X5201D01*
X5110Y288D02*
X5175D01*
X5176Y289D01*
X5100Y360D02*
Y513D01*
Y360D02*
X5142Y319D01*
X5045Y568D02*
X5100Y513D01*
X5142Y319D02*
X5205D01*
X4808Y568D02*
X5045D01*
X4745Y505D02*
X4808Y568D01*
X4688Y505D02*
X4745D01*
X5215Y482D02*
X5225D01*
X5205Y370D02*
X5254D01*
X5260Y363D01*
Y231D02*
Y363D01*
X5245Y216D02*
X5260Y231D01*
X5202Y469D02*
X5215Y482D01*
X5202Y458D02*
Y469D01*
X5182Y374D02*
Y386D01*
X5186Y370D02*
X5205D01*
X5182Y374D02*
X5186Y370D01*
X5169Y426D02*
X5202Y458D01*
X5150Y418D02*
X5182Y386D01*
X5158Y426D02*
X5169D01*
X5150Y418D02*
X5158Y426D01*
X5205Y216D02*
X5245D01*
X5494Y431D02*
X5520Y405D01*
X5440Y431D02*
X5494D01*
X5485Y370D02*
X5520Y405D01*
X5436Y370D02*
X5485D01*
X5432Y475D02*
X5435Y479D01*
X5398Y475D02*
X5432D01*
X5396Y216D02*
X5436D01*
X5370Y448D02*
X5398Y475D01*
X5370Y242D02*
Y448D01*
Y242D02*
X5396Y216D01*
X4368Y602D02*
X4450D01*
X4367Y603D02*
X4368Y602D01*
X4356Y603D02*
X4367D01*
X4344Y591D02*
X4356Y603D01*
X4287Y591D02*
X4344D01*
X4630Y360D02*
X4683D01*
X4440Y525D02*
X4465D01*
X4683Y360D02*
X4688Y355D01*
X4465Y525D02*
X4630Y360D01*
X4083Y465D02*
X4142Y525D01*
X4440D01*
X3940Y465D02*
X4083D01*
X3923Y449D02*
X3940Y465D01*
X3875Y449D02*
X3923D01*
X4450Y457D02*
X4530Y377D01*
Y278D02*
Y377D01*
X4365Y382D02*
X4440Y457D01*
X4683Y250D02*
X4688Y255D01*
X4530Y278D02*
X4558Y250D01*
X4683D01*
X3962Y390D02*
X3970Y382D01*
X4365D01*
X3930Y389D02*
Y390D01*
X3962D01*
X3913Y372D02*
X3930Y389D01*
X3875Y372D02*
X3913D01*
X4944Y405D02*
X4970Y379D01*
X4902Y405D02*
X4944D01*
X4970Y339D02*
X5041Y268D01*
X4970Y339D02*
Y379D01*
X4394Y221D02*
X4450Y165D01*
X4454Y161D02*
X4488D01*
X5041Y141D02*
Y268D01*
X4988Y88D02*
X5041Y141D01*
X4560Y88D02*
X4988D01*
X4450Y165D02*
X4454Y161D01*
X4488D02*
X4560Y88D01*
X4099Y238D02*
X4116Y221D01*
X4041Y238D02*
X4099D01*
X4116Y221D02*
X4394D01*
X4035Y232D02*
X4041Y238D01*
X3875Y218D02*
X3889D01*
X4035Y169D02*
Y232D01*
X4010Y144D02*
X4035Y169D01*
X3949Y144D02*
X4010D01*
X3893Y200D02*
Y214D01*
Y200D02*
X3949Y144D01*
X4412Y95D02*
X4445D01*
X4450Y90D01*
X4370Y138D02*
X4412Y95D01*
X4361Y138D02*
X4370D01*
X4344Y155D02*
X4361Y138D01*
X4287Y155D02*
X4344D01*
X4902Y305D02*
X4980D01*
X5025Y260D01*
X4474Y214D02*
Y223D01*
Y214D02*
X4515Y172D01*
X5025Y148D02*
Y260D01*
X4985Y108D02*
X5025Y148D01*
X4566Y108D02*
X4985D01*
X4515Y159D02*
Y172D01*
Y159D02*
X4566Y108D01*
X3942Y264D02*
X4105D01*
X3910Y295D02*
X3942Y264D01*
X4129Y240D02*
X4448D01*
X3875Y295D02*
X3910D01*
X4459Y238D02*
X4474Y223D01*
X4450Y238D02*
X4459D01*
X4105Y264D02*
X4129Y240D01*
X4448D02*
X4450Y238D01*
Y313D02*
Y382D01*
X4366Y313D02*
X4450D01*
X4340Y338D02*
X4366Y313D01*
X4302Y310D02*
X4312D01*
X4340Y338D01*
X4287Y295D02*
X4302Y310D01*
X4287Y290D02*
Y295D01*
X3475Y1265D02*
X3480Y1270D01*
X3400Y1265D02*
X3475D01*
X3439Y985D02*
X3485D01*
X3418Y964D02*
X3439Y985D01*
X3416Y965D02*
X3418Y964D01*
X3405Y965D02*
X3416D01*
X3626Y1204D02*
X3629Y1200D01*
X3479Y986D02*
X3527D01*
X3889Y918D02*
X3893Y914D01*
X3937Y1060D02*
X3944Y1052D01*
X3923Y1046D02*
X3937Y1060D01*
X3944Y1045D02*
Y1052D01*
X3875Y1046D02*
X3923D01*
X3871Y1196D02*
X3875Y1200D01*
X3872Y1049D02*
X3875Y1046D01*
X3873Y972D02*
X3875Y969D01*
X3836Y1196D02*
X3871D01*
X3840Y1123D02*
X3875D01*
X3835Y1117D02*
X3840Y1123D01*
X3838Y1049D02*
X3872D01*
X3838Y972D02*
X3873D01*
X3835Y1053D02*
X3838Y1049D01*
X3835Y1117D02*
Y1195D01*
Y1053D02*
Y1117D01*
Y1195D02*
X3836Y1196D01*
X3835Y975D02*
X3838Y972D01*
X3835Y975D02*
Y1053D01*
X3951Y1207D02*
X3989D01*
X3918Y1174D02*
X3951Y1207D01*
X3875Y1174D02*
X3918D01*
X3964Y1263D02*
X4032D01*
X3942Y1240D02*
X3964Y1263D01*
X4032D02*
X4062Y1232D01*
X3626Y1204D02*
Y1218D01*
X3629Y1200D02*
X3644D01*
X3559Y1240D02*
Y1287D01*
X3537Y1309D02*
X3559Y1287D01*
Y1240D02*
X3603D01*
X3366Y1309D02*
X3537D01*
X3341Y1284D02*
X3366Y1309D01*
X3341Y1243D02*
Y1284D01*
X3603Y1240D02*
X3626Y1218D01*
X3603Y1240D02*
X3942D01*
X3331Y1210D02*
Y1233D01*
X3341Y1243D01*
X3328Y1207D02*
X3331Y1210D01*
X3249Y1107D02*
Y1207D01*
X3249Y1117D02*
Y1126D01*
X3519Y1137D02*
X3523Y1142D01*
X3519Y1119D02*
Y1137D01*
X3509Y1110D02*
X3519Y1119D01*
X3331Y1110D02*
X3509D01*
X3327Y1108D02*
Y1117D01*
X3917Y1112D02*
X3989D01*
X3907Y1101D02*
X3917Y1112D01*
X3879Y1101D02*
X3907D01*
X3875Y1097D02*
X3879Y1101D01*
X4069Y1126D02*
Y1134D01*
X4057Y1126D02*
X4069D01*
X3235Y1139D02*
X3249Y1126D01*
X3214Y980D02*
X3249D01*
X3207Y1139D02*
X3235D01*
X3190Y1157D02*
X3207Y1139D01*
X3127Y1157D02*
X3190D01*
X3194Y960D02*
X3214Y980D01*
X3134Y960D02*
X3194D01*
X3120Y1150D02*
X3127Y1157D01*
X3120Y974D02*
Y1150D01*
Y974D02*
X3134Y960D01*
X3496Y1015D02*
X3531Y1050D01*
X3446Y1015D02*
X3496D01*
X3334Y1012D02*
Y1017D01*
X3436Y1005D02*
X3446Y1015D01*
X3341Y1005D02*
X3436D01*
X3334Y1012D02*
X3341Y1005D01*
X3970Y995D02*
X3989Y1014D01*
X3934Y995D02*
X3970D01*
X3875Y1021D02*
X3908D01*
X3934Y995D01*
X4070Y1011D02*
X4084D01*
X3249Y916D02*
Y980D01*
X3449Y954D02*
X3515D01*
X3447Y951D02*
Y952D01*
X3449Y954D01*
X3446Y951D02*
X3447D01*
X3446Y944D02*
Y951D01*
X3445Y938D02*
Y944D01*
X3446Y944D01*
X3422Y915D02*
X3445Y938D01*
X3328Y915D02*
X3422D01*
X3328D02*
Y916D01*
X3327Y915D02*
X3328Y916D01*
X3946Y916D02*
X3989D01*
X3918Y944D02*
X3946Y916D01*
X3875Y944D02*
X3918D01*
X4067Y916D02*
X4095Y888D01*
X4069Y856D02*
Y887D01*
X4075Y893D01*
X3996Y784D02*
X4069Y856D01*
X3414Y784D02*
X3996D01*
X3328Y870D02*
X3414Y784D01*
X3328Y870D02*
Y915D01*
X4209Y1293D02*
X4211Y1291D01*
Y1282D02*
Y1291D01*
X4153Y1293D02*
X4209D01*
X4067Y1207D02*
X4153Y1293D01*
X4365Y1165D02*
X4368Y1163D01*
X4287Y1165D02*
X4365D01*
X4286Y1173D02*
X4293Y1180D01*
X4207Y1173D02*
Y1181D01*
X4141Y1160D02*
Y1170D01*
X4134Y1178D02*
X4141Y1170D01*
Y1160D02*
X4207D01*
X4213Y1165D01*
X4104Y1148D02*
X4134Y1178D01*
X4083Y1148D02*
X4104D01*
X4069Y1134D02*
X4083Y1148D01*
X3328Y1107D02*
X3331Y1110D01*
X3180Y1101D02*
Y1110D01*
X3298Y1079D02*
X3327Y1108D01*
X3298Y1079D02*
X3298D01*
X3298Y1079D02*
X3298Y1079D01*
X3298Y1079D02*
X3298D01*
X3178Y1099D02*
X3180Y1101D01*
X3178Y1099D02*
X3204Y1073D01*
X3292D02*
X3298Y1079D01*
X3204Y1073D02*
X3292D01*
X4095Y888D02*
X4180D01*
X4213Y855D01*
X4084Y1011D02*
X4090Y1005D01*
X4144Y995D02*
X4169D01*
X4090Y1005D02*
X4129D01*
X4193Y970D02*
X4213Y990D01*
X4169Y995D02*
X4193Y970D01*
X4129Y1005D02*
X4144Y990D01*
Y995D01*
X3298Y1046D02*
X3314Y1030D01*
X3207Y1046D02*
X3298D01*
X3314Y1010D02*
Y1030D01*
X3188Y1027D02*
X3207Y1046D01*
X3314Y1010D02*
X3327Y997D01*
X3471Y1204D02*
X3475Y1208D01*
X3437Y1204D02*
X3471D01*
X3438Y1143D02*
X3479D01*
X3407Y1174D02*
X3437Y1204D01*
X3407Y1174D02*
X3438Y1143D01*
X3527Y1079D02*
X3537Y1069D01*
X3479Y1079D02*
X3527D01*
X3466Y1066D02*
X3479Y1079D01*
X3426Y1066D02*
X3466D01*
X3405Y1045D02*
X3426Y1066D01*
X3479Y880D02*
Y922D01*
X3495Y841D02*
X3531D01*
X3477Y859D02*
X3495Y841D01*
X3469Y870D02*
X3479Y880D01*
X3469Y859D02*
Y870D01*
Y859D02*
X3477D01*
X3644Y890D02*
Y918D01*
X3618Y864D02*
X3644Y890D01*
X3700Y844D02*
X3705Y849D01*
X3598Y844D02*
X3700D01*
X3608Y864D02*
X3618D01*
X3595Y851D02*
X3608Y864D01*
X3595Y841D02*
Y851D01*
Y841D02*
X3598Y844D01*
X1995Y1130D02*
X2000Y1125D01*
X2062D02*
X2075Y1112D01*
X2000Y1125D02*
X2062D01*
X2690D02*
X2695Y1130D01*
X2613Y1125D02*
X2690D01*
X2597Y1110D02*
X2613Y1125D01*
X2595Y1112D02*
X2597Y1110D01*
X2599Y1044D02*
X2599Y1045D01*
X2569Y1110D02*
X2597D01*
X2549Y1090D02*
X2569Y1110D01*
X2485Y1090D02*
X2549D01*
X2200Y1035D02*
X2205Y1040D01*
X2078Y1100D02*
X2079Y1102D01*
Y1100D02*
X2205D01*
X4917Y1203D02*
X4981D01*
X4902Y1205D02*
X4908D01*
X4917Y1214D01*
Y1203D02*
Y1214D01*
X4952Y905D02*
X4980Y933D01*
X4902Y905D02*
X4952D01*
X4970Y863D02*
X4980D01*
X4962Y855D02*
X4970Y863D01*
X4902Y855D02*
X4962D01*
X4673Y870D02*
X4676Y866D01*
X4610Y870D02*
X4673D01*
X4600Y1010D02*
X4602Y1008D01*
X4685D02*
X4688Y1005D01*
X4705D01*
X4602Y1008D02*
X4685D01*
X4825Y1155D02*
X4902D01*
X4840Y955D02*
X4902D01*
X4775Y1105D02*
X4825Y1155D01*
X4775Y1020D02*
X4840Y955D01*
X4805Y920D02*
X4840Y955D01*
X4805Y833D02*
Y920D01*
X4799Y827D02*
X4805Y833D01*
X4688Y1105D02*
X4775D01*
Y1020D02*
Y1105D01*
X4600Y930D02*
X4663D01*
X4688Y905D01*
X4583Y827D02*
X4799D01*
X4540Y870D02*
X4600Y930D01*
X4540Y870D02*
X4583Y827D01*
X2119Y1190D02*
X2205D01*
X2105Y1204D02*
Y1204D01*
Y1204D02*
X2119Y1190D01*
X2047Y1020D02*
X2075Y1048D01*
X1995Y1020D02*
X2047D01*
X1995Y1009D02*
Y1020D01*
X2005Y971D02*
Y999D01*
Y971D02*
X2026Y950D01*
X1995Y1009D02*
X2005Y999D01*
X2203Y992D02*
X2205Y990D01*
X2138Y992D02*
X2203D01*
X2104Y959D02*
X2138Y992D01*
X2104Y950D02*
Y959D01*
X2688Y1003D02*
X2695Y1010D01*
X2688Y954D02*
Y1003D01*
X2674Y940D02*
X2688Y954D01*
X2634Y1010D02*
X2695D01*
X2599Y1045D02*
X2634Y1010D01*
X2595Y1048D02*
X2599Y1044D01*
X2596Y940D02*
Y949D01*
X2554Y990D02*
X2596Y949D01*
X2485Y990D02*
X2554D01*
X2586Y1204D02*
Y1204D01*
X2572Y1190D02*
X2586Y1204D01*
X2485Y1190D02*
X2572D01*
X2664Y1204D02*
Y1220D01*
X2024Y1306D02*
Y1384D01*
Y1306D02*
X2026Y1305D01*
X2026Y1204D02*
Y1291D01*
X3559Y1194D02*
X3563Y1191D01*
X3592D01*
X3609Y1174D02*
X3644D01*
X3592Y1191D02*
X3609Y1174D01*
X2104Y1332D02*
Y1384D01*
Y1332D02*
X2118Y1319D01*
X2119Y1304D02*
X2183Y1240D01*
X2205D01*
X3593Y1103D02*
X3599Y1097D01*
X3560Y1103D02*
X3593D01*
X3561Y1103D02*
X3561D01*
X3560Y1103D02*
X3561Y1103D01*
X3599Y1097D02*
X3644D01*
X2196Y931D02*
X2205Y940D01*
X2166Y931D02*
X2196D01*
X2104Y870D02*
X2166Y931D01*
X2104Y861D02*
Y870D01*
Y790D02*
Y861D01*
X2026D02*
Y950D01*
X2675Y850D02*
Y939D01*
X2674Y940D02*
X2675Y939D01*
X3599Y1021D02*
X3644D01*
X3592Y1014D02*
X3599Y1021D01*
X3561Y1014D02*
X3592D01*
X2835Y995D02*
Y1005D01*
X2694Y854D02*
X2835Y995D01*
X2515Y931D02*
X2596Y850D01*
X2599Y827D02*
X2608D01*
X2586Y841D02*
Y850D01*
X2485Y940D02*
X2494Y931D01*
X2515D01*
X2694Y818D02*
Y854D01*
X2681Y805D02*
X2694Y818D01*
X2631Y805D02*
X2681D01*
X2586Y841D02*
X2599Y827D01*
X2608D02*
X2631Y805D01*
X2665Y1316D02*
Y1385D01*
X2660Y1311D02*
X2665Y1316D01*
X2660Y1311D02*
X2665Y1306D01*
X2664Y1305D02*
X2665Y1306D01*
X2664Y1220D02*
Y1291D01*
X3643Y944D02*
X3644Y944D01*
X3609Y944D02*
X3643D01*
X2875Y988D02*
Y1280D01*
X2835Y948D02*
X2875Y988D01*
X3562Y928D02*
X3592D01*
X3609Y944D01*
X3559Y924D02*
X3562Y928D01*
X2835Y915D02*
Y948D01*
X2615Y1435D02*
X2720D01*
X2586Y1405D02*
X2615Y1435D01*
X2720D02*
X2875Y1280D01*
X2586Y1305D02*
Y1405D01*
X2576Y1300D02*
X2586Y1291D01*
X2516Y1240D02*
X2576Y1300D01*
X2485Y1240D02*
X2516D01*
X2120Y1143D02*
X2202D01*
X2078Y1185D02*
X2120Y1143D01*
X2202D02*
X2205Y1140D01*
X1885Y1185D02*
X2078D01*
X1565Y1211D02*
X1859D01*
X1885Y1185D01*
X2196Y1049D02*
X2205Y1040D01*
X2161Y1049D02*
X2196D01*
X1596Y1080D02*
X2130D01*
X1565Y1111D02*
X1596Y1080D01*
X2130D02*
X2161Y1049D01*
X2485Y1040D02*
X2485Y1040D01*
X2455Y1040D02*
X2485D01*
X2166Y750D02*
X2455Y1040D01*
X1565Y1011D02*
X1769D01*
X2030Y750D02*
X2166D01*
X1769Y1011D02*
X2030Y750D01*
X2463Y1140D02*
X2485D01*
X1655Y1430D02*
X2173D01*
X2463Y1140D01*
X1520Y1295D02*
X1655Y1430D01*
X1520Y955D02*
Y1295D01*
Y955D02*
X1565Y911D01*
X5436Y1200D02*
X5440Y1195D01*
X5225Y1246D02*
X5330D01*
X5333Y1243D01*
X5203Y940D02*
X5205Y942D01*
X5160Y933D02*
X5167Y940D01*
X5203D01*
X5160Y900D02*
Y933D01*
X5113Y853D02*
X5160Y900D01*
X5066Y853D02*
X5113D01*
X4825Y1248D02*
X5035D01*
X5060Y1223D01*
X4732Y1155D02*
X4825Y1248D01*
X4688Y1155D02*
X4732D01*
X5060Y859D02*
Y1223D01*
Y859D02*
X5066Y853D01*
X5163Y967D02*
X5205D01*
X5110Y915D02*
X5163Y967D01*
X5110Y913D02*
Y915D01*
X5201Y989D02*
X5205Y993D01*
X5176Y989D02*
X5201D01*
X5110Y988D02*
X5175D01*
X5176Y989D01*
X5100Y1060D02*
Y1213D01*
Y1060D02*
X5142Y1019D01*
X5045Y1268D02*
X5100Y1213D01*
X5142Y1019D02*
X5205D01*
X4808Y1268D02*
X5045D01*
X4745Y1205D02*
X4808Y1268D01*
X4688Y1205D02*
X4745D01*
X5215Y1182D02*
X5225D01*
X5205Y1070D02*
X5254D01*
X5260Y1063D01*
Y931D02*
Y1063D01*
X5245Y916D02*
X5260Y931D01*
X5202Y1169D02*
X5215Y1182D01*
X5202Y1158D02*
Y1169D01*
X5182Y1074D02*
Y1086D01*
X5186Y1070D02*
X5205D01*
X5182Y1074D02*
X5186Y1070D01*
X5169Y1126D02*
X5202Y1158D01*
X5150Y1118D02*
X5182Y1086D01*
X5158Y1126D02*
X5169D01*
X5150Y1118D02*
X5158Y1126D01*
X5205Y916D02*
X5245D01*
X5494Y1131D02*
X5520Y1105D01*
X5440Y1131D02*
X5494D01*
X5485Y1070D02*
X5520Y1105D01*
X5436Y1070D02*
X5485D01*
X5432Y1175D02*
X5435Y1179D01*
X5398Y1175D02*
X5432D01*
X5396Y916D02*
X5436D01*
X5370Y1148D02*
X5398Y1175D01*
X5370Y942D02*
Y1148D01*
Y942D02*
X5396Y916D01*
X4368Y1302D02*
X4450D01*
X4367Y1303D02*
X4368Y1302D01*
X4356Y1303D02*
X4367D01*
X4344Y1291D02*
X4356Y1303D01*
X4287Y1291D02*
X4344D01*
X4630Y1060D02*
X4683D01*
X4440Y1225D02*
X4465D01*
X4683Y1060D02*
X4688Y1055D01*
X4465Y1225D02*
X4630Y1060D01*
X4083Y1165D02*
X4142Y1225D01*
X4440D01*
X3940Y1165D02*
X4083D01*
X3923Y1149D02*
X3940Y1165D01*
X3875Y1149D02*
X3923D01*
X4450Y1157D02*
X4530Y1077D01*
Y978D02*
Y1077D01*
X4365Y1082D02*
X4440Y1157D01*
X4683Y950D02*
X4688Y955D01*
X4530Y978D02*
X4558Y950D01*
X4683D01*
X3962Y1090D02*
X3970Y1082D01*
X4365D01*
X3930Y1089D02*
Y1090D01*
X3962D01*
X3913Y1072D02*
X3930Y1089D01*
X3875Y1072D02*
X3913D01*
X4944Y1105D02*
X4970Y1079D01*
X4902Y1105D02*
X4944D01*
X4970Y1039D02*
X5041Y968D01*
X4970Y1039D02*
Y1079D01*
X4394Y921D02*
X4450Y865D01*
X4454Y861D02*
X4488D01*
X5041Y841D02*
Y968D01*
X4988Y788D02*
X5041Y841D01*
X4560Y788D02*
X4988D01*
X4450Y865D02*
X4454Y861D01*
X4488D02*
X4560Y788D01*
X4099Y938D02*
X4116Y921D01*
X4041Y938D02*
X4099D01*
X4116Y921D02*
X4394D01*
X4035Y932D02*
X4041Y938D01*
X3875Y918D02*
X3889D01*
X4035Y869D02*
Y932D01*
X4010Y844D02*
X4035Y869D01*
X3949Y844D02*
X4010D01*
X3893Y900D02*
Y914D01*
Y900D02*
X3949Y844D01*
X4412Y795D02*
X4445D01*
X4450Y790D01*
X4370Y838D02*
X4412Y795D01*
X4361Y838D02*
X4370D01*
X4344Y855D02*
X4361Y838D01*
X4287Y855D02*
X4344D01*
X4902Y1005D02*
X4980D01*
X5025Y960D01*
X4474Y914D02*
Y923D01*
Y914D02*
X4515Y872D01*
X5025Y848D02*
Y960D01*
X4985Y808D02*
X5025Y848D01*
X4566Y808D02*
X4985D01*
X4515Y859D02*
Y872D01*
Y859D02*
X4566Y808D01*
X3942Y964D02*
X4105D01*
X3910Y995D02*
X3942Y964D01*
X4129Y940D02*
X4448D01*
X3875Y995D02*
X3910D01*
X4459Y938D02*
X4474Y923D01*
X4450Y938D02*
X4459D01*
X4105Y964D02*
X4129Y940D01*
X4448D02*
X4450Y938D01*
Y1013D02*
Y1082D01*
X4366Y1013D02*
X4450D01*
X4340Y1038D02*
X4366Y1013D01*
X4312Y1010D02*
X4340Y1038D01*
X4302Y1010D02*
X4312D01*
X4287Y990D02*
Y995D01*
X4302Y1010D01*
X3475Y1965D02*
X3480Y1970D01*
X3400Y1965D02*
X3475D01*
X3439Y1685D02*
X3485D01*
X3418Y1664D02*
X3439Y1685D01*
X3405Y1665D02*
X3416D01*
X3418Y1664D01*
X3626Y1904D02*
X3629Y1900D01*
X3479Y1686D02*
X3527D01*
X3889Y1618D02*
X3893Y1614D01*
X3937Y1760D02*
X3944Y1752D01*
X3923Y1746D02*
X3937Y1760D01*
X3944Y1745D02*
Y1752D01*
X3875Y1746D02*
X3923D01*
X3871Y1896D02*
X3875Y1900D01*
X3872Y1749D02*
X3875Y1746D01*
X3873Y1672D02*
X3875Y1669D01*
X3836Y1896D02*
X3871D01*
X3840Y1823D02*
X3875D01*
X3835Y1817D02*
X3840Y1823D01*
X3838Y1749D02*
X3872D01*
X3838Y1672D02*
X3873D01*
X3835Y1753D02*
X3838Y1749D01*
X3835Y1817D02*
Y1895D01*
Y1753D02*
Y1817D01*
Y1895D02*
X3836Y1896D01*
X3835Y1675D02*
X3838Y1672D01*
X3835Y1675D02*
Y1753D01*
X3252Y1911D02*
Y2313D01*
X3951Y1907D02*
X3989D01*
X3918Y1874D02*
X3951Y1907D01*
X3875Y1874D02*
X3918D01*
X3964Y1963D02*
X4032D01*
X3942Y1940D02*
X3964Y1963D01*
X4032D02*
X4062Y1932D01*
X3626Y1904D02*
Y1918D01*
X3629Y1900D02*
X3644D01*
X3559Y1940D02*
Y1987D01*
X3537Y2009D02*
X3559Y1987D01*
Y1940D02*
X3603D01*
X3366Y2009D02*
X3537D01*
X3341Y1984D02*
X3366Y2009D01*
X3341Y1943D02*
Y1984D01*
X3603Y1940D02*
X3626Y1918D01*
X3603Y1940D02*
X3942D01*
X3331Y1910D02*
Y1933D01*
X3341Y1943D01*
X3328Y1907D02*
X3331Y1910D01*
X3249Y1807D02*
Y1907D01*
X3249Y1817D02*
Y1826D01*
X3519Y1837D02*
X3523Y1842D01*
X3519Y1819D02*
Y1837D01*
X3509Y1810D02*
X3519Y1819D01*
X3331Y1810D02*
X3509D01*
X3327Y1808D02*
Y1817D01*
X3917Y1812D02*
X3989D01*
X3907Y1801D02*
X3917Y1812D01*
X3879Y1801D02*
X3907D01*
X3875Y1797D02*
X3879Y1801D01*
X4069Y1826D02*
Y1834D01*
X4057Y1826D02*
X4069D01*
X3235Y1839D02*
X3249Y1826D01*
X3214Y1680D02*
X3249D01*
X3207Y1839D02*
X3235D01*
X3190Y1857D02*
X3207Y1839D01*
X3127Y1857D02*
X3190D01*
X3194Y1660D02*
X3214Y1680D01*
X3134Y1660D02*
X3194D01*
X3120Y1850D02*
X3127Y1857D01*
X3120Y1674D02*
Y1850D01*
Y1674D02*
X3134Y1660D01*
X3496Y1715D02*
X3531Y1750D01*
X3446Y1715D02*
X3496D01*
X3334Y1712D02*
Y1717D01*
X3436Y1705D02*
X3446Y1715D01*
X3341Y1705D02*
X3436D01*
X3334Y1712D02*
X3341Y1705D01*
X3970Y1695D02*
X3989Y1714D01*
X3934Y1695D02*
X3970D01*
X3875Y1721D02*
X3908D01*
X3934Y1695D01*
X4070Y1711D02*
X4084D01*
X3249Y1616D02*
Y1680D01*
X3449Y1654D02*
X3515D01*
X3447Y1651D02*
Y1652D01*
X3449Y1654D01*
X3446Y1651D02*
X3447D01*
X3446Y1644D02*
Y1651D01*
X3445Y1638D02*
Y1644D01*
X3446Y1644D01*
X3422Y1615D02*
X3445Y1638D01*
X3328Y1615D02*
X3422D01*
X3328D02*
Y1616D01*
X3327Y1615D02*
X3328Y1616D01*
X3946Y1616D02*
X3989D01*
X3918Y1644D02*
X3946Y1616D01*
X3875Y1644D02*
X3918D01*
X4067Y1616D02*
X4095Y1588D01*
X4069Y1556D02*
Y1587D01*
X4075Y1593D01*
X3996Y1484D02*
X4069Y1556D01*
X3414Y1484D02*
X3996D01*
X3328Y1570D02*
X3414Y1484D01*
X3328Y1570D02*
Y1615D01*
X4209Y1993D02*
X4211Y1991D01*
Y1982D02*
Y1991D01*
X4153Y1993D02*
X4209D01*
X4067Y1907D02*
X4153Y1993D01*
X4365Y1865D02*
X4368Y1863D01*
X4287Y1865D02*
X4365D01*
X4286Y1873D02*
X4293Y1880D01*
X4207Y1873D02*
Y1881D01*
X4141Y1860D02*
Y1870D01*
X4134Y1878D02*
X4141Y1870D01*
Y1860D02*
X4207D01*
X4213Y1865D01*
X4104Y1848D02*
X4134Y1878D01*
X4083Y1848D02*
X4104D01*
X4069Y1834D02*
X4083Y1848D01*
X3328Y1807D02*
X3331Y1810D01*
X3180Y1801D02*
Y1810D01*
X3298Y1779D02*
X3327Y1808D01*
X3298Y1779D02*
X3298D01*
X3298Y1779D02*
X3298Y1779D01*
X3298Y1779D02*
X3298D01*
X3178Y1799D02*
X3180Y1801D01*
X3178Y1799D02*
X3204Y1773D01*
X3292D02*
X3298Y1779D01*
X3204Y1773D02*
X3292D01*
X4095Y1588D02*
X4180D01*
X4213Y1555D01*
X4084Y1711D02*
X4090Y1705D01*
X4144Y1695D02*
X4169D01*
X4090Y1705D02*
X4129D01*
X4193Y1670D02*
X4213Y1690D01*
X4169Y1695D02*
X4193Y1670D01*
X4129Y1705D02*
X4144Y1690D01*
Y1695D01*
X3298Y1746D02*
X3314Y1730D01*
X3207Y1746D02*
X3298D01*
X3314Y1710D02*
Y1730D01*
X3188Y1727D02*
X3207Y1746D01*
X3314Y1710D02*
X3327Y1697D01*
X3471Y1904D02*
X3475Y1908D01*
X3438Y1843D02*
X3479D01*
X3437Y1904D02*
X3471D01*
X3407Y1874D02*
X3437Y1904D01*
X3407Y1874D02*
X3438Y1843D01*
X3527Y1779D02*
X3537Y1769D01*
X3479Y1779D02*
X3527D01*
X3466Y1766D02*
X3479Y1779D01*
X3426Y1766D02*
X3466D01*
X3405Y1745D02*
X3426Y1766D01*
X3479Y1580D02*
Y1622D01*
X3495Y1541D02*
X3531D01*
X3477Y1559D02*
X3495Y1541D01*
X3469Y1570D02*
X3479Y1580D01*
X3469Y1559D02*
X3477D01*
X3469D02*
Y1570D01*
X3644Y1590D02*
Y1618D01*
X3618Y1564D02*
X3644Y1590D01*
X3700Y1544D02*
X3705Y1549D01*
X3598Y1544D02*
X3700D01*
X3608Y1564D02*
X3618D01*
X3595Y1551D02*
X3608Y1564D01*
X3595Y1541D02*
Y1551D01*
Y1541D02*
X3598Y1544D01*
X1995Y1830D02*
X2000Y1825D01*
X2062D02*
X2075Y1812D01*
X2000Y1825D02*
X2062D01*
X2690D02*
X2695Y1830D01*
X2613Y1825D02*
X2690D01*
X2597Y1810D02*
X2613Y1825D01*
X2595Y1812D02*
X2597Y1810D01*
X2599Y1744D02*
X2599Y1745D01*
X2569Y1810D02*
X2597D01*
X2549Y1790D02*
X2569Y1810D01*
X2485Y1790D02*
X2549D01*
X2200Y1735D02*
X2205Y1740D01*
X2078Y1800D02*
X2079Y1802D01*
Y1800D02*
X2205D01*
X4917Y1903D02*
X4981D01*
X4902Y1905D02*
X4908D01*
X4917Y1914D01*
Y1903D02*
Y1914D01*
X4952Y1605D02*
X4980Y1633D01*
X4902Y1605D02*
X4952D01*
X4970Y1563D02*
X4980D01*
X4962Y1555D02*
X4970Y1563D01*
X4902Y1555D02*
X4962D01*
X4673Y1570D02*
X4676Y1566D01*
X4610Y1570D02*
X4673D01*
X4600Y1710D02*
X4602Y1707D01*
X4685D02*
X4688Y1705D01*
X4705D01*
X4602Y1707D02*
X4685D01*
X4825Y1855D02*
X4902D01*
X4840Y1655D02*
X4902D01*
X4775Y1805D02*
X4825Y1855D01*
X4775Y1720D02*
X4840Y1655D01*
X4805Y1620D02*
X4840Y1655D01*
X4805Y1533D02*
Y1620D01*
X4799Y1527D02*
X4805Y1533D01*
X4688Y1805D02*
X4775D01*
Y1720D02*
Y1805D01*
X4600Y1630D02*
X4663D01*
X4688Y1605D01*
X4583Y1527D02*
X4799D01*
X4540Y1570D02*
X4600Y1630D01*
X4540Y1570D02*
X4583Y1527D01*
X2119Y1890D02*
X2205D01*
X2105Y1904D02*
Y1904D01*
Y1904D02*
X2119Y1890D01*
X2047Y1720D02*
X2075Y1748D01*
X1995Y1720D02*
X2047D01*
X1995Y1709D02*
Y1720D01*
X2005Y1671D02*
Y1699D01*
Y1671D02*
X2026Y1650D01*
X1995Y1709D02*
X2005Y1699D01*
X2203Y1692D02*
X2205Y1690D01*
X2138Y1692D02*
X2203D01*
X2104Y1659D02*
X2138Y1692D01*
X2104Y1650D02*
Y1659D01*
X2688Y1654D02*
Y1703D01*
X2695Y1710D01*
X2674Y1640D02*
X2688Y1654D01*
X2634Y1710D02*
X2695D01*
X2599Y1745D02*
X2634Y1710D01*
X2595Y1748D02*
X2599Y1744D01*
X2596Y1640D02*
Y1649D01*
X2554Y1690D02*
X2596Y1649D01*
X2485Y1690D02*
X2554D01*
X2586Y1904D02*
Y1904D01*
X2572Y1890D02*
X2586Y1904D01*
X2485Y1890D02*
X2572D01*
X2664Y1904D02*
Y1920D01*
X2024Y2006D02*
Y2084D01*
Y2006D02*
X2026Y2005D01*
X2026Y1904D02*
Y1991D01*
X3559Y1894D02*
X3563Y1891D01*
X3592D01*
X3609Y1874D02*
X3644D01*
X3592Y1891D02*
X3609Y1874D01*
X2104Y2032D02*
Y2084D01*
Y2032D02*
X2118Y2019D01*
X2119Y2004D02*
X2183Y1940D01*
X2205D01*
X3593Y1803D02*
X3599Y1797D01*
X3560Y1803D02*
X3593D01*
X3561Y1803D02*
X3561D01*
X3560Y1803D02*
X3561Y1803D01*
X3599Y1797D02*
X3644D01*
X2196Y1631D02*
X2205Y1640D01*
X2166Y1631D02*
X2196D01*
X2104Y1570D02*
X2166Y1631D01*
X2104Y1561D02*
Y1570D01*
Y1490D02*
Y1561D01*
X2026D02*
Y1650D01*
X2674Y1640D02*
X2675Y1639D01*
Y1550D02*
Y1639D01*
X3599Y1721D02*
X3644D01*
X3592Y1714D02*
X3599Y1721D01*
X3561Y1714D02*
X3592D01*
X2835Y1695D02*
Y1705D01*
X2694Y1554D02*
X2835Y1695D01*
X2515Y1631D02*
X2596Y1550D01*
X2599Y1527D02*
X2608D01*
X2586Y1541D02*
Y1550D01*
X2485Y1640D02*
X2494Y1631D01*
X2515D01*
X2694Y1518D02*
Y1554D01*
X2681Y1505D02*
X2694Y1518D01*
X2631Y1505D02*
X2681D01*
X2586Y1541D02*
X2599Y1527D01*
X2608D02*
X2631Y1505D01*
X2665Y2016D02*
Y2085D01*
X2664Y2005D02*
X2665Y2006D01*
X2660Y2011D02*
X2665Y2016D01*
X2660Y2011D02*
X2665Y2006D01*
X2664Y1920D02*
Y1991D01*
X3643Y1644D02*
X3644Y1644D01*
X3609Y1644D02*
X3643D01*
X2875Y1688D02*
Y1980D01*
X2835Y1648D02*
X2875Y1688D01*
X3562Y1628D02*
X3592D01*
X3609Y1644D01*
X3559Y1624D02*
X3562Y1628D01*
X2835Y1615D02*
Y1648D01*
X2615Y2135D02*
X2720D01*
X2586Y2105D02*
X2615Y2135D01*
X2720D02*
X2875Y1980D01*
X2586Y2005D02*
Y2105D01*
X2576Y2000D02*
X2586Y1991D01*
X2516Y1940D02*
X2576Y2000D01*
X2485Y1940D02*
X2516D01*
X2120Y1843D02*
X2202D01*
X2078Y1885D02*
X2120Y1843D01*
X2202D02*
X2205Y1840D01*
X1885Y1885D02*
X2078D01*
X1565Y1911D02*
X1859D01*
X1885Y1885D01*
X2196Y1749D02*
X2205Y1740D01*
X2161Y1749D02*
X2196D01*
X1596Y1780D02*
X2130D01*
X1565Y1811D02*
X1596Y1780D01*
X2130D02*
X2161Y1749D01*
X2485Y1740D02*
X2485Y1740D01*
X2455Y1740D02*
X2485D01*
X2166Y1450D02*
X2455Y1740D01*
X1565Y1711D02*
X1769D01*
X2030Y1450D02*
X2166D01*
X1769Y1711D02*
X2030Y1450D01*
X2463Y1840D02*
X2485D01*
X1655Y2130D02*
X2173D01*
X2463Y1840D01*
X1520Y1995D02*
X1655Y2130D01*
X1520Y1655D02*
Y1995D01*
Y1655D02*
X1565Y1611D01*
X5436Y1900D02*
X5440Y1895D01*
X5225Y1946D02*
X5330D01*
X5333Y1943D01*
X5203Y1640D02*
X5205Y1642D01*
X5160Y1633D02*
X5167Y1640D01*
X5203D01*
X5160Y1600D02*
Y1633D01*
X5113Y1553D02*
X5160Y1600D01*
X5066Y1553D02*
X5113D01*
X4825Y1948D02*
X5035D01*
X5060Y1923D01*
X4732Y1855D02*
X4825Y1948D01*
X4688Y1855D02*
X4732D01*
X5060Y1559D02*
Y1923D01*
Y1559D02*
X5066Y1553D01*
X5163Y1667D02*
X5205D01*
X5110Y1615D02*
X5163Y1667D01*
X5110Y1613D02*
Y1615D01*
X5201Y1689D02*
X5205Y1693D01*
X5176Y1689D02*
X5201D01*
X5110Y1688D02*
X5175D01*
X5176Y1689D01*
X5100Y1760D02*
Y1913D01*
Y1760D02*
X5142Y1719D01*
X5045Y1968D02*
X5100Y1913D01*
X5142Y1719D02*
X5205D01*
X4808Y1968D02*
X5045D01*
X4745Y1905D02*
X4808Y1968D01*
X4688Y1905D02*
X4745D01*
X5215Y1882D02*
X5225D01*
X5205Y1770D02*
X5254D01*
X5260Y1763D01*
Y1631D02*
Y1763D01*
X5245Y1616D02*
X5260Y1631D01*
X5202Y1869D02*
X5215Y1882D01*
X5202Y1858D02*
Y1869D01*
X5182Y1774D02*
Y1786D01*
X5186Y1770D02*
X5205D01*
X5182Y1774D02*
X5186Y1770D01*
X5169Y1826D02*
X5202Y1858D01*
X5150Y1818D02*
X5182Y1786D01*
X5158Y1826D02*
X5169D01*
X5150Y1818D02*
X5158Y1826D01*
X5205Y1616D02*
X5245D01*
X5494Y1831D02*
X5520Y1805D01*
X5440Y1831D02*
X5494D01*
X5485Y1770D02*
X5520Y1805D01*
X5436Y1770D02*
X5485D01*
X5432Y1875D02*
X5435Y1879D01*
X5398Y1875D02*
X5432D01*
X5396Y1616D02*
X5436D01*
X5370Y1848D02*
X5398Y1875D01*
X5370Y1642D02*
Y1848D01*
Y1642D02*
X5396Y1616D01*
X4368Y2002D02*
X4450D01*
X4367Y2003D02*
X4368Y2002D01*
X4356Y2003D02*
X4367D01*
X4344Y1991D02*
X4356Y2003D01*
X4287Y1991D02*
X4344D01*
X4630Y1760D02*
X4683D01*
X4440Y1925D02*
X4465D01*
X4683Y1760D02*
X4688Y1755D01*
X4465Y1925D02*
X4630Y1760D01*
X4083Y1865D02*
X4142Y1925D01*
X4440D01*
X3940Y1865D02*
X4083D01*
X3923Y1849D02*
X3940Y1865D01*
X3875Y1849D02*
X3923D01*
X4450Y1857D02*
X4530Y1777D01*
Y1678D02*
Y1777D01*
X4365Y1782D02*
X4440Y1857D01*
X4683Y1650D02*
X4688Y1655D01*
X4530Y1678D02*
X4558Y1650D01*
X4683D01*
X3962Y1790D02*
X3970Y1782D01*
X4365D01*
X3930Y1789D02*
Y1790D01*
X3962D01*
X3913Y1772D02*
X3930Y1789D01*
X3875Y1772D02*
X3913D01*
X4944Y1805D02*
X4970Y1779D01*
X4902Y1805D02*
X4944D01*
X4970Y1739D02*
X5041Y1668D01*
X4970Y1739D02*
Y1779D01*
X4394Y1621D02*
X4450Y1565D01*
X4454Y1561D02*
X4488D01*
X5041Y1541D02*
Y1668D01*
X4988Y1488D02*
X5041Y1541D01*
X4560Y1488D02*
X4988D01*
X4450Y1565D02*
X4454Y1561D01*
X4488D02*
X4560Y1488D01*
X4099Y1638D02*
X4116Y1621D01*
X4041Y1638D02*
X4099D01*
X4116Y1621D02*
X4394D01*
X4035Y1632D02*
X4041Y1638D01*
X3875Y1618D02*
X3889D01*
X4035Y1569D02*
Y1632D01*
X4010Y1544D02*
X4035Y1569D01*
X3949Y1544D02*
X4010D01*
X3893Y1600D02*
Y1614D01*
Y1600D02*
X3949Y1544D01*
X4370Y1538D02*
X4412Y1495D01*
X4445D01*
X4450Y1490D01*
X4361Y1538D02*
X4370D01*
X4344Y1555D02*
X4361Y1538D01*
X4287Y1555D02*
X4344D01*
X4902Y1705D02*
X4980D01*
X5025Y1660D01*
X4474Y1614D02*
Y1623D01*
Y1614D02*
X4515Y1572D01*
X5025Y1548D02*
Y1660D01*
X4985Y1508D02*
X5025Y1548D01*
X4566Y1508D02*
X4985D01*
X4515Y1559D02*
Y1572D01*
Y1559D02*
X4566Y1508D01*
X3942Y1664D02*
X4105D01*
X3910Y1695D02*
X3942Y1664D01*
X4129Y1640D02*
X4448D01*
X3875Y1695D02*
X3910D01*
X4459Y1638D02*
X4474Y1623D01*
X4450Y1638D02*
X4459D01*
X4105Y1664D02*
X4129Y1640D01*
X4448D02*
X4450Y1638D01*
X4366Y1713D02*
X4450D01*
Y1782D01*
X4340Y1738D02*
X4366Y1713D01*
X4312Y1710D02*
X4340Y1738D01*
X4302Y1710D02*
X4312D01*
X4287Y1690D02*
Y1695D01*
X4302Y1710D01*
X3475Y2665D02*
X3480Y2670D01*
X3400Y2665D02*
X3475D01*
X3439Y2385D02*
X3485D01*
X3418Y2364D02*
X3439Y2385D01*
X3416Y2365D02*
X3418Y2364D01*
X3405Y2365D02*
X3416D01*
X3626Y2604D02*
X3629Y2600D01*
X3479Y2386D02*
X3527D01*
X3889Y2318D02*
X3893Y2314D01*
X3937Y2460D02*
X3944Y2452D01*
X3923Y2446D02*
X3937Y2460D01*
X3944Y2445D02*
Y2452D01*
X3875Y2446D02*
X3923D01*
X3871Y2596D02*
X3875Y2600D01*
X3872Y2449D02*
X3875Y2446D01*
X3873Y2372D02*
X3875Y2369D01*
X3836Y2596D02*
X3871D01*
X3840Y2523D02*
X3875D01*
X3835Y2517D02*
X3840Y2523D01*
X3838Y2449D02*
X3872D01*
X3838Y2372D02*
X3873D01*
X3835Y2453D02*
X3838Y2449D01*
X3835Y2517D02*
Y2595D01*
Y2453D02*
Y2517D01*
Y2595D02*
X3836Y2596D01*
X3835Y2375D02*
X3838Y2372D01*
X3835Y2375D02*
Y2453D01*
X3252Y2611D02*
Y3013D01*
X3951Y2607D02*
X3989D01*
X3918Y2574D02*
X3951Y2607D01*
X3875Y2574D02*
X3918D01*
X3964Y2663D02*
X4032D01*
X3942Y2640D02*
X3964Y2663D01*
X4032D02*
X4062Y2632D01*
X3626Y2604D02*
Y2618D01*
X3629Y2600D02*
X3644D01*
X3559Y2640D02*
Y2687D01*
X3537Y2709D02*
X3559Y2687D01*
Y2640D02*
X3603D01*
X3366Y2709D02*
X3537D01*
X3341Y2684D02*
X3366Y2709D01*
X3341Y2643D02*
Y2684D01*
X3603Y2640D02*
X3626Y2618D01*
X3603Y2640D02*
X3942D01*
X3331Y2610D02*
Y2633D01*
X3341Y2643D01*
X3328Y2607D02*
X3331Y2610D01*
X3249Y2507D02*
Y2607D01*
X3249Y2517D02*
Y2526D01*
X3519Y2537D02*
X3523Y2542D01*
X3519Y2519D02*
Y2537D01*
X3509Y2510D02*
X3519Y2519D01*
X3331Y2510D02*
X3509D01*
X3327Y2508D02*
Y2517D01*
X3917Y2512D02*
X3989D01*
X3907Y2501D02*
X3917Y2512D01*
X3879Y2501D02*
X3907D01*
X3875Y2497D02*
X3879Y2501D01*
X4069Y2526D02*
Y2534D01*
X4057Y2526D02*
X4069D01*
X3235Y2539D02*
X3249Y2526D01*
X3214Y2380D02*
X3249D01*
X3207Y2539D02*
X3235D01*
X3194Y2360D02*
X3214Y2380D01*
X3190Y2557D02*
X3207Y2539D01*
X3134Y2360D02*
X3194D01*
X3127Y2557D02*
X3190D01*
X3120Y2550D02*
X3127Y2557D01*
X3120Y2374D02*
Y2550D01*
Y2374D02*
X3134Y2360D01*
X3496Y2415D02*
X3531Y2450D01*
X3446Y2415D02*
X3496D01*
X3334Y2412D02*
Y2417D01*
X3436Y2405D02*
X3446Y2415D01*
X3341Y2405D02*
X3436D01*
X3334Y2412D02*
X3341Y2405D01*
X3970Y2395D02*
X3989Y2414D01*
X3934Y2395D02*
X3970D01*
X3875Y2421D02*
X3908D01*
X3934Y2395D01*
X4070Y2411D02*
X4084D01*
X3249Y2316D02*
Y2380D01*
X3449Y2354D02*
X3515D01*
X3447Y2351D02*
Y2352D01*
X3449Y2354D01*
X3446Y2351D02*
X3447D01*
X3446Y2344D02*
Y2351D01*
X3445Y2338D02*
Y2344D01*
X3446Y2344D01*
X3422Y2315D02*
X3445Y2338D01*
X3328Y2315D02*
X3422D01*
X3328D02*
Y2316D01*
X3327Y2315D02*
X3328Y2316D01*
X3946Y2316D02*
X3989D01*
X3918Y2344D02*
X3946Y2316D01*
X3875Y2344D02*
X3918D01*
X4067Y2316D02*
X4095Y2288D01*
X4069Y2256D02*
Y2287D01*
X4075Y2293D01*
X3996Y2184D02*
X4069Y2256D01*
X3414Y2184D02*
X3996D01*
X3328Y2270D02*
X3414Y2184D01*
X3328Y2270D02*
Y2315D01*
X4209Y2693D02*
X4211Y2691D01*
Y2682D02*
Y2691D01*
X4153Y2693D02*
X4209D01*
X4067Y2607D02*
X4153Y2693D01*
X4365Y2565D02*
X4368Y2563D01*
X4287Y2565D02*
X4365D01*
X4286Y2573D02*
X4293Y2580D01*
X4207Y2573D02*
Y2581D01*
X4141Y2560D02*
Y2570D01*
X4134Y2578D02*
X4141Y2570D01*
Y2560D02*
X4207D01*
X4213Y2565D01*
X4104Y2548D02*
X4134Y2578D01*
X4083Y2548D02*
X4104D01*
X4069Y2534D02*
X4083Y2548D01*
X3328Y2507D02*
X3331Y2510D01*
X3180Y2501D02*
Y2510D01*
X3298Y2479D02*
X3327Y2508D01*
X3298Y2479D02*
X3298D01*
X3298Y2479D02*
X3298Y2479D01*
X3298Y2479D02*
X3298D01*
X3178Y2499D02*
X3180Y2501D01*
X3178Y2499D02*
X3204Y2473D01*
X3292D02*
X3298Y2479D01*
X3204Y2473D02*
X3292D01*
X4095Y2288D02*
X4180D01*
X4213Y2255D01*
X4084Y2411D02*
X4090Y2405D01*
X4144Y2395D02*
X4169D01*
X4090Y2405D02*
X4129D01*
X4193Y2370D02*
X4213Y2390D01*
X4169Y2395D02*
X4193Y2370D01*
X4129Y2405D02*
X4144Y2390D01*
Y2395D01*
X3298Y2446D02*
X3314Y2430D01*
X3207Y2446D02*
X3298D01*
X3314Y2410D02*
Y2430D01*
X3188Y2427D02*
X3207Y2446D01*
X3314Y2410D02*
X3327Y2397D01*
X3471Y2604D02*
X3475Y2608D01*
X3438Y2543D02*
X3479D01*
X3437Y2604D02*
X3471D01*
X3407Y2574D02*
X3437Y2604D01*
X3407Y2574D02*
X3438Y2543D01*
X3527Y2479D02*
X3537Y2469D01*
X3479Y2479D02*
X3527D01*
X3466Y2466D02*
X3479Y2479D01*
X3426Y2466D02*
X3466D01*
X3405Y2445D02*
X3426Y2466D01*
X3479Y2280D02*
Y2322D01*
X3495Y2241D02*
X3531D01*
X3477Y2259D02*
X3495Y2241D01*
X3469Y2270D02*
X3479Y2280D01*
X3469Y2259D02*
X3477D01*
X3469D02*
Y2270D01*
X3644Y2290D02*
Y2318D01*
X3618Y2264D02*
X3644Y2290D01*
X3700Y2244D02*
X3705Y2249D01*
X3598Y2244D02*
X3700D01*
X3608Y2264D02*
X3618D01*
X3595Y2251D02*
X3608Y2264D01*
X3595Y2241D02*
Y2251D01*
Y2241D02*
X3598Y2244D01*
X1995Y2530D02*
X2000Y2525D01*
X2062D02*
X2075Y2512D01*
X2000Y2525D02*
X2062D01*
X2690D02*
X2695Y2530D01*
X2613Y2525D02*
X2690D01*
X2597Y2510D02*
X2613Y2525D01*
X2595Y2512D02*
X2597Y2510D01*
X2599Y2444D02*
X2599Y2445D01*
X2569Y2510D02*
X2597D01*
X2549Y2490D02*
X2569Y2510D01*
X2485Y2490D02*
X2549D01*
X2200Y2435D02*
X2205Y2440D01*
X2078Y2500D02*
X2079Y2502D01*
Y2500D02*
X2205D01*
X4917Y2603D02*
X4981D01*
X4902Y2605D02*
X4908D01*
X4917Y2614D01*
Y2603D02*
Y2614D01*
X4952Y2305D02*
X4980Y2333D01*
X4902Y2305D02*
X4952D01*
X4970Y2263D02*
X4980D01*
X4962Y2255D02*
X4970Y2263D01*
X4902Y2255D02*
X4962D01*
X4673Y2270D02*
X4676Y2266D01*
X4610Y2270D02*
X4673D01*
X4600Y2410D02*
X4602Y2408D01*
X4685D02*
X4688Y2405D01*
X4705D01*
X4602Y2408D02*
X4685D01*
X4825Y2555D02*
X4902D01*
X4840Y2355D02*
X4902D01*
X4775Y2505D02*
X4825Y2555D01*
X4775Y2420D02*
X4840Y2355D01*
X4805Y2320D02*
X4840Y2355D01*
X4805Y2233D02*
Y2320D01*
X4799Y2227D02*
X4805Y2233D01*
X4688Y2505D02*
X4775D01*
Y2420D02*
Y2505D01*
X4600Y2330D02*
X4663D01*
X4688Y2305D01*
X4583Y2227D02*
X4799D01*
X4540Y2270D02*
X4600Y2330D01*
X4540Y2270D02*
X4583Y2227D01*
X2119Y2590D02*
X2205D01*
X2105Y2604D02*
Y2604D01*
Y2604D02*
X2119Y2590D01*
X2047Y2420D02*
X2075Y2448D01*
X1995Y2420D02*
X2047D01*
X2005Y2371D02*
Y2399D01*
Y2371D02*
X2026Y2350D01*
X1995Y2409D02*
X2005Y2399D01*
X1995Y2409D02*
Y2420D01*
X2203Y2392D02*
X2205Y2390D01*
X2138Y2392D02*
X2203D01*
X2104Y2359D02*
X2138Y2392D01*
X2104Y2350D02*
Y2359D01*
X2688Y2354D02*
Y2403D01*
X2695Y2410D01*
X2674Y2340D02*
X2688Y2354D01*
X2634Y2410D02*
X2695D01*
X2599Y2445D02*
X2634Y2410D01*
X2595Y2448D02*
X2599Y2444D01*
X2596Y2340D02*
Y2349D01*
X2554Y2390D02*
X2596Y2349D01*
X2485Y2390D02*
X2554D01*
X2586Y2604D02*
Y2604D01*
X2572Y2590D02*
X2586Y2604D01*
X2485Y2590D02*
X2572D01*
X2664Y2604D02*
Y2620D01*
X2024Y2706D02*
Y2784D01*
Y2706D02*
X2026Y2705D01*
X2026Y2604D02*
Y2691D01*
X3559Y2594D02*
X3563Y2591D01*
X3592D01*
X3609Y2574D02*
X3644D01*
X3592Y2591D02*
X3609Y2574D01*
X2104Y2732D02*
Y2784D01*
Y2732D02*
X2118Y2719D01*
X2119Y2704D02*
X2183Y2640D01*
X2205D01*
X3593Y2503D02*
X3599Y2497D01*
X3560Y2503D02*
X3593D01*
X3561Y2503D02*
X3561D01*
X3560Y2503D02*
X3561Y2503D01*
X3599Y2497D02*
X3644D01*
X2196Y2331D02*
X2205Y2340D01*
X2166Y2331D02*
X2196D01*
X2104Y2270D02*
X2166Y2331D01*
X2104Y2261D02*
Y2270D01*
Y2190D02*
Y2261D01*
X2026D02*
Y2350D01*
X2674Y2340D02*
X2675Y2339D01*
Y2250D02*
Y2339D01*
X3599Y2421D02*
X3644D01*
X3592Y2414D02*
X3599Y2421D01*
X3561Y2414D02*
X3592D01*
X2835Y2395D02*
Y2405D01*
X2694Y2254D02*
X2835Y2395D01*
X2515Y2331D02*
X2596Y2250D01*
X2599Y2227D02*
X2608D01*
X2586Y2241D02*
Y2250D01*
X2485Y2340D02*
X2494Y2331D01*
X2515D01*
X2694Y2218D02*
Y2254D01*
X2681Y2205D02*
X2694Y2218D01*
X2631Y2205D02*
X2681D01*
X2586Y2241D02*
X2599Y2227D01*
X2608D02*
X2631Y2205D01*
X2665Y2716D02*
Y2785D01*
X2664Y2705D02*
X2665Y2706D01*
X2660Y2711D02*
X2665Y2716D01*
X2660Y2711D02*
X2665Y2706D01*
X2664Y2620D02*
Y2691D01*
X3643Y2344D02*
X3644Y2344D01*
X3609Y2344D02*
X3643D01*
X2875Y2388D02*
Y2680D01*
X2835Y2348D02*
X2875Y2388D01*
X3562Y2328D02*
X3592D01*
X3609Y2344D01*
X3559Y2324D02*
X3562Y2328D01*
X2835Y2315D02*
Y2348D01*
X2615Y2835D02*
X2720D01*
X2586Y2805D02*
X2615Y2835D01*
X2720D02*
X2875Y2680D01*
X2586Y2705D02*
Y2805D01*
X2576Y2700D02*
X2586Y2691D01*
X2516Y2640D02*
X2576Y2700D01*
X2485Y2640D02*
X2516D01*
X2120Y2543D02*
X2202D01*
X2078Y2585D02*
X2120Y2543D01*
X2202D02*
X2205Y2540D01*
X1885Y2585D02*
X2078D01*
X1565Y2611D02*
X1859D01*
X1885Y2585D01*
X2196Y2449D02*
X2205Y2440D01*
X2161Y2449D02*
X2196D01*
X1596Y2480D02*
X2130D01*
X1565Y2511D02*
X1596Y2480D01*
X2130D02*
X2161Y2449D01*
X2485Y2440D02*
X2485Y2440D01*
X2455Y2440D02*
X2485D01*
X2166Y2150D02*
X2455Y2440D01*
X1565Y2411D02*
X1769D01*
X2030Y2150D02*
X2166D01*
X1769Y2411D02*
X2030Y2150D01*
X2463Y2540D02*
X2485D01*
X1655Y2830D02*
X2173D01*
X2463Y2540D01*
X1520Y2695D02*
X1655Y2830D01*
X1520Y2355D02*
Y2695D01*
Y2355D02*
X1565Y2311D01*
X5225Y2646D02*
X5330D01*
X5333Y2643D01*
X5203Y2340D02*
X5205Y2342D01*
X5160Y2333D02*
X5167Y2340D01*
X5203D01*
X5160Y2300D02*
Y2333D01*
X5113Y2253D02*
X5160Y2300D01*
X5066Y2253D02*
X5113D01*
X4825Y2648D02*
X5035D01*
X5060Y2623D01*
X4732Y2555D02*
X4825Y2648D01*
X4688Y2555D02*
X4732D01*
X5060Y2259D02*
Y2623D01*
Y2259D02*
X5066Y2253D01*
X5163Y2367D02*
X5205D01*
X5110Y2315D02*
X5163Y2367D01*
X5110Y2313D02*
Y2315D01*
X5201Y2389D02*
X5205Y2393D01*
X5176Y2389D02*
X5201D01*
X5110Y2388D02*
X5175D01*
X5176Y2389D01*
X5100Y2460D02*
Y2613D01*
Y2460D02*
X5142Y2419D01*
X5045Y2668D02*
X5100Y2613D01*
X5142Y2419D02*
X5205D01*
X4808Y2668D02*
X5045D01*
X4745Y2605D02*
X4808Y2668D01*
X4688Y2605D02*
X4745D01*
X5215Y2582D02*
X5225D01*
X5205Y2470D02*
X5254D01*
X5260Y2463D01*
Y2331D02*
Y2463D01*
X5245Y2316D02*
X5260Y2331D01*
X5202Y2569D02*
X5215Y2582D01*
X5202Y2558D02*
Y2569D01*
X5182Y2474D02*
Y2486D01*
X5186Y2470D02*
X5205D01*
X5182Y2474D02*
X5186Y2470D01*
X5169Y2526D02*
X5202Y2558D01*
X5150Y2518D02*
X5182Y2486D01*
X5158Y2526D02*
X5169D01*
X5150Y2518D02*
X5158Y2526D01*
X5205Y2316D02*
X5245D01*
X5494Y2531D02*
X5520Y2505D01*
X5440Y2531D02*
X5494D01*
X5485Y2470D02*
X5520Y2505D01*
X5436Y2470D02*
X5485D01*
X5432Y2575D02*
X5435Y2579D01*
X5398Y2575D02*
X5432D01*
X5396Y2316D02*
X5436D01*
X5370Y2548D02*
X5398Y2575D01*
X5370Y2342D02*
Y2548D01*
Y2342D02*
X5396Y2316D01*
X4368Y2702D02*
X4450D01*
X4367Y2703D02*
X4368Y2702D01*
X4356Y2703D02*
X4367D01*
X4344Y2691D02*
X4356Y2703D01*
X4287Y2691D02*
X4344D01*
X4630Y2460D02*
X4683D01*
X4440Y2625D02*
X4465D01*
X4683Y2460D02*
X4688Y2455D01*
X4465Y2625D02*
X4630Y2460D01*
X4083Y2565D02*
X4142Y2625D01*
X4440D01*
X3940Y2565D02*
X4083D01*
X3923Y2549D02*
X3940Y2565D01*
X3875Y2549D02*
X3923D01*
X4450Y2557D02*
X4530Y2477D01*
Y2378D02*
Y2477D01*
X4365Y2482D02*
X4440Y2557D01*
X4683Y2350D02*
X4688Y2355D01*
X4530Y2378D02*
X4558Y2350D01*
X4683D01*
X3962Y2490D02*
X3970Y2482D01*
X4365D01*
X3930Y2489D02*
Y2490D01*
X3962D01*
X3913Y2472D02*
X3930Y2489D01*
X3875Y2472D02*
X3913D01*
X4944Y2505D02*
X4970Y2479D01*
X4902Y2505D02*
X4944D01*
X4970Y2439D02*
X5041Y2368D01*
X4970Y2439D02*
Y2479D01*
X4394Y2321D02*
X4450Y2265D01*
X4454Y2261D02*
X4488D01*
X5041Y2241D02*
Y2368D01*
X4988Y2188D02*
X5041Y2241D01*
X4560Y2188D02*
X4988D01*
X4450Y2265D02*
X4454Y2261D01*
X4488D02*
X4560Y2188D01*
X4099Y2338D02*
X4116Y2321D01*
X4041Y2338D02*
X4099D01*
X4116Y2321D02*
X4394D01*
X4035Y2332D02*
X4041Y2338D01*
X3875Y2318D02*
X3889D01*
X4035Y2269D02*
Y2332D01*
X4010Y2244D02*
X4035Y2269D01*
X3949Y2244D02*
X4010D01*
X3893Y2300D02*
Y2314D01*
Y2300D02*
X3949Y2244D01*
X4370Y2238D02*
X4412Y2195D01*
X4445D01*
X4450Y2190D01*
X4361Y2238D02*
X4370D01*
X4344Y2255D02*
X4361Y2238D01*
X4287Y2255D02*
X4344D01*
X4902Y2405D02*
X4980D01*
X5025Y2360D01*
X4474Y2314D02*
Y2323D01*
Y2314D02*
X4515Y2272D01*
X5025Y2248D02*
Y2360D01*
X4985Y2208D02*
X5025Y2248D01*
X4566Y2208D02*
X4985D01*
X4515Y2259D02*
Y2272D01*
Y2259D02*
X4566Y2208D01*
X3942Y2364D02*
X4105D01*
X3910Y2395D02*
X3942Y2364D01*
X4129Y2340D02*
X4448D01*
X3875Y2395D02*
X3910D01*
X4459Y2338D02*
X4474Y2323D01*
X4450Y2338D02*
X4459D01*
X4105Y2364D02*
X4129Y2340D01*
X4448D02*
X4450Y2338D01*
X4366Y2413D02*
X4450D01*
Y2482D01*
X4340Y2438D02*
X4366Y2413D01*
X4312Y2410D02*
X4340Y2438D01*
X4302Y2410D02*
X4312D01*
X4287Y2395D02*
X4302Y2410D01*
X4287Y2390D02*
Y2395D01*
X3475Y3365D02*
X3480Y3370D01*
X3400Y3365D02*
X3475D01*
X3439Y3085D02*
X3485D01*
X3418Y3064D02*
X3439Y3085D01*
X3405Y3065D02*
X3416D01*
X3418Y3064D01*
X3626Y3304D02*
X3629Y3300D01*
X3479Y3086D02*
X3527D01*
X3889Y3018D02*
X3893Y3014D01*
X3937Y3160D02*
X3944Y3152D01*
X3923Y3146D02*
X3937Y3160D01*
X3944Y3145D02*
Y3152D01*
X3875Y3146D02*
X3923D01*
X3871Y3296D02*
X3875Y3300D01*
X3872Y3149D02*
X3875Y3146D01*
X3873Y3072D02*
X3875Y3069D01*
X3836Y3296D02*
X3871D01*
X3840Y3223D02*
X3875D01*
X3835Y3217D02*
X3840Y3223D01*
X3838Y3149D02*
X3872D01*
X3838Y3072D02*
X3873D01*
X3835Y3153D02*
X3838Y3149D01*
X3835Y3217D02*
Y3295D01*
Y3153D02*
Y3217D01*
Y3295D02*
X3836Y3296D01*
X3835Y3075D02*
X3838Y3072D01*
X3835Y3075D02*
Y3153D01*
X3951Y3307D02*
X3989D01*
X3918Y3274D02*
X3951Y3307D01*
X3875Y3274D02*
X3918D01*
X3964Y3363D02*
X4032D01*
X3942Y3340D02*
X3964Y3363D01*
X4032D02*
X4062Y3332D01*
X3626Y3304D02*
Y3318D01*
X3629Y3300D02*
X3644D01*
X3559Y3340D02*
Y3387D01*
X3537Y3409D02*
X3559Y3387D01*
Y3340D02*
X3603D01*
X3366Y3409D02*
X3537D01*
X3341Y3384D02*
X3366Y3409D01*
X3341Y3343D02*
Y3384D01*
X3603Y3340D02*
X3626Y3318D01*
X3603Y3340D02*
X3942D01*
X3331Y3310D02*
Y3333D01*
X3341Y3343D01*
X3328Y3307D02*
X3331Y3310D01*
X3249Y3207D02*
Y3307D01*
X3249Y3217D02*
Y3226D01*
X3519Y3237D02*
X3523Y3242D01*
X3519Y3219D02*
Y3237D01*
X3509Y3210D02*
X3519Y3219D01*
X3331Y3210D02*
X3509D01*
X3327Y3208D02*
Y3217D01*
X3917Y3212D02*
X3989D01*
X3907Y3201D02*
X3917Y3212D01*
X3879Y3201D02*
X3907D01*
X3875Y3197D02*
X3879Y3201D01*
X4069Y3226D02*
Y3234D01*
X4057Y3226D02*
X4069D01*
X3235Y3239D02*
X3249Y3226D01*
X3207Y3239D02*
X3235D01*
X3214Y3080D02*
X3249D01*
X3194Y3060D02*
X3214Y3080D01*
X3190Y3257D02*
X3207Y3239D01*
X3134Y3060D02*
X3194D01*
X3127Y3257D02*
X3190D01*
X3120Y3250D02*
X3127Y3257D01*
X3120Y3074D02*
Y3250D01*
Y3074D02*
X3134Y3060D01*
X3496Y3115D02*
X3531Y3150D01*
X3446Y3115D02*
X3496D01*
X3334Y3112D02*
Y3117D01*
X3436Y3105D02*
X3446Y3115D01*
X3341Y3105D02*
X3436D01*
X3334Y3112D02*
X3341Y3105D01*
X3970Y3095D02*
X3989Y3114D01*
X3934Y3095D02*
X3970D01*
X3875Y3121D02*
X3908D01*
X3934Y3095D01*
X4070Y3111D02*
X4084D01*
X3249Y3016D02*
Y3080D01*
X3449Y3054D02*
X3515D01*
X3447Y3051D02*
Y3052D01*
X3449Y3054D01*
X3446Y3051D02*
X3447D01*
X3446Y3044D02*
Y3051D01*
X3445Y3038D02*
Y3044D01*
X3446Y3044D01*
X3422Y3015D02*
X3445Y3038D01*
X3328Y3015D02*
X3422D01*
X3328D02*
Y3016D01*
X3327Y3015D02*
X3328Y3016D01*
X3946Y3016D02*
X3989D01*
X3918Y3044D02*
X3946Y3016D01*
X3875Y3044D02*
X3918D01*
X4067Y3016D02*
X4095Y2988D01*
X4069Y2956D02*
Y2987D01*
X4075Y2993D01*
X3996Y2884D02*
X4069Y2956D01*
X3414Y2884D02*
X3996D01*
X3328Y2970D02*
X3414Y2884D01*
X3328Y2970D02*
Y3015D01*
X4209Y3393D02*
X4211Y3391D01*
Y3382D02*
Y3391D01*
X4153Y3393D02*
X4209D01*
X4067Y3307D02*
X4153Y3393D01*
X4365Y3265D02*
X4368Y3263D01*
X4287Y3265D02*
X4365D01*
X4286Y3273D02*
X4293Y3280D01*
X4207Y3273D02*
Y3281D01*
X4141Y3260D02*
Y3270D01*
X4134Y3278D02*
X4141Y3270D01*
Y3260D02*
X4207D01*
X4213Y3265D01*
X4104Y3248D02*
X4134Y3278D01*
X4083Y3248D02*
X4104D01*
X4069Y3234D02*
X4083Y3248D01*
X3328Y3207D02*
X3331Y3210D01*
X3180Y3201D02*
Y3210D01*
X3298Y3179D02*
X3327Y3208D01*
X3298Y3179D02*
X3298D01*
X3298Y3179D02*
X3298Y3179D01*
X3298Y3179D02*
X3298D01*
X3178Y3199D02*
X3180Y3201D01*
X3178Y3199D02*
X3204Y3173D01*
X3292D02*
X3298Y3179D01*
X3204Y3173D02*
X3292D01*
X4095Y2988D02*
X4180D01*
X4213Y2955D01*
X4084Y3111D02*
X4090Y3105D01*
X4144Y3095D02*
X4169D01*
X4090Y3105D02*
X4129D01*
X4193Y3070D02*
X4213Y3090D01*
X4169Y3095D02*
X4193Y3070D01*
X4129Y3105D02*
X4144Y3090D01*
Y3095D01*
X3298Y3146D02*
X3314Y3130D01*
X3207Y3146D02*
X3298D01*
X3314Y3110D02*
Y3130D01*
X3188Y3127D02*
X3207Y3146D01*
X3314Y3110D02*
X3327Y3097D01*
X3471Y3304D02*
X3475Y3308D01*
X3438Y3243D02*
X3479D01*
X3437Y3304D02*
X3471D01*
X3407Y3274D02*
X3437Y3304D01*
X3407Y3274D02*
X3438Y3243D01*
X3527Y3179D02*
X3537Y3169D01*
X3479Y3179D02*
X3527D01*
X3466Y3166D02*
X3479Y3179D01*
X3426Y3166D02*
X3466D01*
X3405Y3145D02*
X3426Y3166D01*
X3479Y2980D02*
Y3022D01*
X3495Y2941D02*
X3531D01*
X3477Y2959D02*
X3495Y2941D01*
X3469Y2970D02*
X3479Y2980D01*
X3469Y2959D02*
X3477D01*
X3469D02*
Y2970D01*
X3644Y2990D02*
Y3018D01*
X3618Y2964D02*
X3644Y2990D01*
X3700Y2944D02*
X3705Y2949D01*
X3598Y2944D02*
X3700D01*
X3608Y2964D02*
X3618D01*
X3595Y2951D02*
X3608Y2964D01*
X3595Y2941D02*
Y2951D01*
Y2941D02*
X3598Y2944D01*
X1995Y3230D02*
X2000Y3225D01*
X2062D02*
X2075Y3212D01*
X2000Y3225D02*
X2062D01*
X2690D02*
X2695Y3230D01*
X2613Y3225D02*
X2690D01*
X2597Y3210D02*
X2613Y3225D01*
X2595Y3212D02*
X2597Y3210D01*
X2599Y3144D02*
X2599Y3145D01*
X2569Y3210D02*
X2597D01*
X2549Y3190D02*
X2569Y3210D01*
X2485Y3190D02*
X2549D01*
X2200Y3135D02*
X2205Y3140D01*
X2078Y3200D02*
X2079Y3202D01*
Y3200D02*
X2205D01*
X4917Y3303D02*
X4981D01*
X4902Y3305D02*
X4908D01*
X4917Y3314D01*
Y3303D02*
Y3314D01*
X4952Y3005D02*
X4980Y3033D01*
X4902Y3005D02*
X4952D01*
X4970Y2963D02*
X4980D01*
X4962Y2955D02*
X4970Y2963D01*
X4902Y2955D02*
X4962D01*
X4673Y2970D02*
X4676Y2966D01*
X4610Y2970D02*
X4673D01*
X4600Y3110D02*
X4602Y3108D01*
X4685D02*
X4688Y3105D01*
X4705D01*
X4602Y3108D02*
X4685D01*
X4825Y3255D02*
X4902D01*
X4840Y3055D02*
X4902D01*
X4775Y3205D02*
X4825Y3255D01*
X4775Y3120D02*
X4840Y3055D01*
X4805Y3020D02*
X4840Y3055D01*
X4805Y2933D02*
Y3020D01*
X4799Y2927D02*
X4805Y2933D01*
X4688Y3205D02*
X4775D01*
Y3120D02*
Y3205D01*
X4600Y3030D02*
X4663D01*
X4688Y3005D01*
X4583Y2927D02*
X4799D01*
X4540Y2970D02*
X4600Y3030D01*
X4540Y2970D02*
X4583Y2927D01*
X2119Y3290D02*
X2205D01*
X2105Y3304D02*
Y3304D01*
Y3304D02*
X2119Y3290D01*
X2047Y3120D02*
X2075Y3148D01*
X1995Y3120D02*
X2047D01*
X2005Y3071D02*
Y3099D01*
Y3071D02*
X2026Y3050D01*
X1995Y3109D02*
X2005Y3099D01*
X1995Y3109D02*
Y3120D01*
X2203Y3092D02*
X2205Y3090D01*
X2138Y3092D02*
X2203D01*
X2104Y3059D02*
X2138Y3092D01*
X2104Y3050D02*
Y3059D01*
X2688Y3054D02*
Y3103D01*
X2695Y3110D01*
X2634D02*
X2695D01*
X2674Y3040D02*
X2688Y3054D01*
X2599Y3145D02*
X2634Y3110D01*
X2595Y3148D02*
X2599Y3144D01*
X2596Y3040D02*
Y3049D01*
X2554Y3090D02*
X2596Y3049D01*
X2485Y3090D02*
X2554D01*
X2586Y3304D02*
Y3304D01*
X2572Y3290D02*
X2586Y3304D01*
X2485Y3290D02*
X2572D01*
X2664Y3304D02*
Y3320D01*
X2024Y3406D02*
Y3484D01*
X2026Y3304D02*
Y3391D01*
X2024Y3406D02*
X2026Y3405D01*
X3559Y3294D02*
X3563Y3291D01*
X3592D01*
X3609Y3274D02*
X3644D01*
X3592Y3291D02*
X3609Y3274D01*
X2104Y3432D02*
Y3484D01*
Y3432D02*
X2118Y3419D01*
X2119Y3404D02*
X2183Y3340D01*
X2205D01*
X3593Y3203D02*
X3599Y3197D01*
X3560Y3203D02*
X3593D01*
X3561Y3203D02*
X3561D01*
X3560Y3203D02*
X3561Y3203D01*
X3599Y3197D02*
X3644D01*
X2196Y3031D02*
X2205Y3040D01*
X2166Y3031D02*
X2196D01*
X2104Y2970D02*
X2166Y3031D01*
X2104Y2961D02*
Y2970D01*
Y2890D02*
Y2961D01*
X2026D02*
Y3050D01*
X2674Y3040D02*
X2675Y3039D01*
Y2950D02*
Y3039D01*
X3599Y3121D02*
X3644D01*
X3592Y3114D02*
X3599Y3121D01*
X3561Y3114D02*
X3592D01*
X2835Y3095D02*
Y3105D01*
X2694Y2954D02*
X2835Y3095D01*
X2515Y3031D02*
X2596Y2950D01*
X2599Y2927D02*
X2608D01*
X2586Y2941D02*
Y2950D01*
X2485Y3040D02*
X2494Y3031D01*
X2515D01*
X2694Y2918D02*
Y2954D01*
X2681Y2905D02*
X2694Y2918D01*
X2631Y2905D02*
X2681D01*
X2586Y2941D02*
X2599Y2927D01*
X2608D02*
X2631Y2905D01*
X2665Y3416D02*
Y3485D01*
X2664Y3405D02*
X2665Y3406D01*
X2660Y3411D02*
X2665Y3416D01*
X2660Y3411D02*
X2665Y3406D01*
X2664Y3320D02*
Y3391D01*
X3643Y3044D02*
X3644Y3044D01*
X3609Y3044D02*
X3643D01*
X2875Y3088D02*
Y3380D01*
X2835Y3048D02*
X2875Y3088D01*
X3562Y3028D02*
X3592D01*
X3609Y3044D01*
X3559Y3024D02*
X3562Y3028D01*
X2835Y3015D02*
Y3048D01*
X2615Y3535D02*
X2720D01*
X2586Y3505D02*
X2615Y3535D01*
X2720D02*
X2875Y3380D01*
X2586Y3405D02*
Y3505D01*
X2576Y3400D02*
X2586Y3391D01*
X2516Y3340D02*
X2576Y3400D01*
X2485Y3340D02*
X2516D01*
X2120Y3243D02*
X2202D01*
X2078Y3285D02*
X2120Y3243D01*
X2202D02*
X2205Y3240D01*
X1885Y3285D02*
X2078D01*
X1565Y3311D02*
X1859D01*
X1885Y3285D01*
X2196Y3149D02*
X2205Y3140D01*
X2161Y3149D02*
X2196D01*
X1596Y3180D02*
X2130D01*
X1565Y3211D02*
X1596Y3180D01*
X2130D02*
X2161Y3149D01*
X2485Y3140D02*
X2485Y3140D01*
X2455Y3140D02*
X2485D01*
X2166Y2850D02*
X2455Y3140D01*
X1565Y3111D02*
X1769D01*
X2030Y2850D02*
X2166D01*
X1769Y3111D02*
X2030Y2850D01*
X2463Y3240D02*
X2485D01*
X1655Y3530D02*
X2173D01*
X2463Y3240D01*
X1520Y3395D02*
X1655Y3530D01*
X1520Y3055D02*
Y3395D01*
Y3055D02*
X1565Y3011D01*
X5436Y3300D02*
X5440Y3295D01*
X5225Y3346D02*
X5330D01*
X5333Y3343D01*
X5203Y3040D02*
X5205Y3042D01*
X5160Y3033D02*
X5167Y3040D01*
X5203D01*
X5160Y3000D02*
Y3033D01*
X5113Y2953D02*
X5160Y3000D01*
X5066Y2953D02*
X5113D01*
X4825Y3348D02*
X5035D01*
X5060Y3323D01*
X4732Y3255D02*
X4825Y3348D01*
X4688Y3255D02*
X4732D01*
X5060Y2959D02*
Y3323D01*
Y2959D02*
X5066Y2953D01*
X5163Y3067D02*
X5205D01*
X5110Y3015D02*
X5163Y3067D01*
X5110Y3013D02*
Y3015D01*
X5201Y3089D02*
X5205Y3093D01*
X5176Y3089D02*
X5201D01*
X5110Y3088D02*
X5175D01*
X5176Y3089D01*
X5100Y3160D02*
Y3313D01*
Y3160D02*
X5142Y3119D01*
X5045Y3368D02*
X5100Y3313D01*
X5142Y3119D02*
X5205D01*
X4808Y3368D02*
X5045D01*
X4745Y3305D02*
X4808Y3368D01*
X4688Y3305D02*
X4745D01*
X5215Y3282D02*
X5225D01*
X5205Y3170D02*
X5254D01*
X5260Y3163D01*
Y3031D02*
Y3163D01*
X5245Y3016D02*
X5260Y3031D01*
X5202Y3269D02*
X5215Y3282D01*
X5202Y3258D02*
Y3269D01*
X5182Y3174D02*
Y3186D01*
X5186Y3170D02*
X5205D01*
X5182Y3174D02*
X5186Y3170D01*
X5169Y3226D02*
X5202Y3258D01*
X5150Y3218D02*
X5182Y3186D01*
X5158Y3226D02*
X5169D01*
X5150Y3218D02*
X5158Y3226D01*
X5205Y3016D02*
X5245D01*
X5494Y3231D02*
X5520Y3205D01*
X5440Y3231D02*
X5494D01*
X5485Y3170D02*
X5520Y3205D01*
X5436Y3170D02*
X5485D01*
X5432Y3275D02*
X5435Y3279D01*
X5398Y3275D02*
X5432D01*
X5396Y3016D02*
X5436D01*
X5370Y3248D02*
X5398Y3275D01*
X5370Y3042D02*
Y3248D01*
Y3042D02*
X5396Y3016D01*
X4368Y3402D02*
X4450D01*
X4356Y3403D02*
X4367D01*
X4368Y3402D01*
X4344Y3391D02*
X4356Y3403D01*
X4287Y3391D02*
X4344D01*
X4630Y3160D02*
X4683D01*
X4440Y3325D02*
X4465D01*
X4683Y3160D02*
X4688Y3155D01*
X4465Y3325D02*
X4630Y3160D01*
X4083Y3265D02*
X4142Y3325D01*
X4440D01*
X3940Y3265D02*
X4083D01*
X3923Y3249D02*
X3940Y3265D01*
X3875Y3249D02*
X3923D01*
X4450Y3257D02*
X4530Y3177D01*
Y3078D02*
Y3177D01*
X4365Y3182D02*
X4440Y3257D01*
X4683Y3050D02*
X4688Y3055D01*
X4530Y3078D02*
X4558Y3050D01*
X4683D01*
X3962Y3190D02*
X3970Y3182D01*
X4365D01*
X3930Y3189D02*
Y3190D01*
X3962D01*
X3913Y3172D02*
X3930Y3189D01*
X3875Y3172D02*
X3913D01*
X4944Y3205D02*
X4970Y3179D01*
X4902Y3205D02*
X4944D01*
X4970Y3139D02*
X5041Y3068D01*
X4970Y3139D02*
Y3179D01*
X4394Y3021D02*
X4450Y2965D01*
X4454Y2961D02*
X4488D01*
X5041Y2941D02*
Y3068D01*
X4988Y2888D02*
X5041Y2941D01*
X4560Y2888D02*
X4988D01*
X4450Y2965D02*
X4454Y2961D01*
X4488D02*
X4560Y2888D01*
X4099Y3038D02*
X4116Y3021D01*
X4041Y3038D02*
X4099D01*
X4116Y3021D02*
X4394D01*
X4035Y3032D02*
X4041Y3038D01*
X3875Y3018D02*
X3889D01*
X4035Y2969D02*
Y3032D01*
X4010Y2944D02*
X4035Y2969D01*
X3949Y2944D02*
X4010D01*
X3893Y3000D02*
Y3014D01*
Y3000D02*
X3949Y2944D01*
X4370Y2938D02*
X4412Y2895D01*
X4445D01*
X4450Y2890D01*
X4361Y2938D02*
X4370D01*
X4344Y2955D02*
X4361Y2938D01*
X4287Y2955D02*
X4344D01*
X4902Y3105D02*
X4980D01*
X5025Y3060D01*
X4474Y3014D02*
Y3023D01*
Y3014D02*
X4515Y2972D01*
X5025Y2948D02*
Y3060D01*
X4985Y2908D02*
X5025Y2948D01*
X4566Y2908D02*
X4985D01*
X4515Y2959D02*
Y2972D01*
Y2959D02*
X4566Y2908D01*
X3942Y3064D02*
X4105D01*
X3910Y3095D02*
X3942Y3064D01*
X4129Y3040D02*
X4448D01*
X3875Y3095D02*
X3910D01*
X4459Y3038D02*
X4474Y3023D01*
X4450Y3038D02*
X4459D01*
X4105Y3064D02*
X4129Y3040D01*
X4448D02*
X4450Y3038D01*
Y3113D02*
Y3182D01*
X4366Y3113D02*
X4450D01*
X4340Y3138D02*
X4366Y3113D01*
X4302Y3110D02*
X4312D01*
X4340Y3138D01*
X4287Y3095D02*
X4302Y3110D01*
X4287Y3090D02*
Y3095D01*
X3475Y4065D02*
X3480Y4070D01*
X3400Y4065D02*
X3475D01*
X3439Y3785D02*
X3485D01*
X3418Y3764D02*
X3439Y3785D01*
X3405Y3765D02*
X3416D01*
X3418Y3764D01*
X3626Y4004D02*
X3629Y4000D01*
X3479Y3786D02*
X3527D01*
X3889Y3718D02*
X3893Y3714D01*
X3937Y3860D02*
X3944Y3852D01*
X3923Y3846D02*
X3937Y3860D01*
X3944Y3845D02*
Y3852D01*
X3875Y3846D02*
X3923D01*
X3871Y3996D02*
X3875Y4000D01*
X3872Y3849D02*
X3875Y3846D01*
X3873Y3772D02*
X3875Y3769D01*
X3836Y3996D02*
X3871D01*
X3840Y3923D02*
X3875D01*
X3835Y3917D02*
X3840Y3923D01*
X3838Y3849D02*
X3872D01*
X3838Y3772D02*
X3873D01*
X3835Y3853D02*
X3838Y3849D01*
X3835Y3917D02*
Y3995D01*
Y3853D02*
Y3917D01*
Y3995D02*
X3836Y3996D01*
X3835Y3775D02*
X3838Y3772D01*
X3835Y3775D02*
Y3853D01*
X3252Y4011D02*
Y4240D01*
X3951Y4007D02*
X3989D01*
X3918Y3974D02*
X3951Y4007D01*
X3875Y3974D02*
X3918D01*
X3964Y4063D02*
X4032D01*
X3942Y4040D02*
X3964Y4063D01*
X4032D02*
X4062Y4032D01*
X3626Y4004D02*
Y4018D01*
X3629Y4000D02*
X3644D01*
X3559Y4040D02*
Y4087D01*
X3537Y4109D02*
X3559Y4087D01*
Y4040D02*
X3603D01*
X3366Y4109D02*
X3537D01*
X3341Y4084D02*
X3366Y4109D01*
X3341Y4043D02*
Y4084D01*
X3603Y4040D02*
X3626Y4018D01*
X3603Y4040D02*
X3942D01*
X3331Y4010D02*
Y4033D01*
X3341Y4043D01*
X3328Y4007D02*
X3331Y4010D01*
X3249Y3907D02*
Y4007D01*
X3249Y3917D02*
Y3926D01*
X3519Y3937D02*
X3523Y3942D01*
X3519Y3919D02*
Y3937D01*
X3509Y3910D02*
X3519Y3919D01*
X3331Y3910D02*
X3509D01*
X3327Y3908D02*
Y3917D01*
X3917Y3912D02*
X3989D01*
X3907Y3901D02*
X3917Y3912D01*
X3879Y3901D02*
X3907D01*
X3875Y3897D02*
X3879Y3901D01*
X4069Y3926D02*
Y3934D01*
X4057Y3926D02*
X4069D01*
X3235Y3939D02*
X3249Y3926D01*
X3214Y3780D02*
X3249D01*
X3207Y3939D02*
X3235D01*
X3194Y3760D02*
X3214Y3780D01*
X3190Y3957D02*
X3207Y3939D01*
X3134Y3760D02*
X3194D01*
X3127Y3957D02*
X3190D01*
X3120Y3950D02*
X3127Y3957D01*
X3120Y3774D02*
Y3950D01*
Y3774D02*
X3134Y3760D01*
X3496Y3815D02*
X3531Y3850D01*
X3446Y3815D02*
X3496D01*
X3334Y3812D02*
Y3817D01*
X3436Y3805D02*
X3446Y3815D01*
X3341Y3805D02*
X3436D01*
X3334Y3812D02*
X3341Y3805D01*
X3970Y3795D02*
X3989Y3814D01*
X3934Y3795D02*
X3970D01*
X3875Y3821D02*
X3908D01*
X3934Y3795D01*
X4070Y3811D02*
X4084D01*
X3249Y3716D02*
Y3780D01*
X3449Y3754D02*
X3515D01*
X3447Y3751D02*
Y3752D01*
X3449Y3754D01*
X3446Y3751D02*
X3447D01*
X3446Y3744D02*
Y3751D01*
X3445Y3738D02*
Y3744D01*
X3446Y3744D01*
X3422Y3715D02*
X3445Y3738D01*
X3328Y3715D02*
X3422D01*
X3328D02*
Y3716D01*
X3327Y3715D02*
X3328Y3716D01*
X3946Y3716D02*
X3989D01*
X3918Y3744D02*
X3946Y3716D01*
X3875Y3744D02*
X3918D01*
X4067Y3716D02*
X4095Y3688D01*
X4069Y3656D02*
Y3687D01*
X4075Y3693D01*
X3996Y3584D02*
X4069Y3656D01*
X3414Y3584D02*
X3996D01*
X3328Y3670D02*
X3414Y3584D01*
X3328Y3670D02*
Y3715D01*
X4209Y4093D02*
X4211Y4091D01*
Y4082D02*
Y4091D01*
X4153Y4093D02*
X4209D01*
X4067Y4007D02*
X4153Y4093D01*
X4365Y3965D02*
X4368Y3963D01*
X4287Y3965D02*
X4365D01*
X4286Y3973D02*
X4293Y3980D01*
X4207Y3973D02*
Y3981D01*
X4141Y3960D02*
Y3970D01*
X4134Y3978D02*
X4141Y3970D01*
Y3960D02*
X4207D01*
X4213Y3965D01*
X4104Y3948D02*
X4134Y3978D01*
X4083Y3948D02*
X4104D01*
X4069Y3934D02*
X4083Y3948D01*
X3328Y3907D02*
X3331Y3910D01*
X3180Y3901D02*
Y3910D01*
X3298Y3879D02*
X3327Y3908D01*
X3298Y3879D02*
X3298D01*
X3298Y3879D02*
X3298Y3879D01*
X3298Y3879D02*
X3298D01*
X3178Y3899D02*
X3180Y3901D01*
X3178Y3899D02*
X3204Y3873D01*
X3292D02*
X3298Y3879D01*
X3204Y3873D02*
X3292D01*
X4095Y3688D02*
X4180D01*
X4213Y3655D01*
X4084Y3811D02*
X4090Y3805D01*
X4144Y3795D02*
X4169D01*
X4090Y3805D02*
X4129D01*
X4193Y3770D02*
X4213Y3790D01*
X4169Y3795D02*
X4193Y3770D01*
X4129Y3805D02*
X4144Y3790D01*
Y3795D01*
X3298Y3846D02*
X3314Y3830D01*
X3207Y3846D02*
X3298D01*
X3314Y3810D02*
Y3830D01*
X3188Y3827D02*
X3207Y3846D01*
X3314Y3810D02*
X3327Y3797D01*
X3471Y4004D02*
X3475Y4008D01*
X3438Y3943D02*
X3479D01*
X3437Y4004D02*
X3471D01*
X3407Y3974D02*
X3437Y4004D01*
X3407Y3974D02*
X3438Y3943D01*
X3527Y3879D02*
X3537Y3869D01*
X3479Y3879D02*
X3527D01*
X3466Y3866D02*
X3479Y3879D01*
X3426Y3866D02*
X3466D01*
X3405Y3845D02*
X3426Y3866D01*
X3479Y3680D02*
Y3722D01*
X3495Y3641D02*
X3531D01*
X3477Y3659D02*
X3495Y3641D01*
X3469Y3670D02*
X3479Y3680D01*
X3469Y3659D02*
X3477D01*
X3469D02*
Y3670D01*
X3644Y3690D02*
Y3718D01*
X3618Y3664D02*
X3644Y3690D01*
X3700Y3644D02*
X3705Y3649D01*
X3598Y3644D02*
X3700D01*
X3608Y3664D02*
X3618D01*
X3595Y3651D02*
X3608Y3664D01*
X3595Y3641D02*
Y3651D01*
Y3641D02*
X3598Y3644D01*
X1995Y3930D02*
X2000Y3925D01*
X2062D02*
X2075Y3912D01*
X2000Y3925D02*
X2062D01*
X2690D02*
X2695Y3930D01*
X2613Y3925D02*
X2690D01*
X2597Y3910D02*
X2613Y3925D01*
X2595Y3912D02*
X2597Y3910D01*
X2599Y3844D02*
X2599Y3845D01*
X2569Y3910D02*
X2597D01*
X2549Y3890D02*
X2569Y3910D01*
X2485Y3890D02*
X2549D01*
X2200Y3835D02*
X2205Y3840D01*
X2078Y3900D02*
X2079Y3902D01*
Y3900D02*
X2205D01*
X4917Y4003D02*
X4981D01*
X4902Y4005D02*
X4908D01*
X4917Y4014D01*
Y4003D02*
Y4014D01*
X4952Y3705D02*
X4980Y3733D01*
X4902Y3705D02*
X4952D01*
X4970Y3663D02*
X4980D01*
X4962Y3655D02*
X4970Y3663D01*
X4902Y3655D02*
X4962D01*
X4673Y3670D02*
X4676Y3666D01*
X4610Y3670D02*
X4673D01*
X4600Y3810D02*
X4602Y3807D01*
X4685D02*
X4688Y3805D01*
X4705D01*
X4602Y3807D02*
X4685D01*
X4825Y3955D02*
X4902D01*
X4840Y3755D02*
X4902D01*
X4775Y3905D02*
X4825Y3955D01*
X4775Y3820D02*
X4840Y3755D01*
X4805Y3720D02*
X4840Y3755D01*
X4805Y3633D02*
Y3720D01*
X4799Y3627D02*
X4805Y3633D01*
X4688Y3905D02*
X4775D01*
Y3820D02*
Y3905D01*
X4600Y3730D02*
X4663D01*
X4688Y3705D01*
X4583Y3627D02*
X4799D01*
X4540Y3670D02*
X4600Y3730D01*
X4540Y3670D02*
X4583Y3627D01*
X2119Y3990D02*
X2205D01*
X2105Y4004D02*
Y4004D01*
Y4004D02*
X2119Y3990D01*
X2047Y3820D02*
X2075Y3848D01*
X1995Y3820D02*
X2047D01*
X2005Y3771D02*
Y3799D01*
Y3771D02*
X2026Y3750D01*
X1995Y3809D02*
X2005Y3799D01*
X1995Y3809D02*
Y3820D01*
X2203Y3792D02*
X2205Y3790D01*
X2138Y3792D02*
X2203D01*
X2104Y3759D02*
X2138Y3792D01*
X2104Y3750D02*
Y3759D01*
X2688Y3754D02*
Y3803D01*
X2695Y3810D01*
X2634D02*
X2695D01*
X2674Y3740D02*
X2688Y3754D01*
X2599Y3845D02*
X2634Y3810D01*
X2595Y3848D02*
X2599Y3844D01*
X2596Y3740D02*
Y3749D01*
X2554Y3790D02*
X2596Y3749D01*
X2485Y3790D02*
X2554D01*
X2586Y4004D02*
Y4004D01*
X2572Y3990D02*
X2586Y4004D01*
X2485Y3990D02*
X2572D01*
X2664Y4004D02*
Y4020D01*
X2024Y4106D02*
Y4184D01*
X2026Y4004D02*
Y4091D01*
X2024Y4106D02*
X2026Y4105D01*
X3559Y3994D02*
X3563Y3991D01*
X3592D01*
X3609Y3974D02*
X3644D01*
X3592Y3991D02*
X3609Y3974D01*
X2104Y4132D02*
Y4184D01*
Y4132D02*
X2118Y4119D01*
X2119Y4104D02*
X2183Y4040D01*
X2205D01*
X3593Y3903D02*
X3599Y3897D01*
X3560Y3903D02*
X3593D01*
X3561Y3903D02*
X3561D01*
X3560Y3903D02*
X3561Y3903D01*
X3599Y3897D02*
X3644D01*
X2196Y3731D02*
X2205Y3740D01*
X2166Y3731D02*
X2196D01*
X2104Y3670D02*
X2166Y3731D01*
X2104Y3661D02*
Y3670D01*
Y3590D02*
Y3661D01*
X2026D02*
Y3750D01*
X2674Y3740D02*
X2675Y3739D01*
Y3650D02*
Y3739D01*
X3599Y3821D02*
X3644D01*
X3592Y3814D02*
X3599Y3821D01*
X3561Y3814D02*
X3592D01*
X2835Y3795D02*
Y3805D01*
X2694Y3654D02*
X2835Y3795D01*
X2515Y3731D02*
X2596Y3650D01*
X2599Y3627D02*
X2608D01*
X2586Y3641D02*
Y3650D01*
X2485Y3740D02*
X2494Y3731D01*
X2515D01*
X2694Y3618D02*
Y3654D01*
X2681Y3605D02*
X2694Y3618D01*
X2631Y3605D02*
X2681D01*
X2586Y3641D02*
X2599Y3627D01*
X2608D02*
X2631Y3605D01*
X2665Y4116D02*
Y4185D01*
X2664Y4105D02*
X2665Y4106D01*
X2660Y4111D02*
X2665Y4116D01*
X2660Y4111D02*
X2665Y4106D01*
X2664Y4020D02*
Y4091D01*
X3643Y3744D02*
X3644Y3744D01*
X3609Y3744D02*
X3643D01*
X2875Y3788D02*
Y4080D01*
X2835Y3748D02*
X2875Y3788D01*
X3562Y3728D02*
X3592D01*
X3609Y3744D01*
X3559Y3724D02*
X3562Y3728D01*
X2835Y3715D02*
Y3748D01*
X2615Y4235D02*
X2720D01*
X2586Y4205D02*
X2615Y4235D01*
X2720D02*
X2875Y4080D01*
X2586Y4105D02*
Y4205D01*
X2576Y4100D02*
X2586Y4091D01*
X2516Y4040D02*
X2576Y4100D01*
X2485Y4040D02*
X2516D01*
X2120Y3943D02*
X2202D01*
X2078Y3985D02*
X2120Y3943D01*
X2202D02*
X2205Y3940D01*
X1885Y3985D02*
X2078D01*
X1565Y4011D02*
X1859D01*
X1885Y3985D01*
X2196Y3849D02*
X2205Y3840D01*
X2161Y3849D02*
X2196D01*
X1596Y3880D02*
X2130D01*
X1565Y3911D02*
X1596Y3880D01*
X2130D02*
X2161Y3849D01*
X2485Y3840D02*
X2485Y3840D01*
X2455Y3840D02*
X2485D01*
X2166Y3550D02*
X2455Y3840D01*
X1565Y3811D02*
X1769D01*
X2030Y3550D02*
X2166D01*
X1769Y3811D02*
X2030Y3550D01*
X2463Y3940D02*
X2485D01*
X1655Y4230D02*
X2173D01*
X2463Y3940D01*
X1520Y4095D02*
X1655Y4230D01*
X1520Y3755D02*
Y4095D01*
Y3755D02*
X1565Y3711D01*
X5436Y4000D02*
X5440Y3995D01*
X5225Y4046D02*
X5330D01*
X5333Y4043D01*
X5203Y3740D02*
X5205Y3742D01*
X5160Y3733D02*
X5167Y3740D01*
X5203D01*
X5160Y3700D02*
Y3733D01*
X5113Y3653D02*
X5160Y3700D01*
X5066Y3653D02*
X5113D01*
X4825Y4048D02*
X5035D01*
X5060Y4023D01*
X4732Y3955D02*
X4825Y4048D01*
X4688Y3955D02*
X4732D01*
X5060Y3659D02*
Y4023D01*
Y3659D02*
X5066Y3653D01*
X5163Y3767D02*
X5205D01*
X5110Y3715D02*
X5163Y3767D01*
X5110Y3713D02*
Y3715D01*
X5201Y3789D02*
X5205Y3793D01*
X5176Y3789D02*
X5201D01*
X5110Y3788D02*
X5175D01*
X5176Y3789D01*
X5100Y3860D02*
Y4013D01*
Y3860D02*
X5142Y3819D01*
X5045Y4068D02*
X5100Y4013D01*
X5142Y3819D02*
X5205D01*
X4808Y4068D02*
X5045D01*
X4745Y4005D02*
X4808Y4068D01*
X4688Y4005D02*
X4745D01*
X5215Y3982D02*
X5225D01*
X5205Y3870D02*
X5254D01*
X5260Y3863D01*
Y3731D02*
Y3863D01*
X5245Y3716D02*
X5260Y3731D01*
X5202Y3969D02*
X5215Y3982D01*
X5202Y3958D02*
Y3969D01*
X5182Y3874D02*
Y3886D01*
X5186Y3870D02*
X5205D01*
X5182Y3874D02*
X5186Y3870D01*
X5169Y3926D02*
X5202Y3958D01*
X5150Y3918D02*
X5182Y3886D01*
X5158Y3926D02*
X5169D01*
X5150Y3918D02*
X5158Y3926D01*
X5205Y3716D02*
X5245D01*
X5494Y3931D02*
X5520Y3905D01*
X5440Y3931D02*
X5494D01*
X5485Y3870D02*
X5520Y3905D01*
X5436Y3870D02*
X5485D01*
X5432Y3975D02*
X5435Y3979D01*
X5398Y3975D02*
X5432D01*
X5396Y3716D02*
X5436D01*
X5370Y3948D02*
X5398Y3975D01*
X5370Y3742D02*
Y3948D01*
Y3742D02*
X5396Y3716D01*
X4368Y4102D02*
X4450D01*
X4356Y4103D02*
X4367D01*
X4368Y4102D01*
X4344Y4091D02*
X4356Y4103D01*
X4287Y4091D02*
X4344D01*
X4630Y3860D02*
X4683D01*
X4440Y4025D02*
X4465D01*
X4683Y3860D02*
X4688Y3855D01*
X4465Y4025D02*
X4630Y3860D01*
X4083Y3965D02*
X4142Y4025D01*
X4440D01*
X3940Y3965D02*
X4083D01*
X3923Y3949D02*
X3940Y3965D01*
X3875Y3949D02*
X3923D01*
X4450Y3957D02*
X4530Y3877D01*
Y3778D02*
Y3877D01*
X4365Y3882D02*
X4440Y3957D01*
X4683Y3750D02*
X4688Y3755D01*
X4530Y3778D02*
X4558Y3750D01*
X4683D01*
X3962Y3890D02*
X3970Y3882D01*
X4365D01*
X3930Y3889D02*
Y3890D01*
X3962D01*
X3913Y3872D02*
X3930Y3889D01*
X3875Y3872D02*
X3913D01*
X4944Y3905D02*
X4970Y3879D01*
X4902Y3905D02*
X4944D01*
X4970Y3839D02*
X5041Y3768D01*
X4970Y3839D02*
Y3879D01*
X4394Y3721D02*
X4450Y3665D01*
X4454Y3661D02*
X4488D01*
X5041Y3641D02*
Y3768D01*
X4988Y3588D02*
X5041Y3641D01*
X4560Y3588D02*
X4988D01*
X4450Y3665D02*
X4454Y3661D01*
X4488D02*
X4560Y3588D01*
X4099Y3738D02*
X4116Y3721D01*
X4041Y3738D02*
X4099D01*
X4116Y3721D02*
X4394D01*
X4035Y3732D02*
X4041Y3738D01*
X3875Y3718D02*
X3889D01*
X4035Y3669D02*
Y3732D01*
X4010Y3644D02*
X4035Y3669D01*
X3949Y3644D02*
X4010D01*
X3893Y3700D02*
Y3714D01*
Y3700D02*
X3949Y3644D01*
X4370Y3638D02*
X4412Y3595D01*
X4445D01*
X4450Y3590D01*
X4361Y3638D02*
X4370D01*
X4344Y3655D02*
X4361Y3638D01*
X4287Y3655D02*
X4344D01*
X4902Y3805D02*
X4980D01*
X5025Y3760D01*
X4474Y3714D02*
Y3723D01*
Y3714D02*
X4515Y3672D01*
X5025Y3648D02*
Y3760D01*
X4985Y3608D02*
X5025Y3648D01*
X4566Y3608D02*
X4985D01*
X4515Y3659D02*
Y3672D01*
Y3659D02*
X4566Y3608D01*
X3942Y3764D02*
X4105D01*
X3910Y3795D02*
X3942Y3764D01*
X4129Y3740D02*
X4448D01*
X3875Y3795D02*
X3910D01*
X4459Y3738D02*
X4474Y3723D01*
X4450Y3738D02*
X4459D01*
X4105Y3764D02*
X4129Y3740D01*
X4448D02*
X4450Y3738D01*
Y3813D02*
Y3882D01*
X4366Y3813D02*
X4450D01*
X4340Y3838D02*
X4366Y3813D01*
X4312Y3810D02*
X4340Y3838D01*
X4302Y3810D02*
X4312D01*
X4287Y3790D02*
Y3795D01*
X4302Y3810D01*
X5436Y4700D02*
Y5118D01*
Y4700D02*
X5440Y4695D01*
X3475Y4765D02*
X3480Y4770D01*
X3400Y4765D02*
X3475D01*
X3439Y4485D02*
X3485D01*
X3418Y4464D02*
X3439Y4485D01*
X3405Y4465D02*
X3416D01*
X3418Y4464D01*
X3626Y4704D02*
X3629Y4700D01*
X3479Y4486D02*
X3527D01*
X3889Y4418D02*
X3893Y4414D01*
X3937Y4560D02*
X3944Y4552D01*
X3923Y4546D02*
X3937Y4560D01*
X3875Y4546D02*
X3923D01*
X3944Y4545D02*
Y4552D01*
X3872Y4549D02*
X3875Y4546D01*
X3873Y4472D02*
X3875Y4469D01*
X3871Y4696D02*
X3875Y4700D01*
X3840Y4623D02*
X3875D01*
X3838Y4472D02*
X3873D01*
X3836Y4696D02*
X3871D01*
X3835Y4553D02*
Y4617D01*
Y4553D02*
X3838Y4549D01*
X3872D01*
X3835Y4475D02*
X3838Y4472D01*
X3835Y4617D02*
Y4695D01*
Y4617D02*
X3840Y4623D01*
X3835Y4695D02*
X3836Y4696D01*
X3835Y4475D02*
Y4553D01*
X3252Y4711D02*
Y4940D01*
X3951Y4707D02*
X3989D01*
X3918Y4674D02*
X3951Y4707D01*
X3875Y4674D02*
X3918D01*
X3964Y4763D02*
X4032D01*
X3942Y4740D02*
X3964Y4763D01*
X4032D02*
X4062Y4732D01*
X3626Y4704D02*
Y4718D01*
X3629Y4700D02*
X3644D01*
X3559Y4740D02*
Y4787D01*
X3537Y4809D02*
X3559Y4787D01*
Y4740D02*
X3603D01*
X3366Y4809D02*
X3537D01*
X3341Y4784D02*
X3366Y4809D01*
X3341Y4743D02*
Y4784D01*
X3603Y4740D02*
X3626Y4718D01*
X3603Y4740D02*
X3942D01*
X3331Y4710D02*
Y4733D01*
X3341Y4743D01*
X3328Y4707D02*
X3331Y4710D01*
X3249Y4607D02*
Y4707D01*
X3249Y4617D02*
Y4626D01*
X3519Y4637D02*
X3523Y4642D01*
X3519Y4619D02*
Y4637D01*
X3509Y4610D02*
X3519Y4619D01*
X3331Y4610D02*
X3509D01*
X3327Y4608D02*
Y4617D01*
X3917Y4612D02*
X3989D01*
X3907Y4601D02*
X3917Y4612D01*
X3879Y4601D02*
X3907D01*
X3875Y4597D02*
X3879Y4601D01*
X4069Y4626D02*
Y4634D01*
X4057Y4626D02*
X4069D01*
X3235Y4639D02*
X3249Y4626D01*
X3214Y4480D02*
X3249D01*
X3207Y4639D02*
X3235D01*
X3194Y4460D02*
X3214Y4480D01*
X3190Y4657D02*
X3207Y4639D01*
X3134Y4460D02*
X3194D01*
X3127Y4657D02*
X3190D01*
X3120Y4650D02*
X3127Y4657D01*
X3120Y4474D02*
Y4650D01*
Y4474D02*
X3134Y4460D01*
X3496Y4515D02*
X3531Y4550D01*
X3446Y4515D02*
X3496D01*
X3334Y4512D02*
Y4517D01*
X3436Y4505D02*
X3446Y4515D01*
X3341Y4505D02*
X3436D01*
X3334Y4512D02*
X3341Y4505D01*
X3970Y4495D02*
X3989Y4514D01*
X3934Y4495D02*
X3970D01*
X3875Y4521D02*
X3908D01*
X3934Y4495D01*
X4070Y4511D02*
X4084D01*
X3249Y4416D02*
Y4480D01*
X3449Y4454D02*
X3515D01*
X3447Y4451D02*
Y4452D01*
X3449Y4454D01*
X3446Y4451D02*
X3447D01*
X3446Y4444D02*
Y4451D01*
X3445Y4438D02*
Y4444D01*
X3446Y4444D01*
X3422Y4415D02*
X3445Y4438D01*
X3328Y4415D02*
X3422D01*
X3328D02*
Y4416D01*
X3327Y4415D02*
X3328Y4416D01*
X3946Y4416D02*
X3989D01*
X3918Y4444D02*
X3946Y4416D01*
X3875Y4444D02*
X3918D01*
X4067Y4416D02*
X4095Y4388D01*
X4069Y4356D02*
Y4387D01*
X4075Y4393D01*
X3996Y4284D02*
X4069Y4356D01*
X3414Y4284D02*
X3996D01*
X3328Y4370D02*
X3414Y4284D01*
X3328Y4370D02*
Y4415D01*
X4209Y4793D02*
X4211Y4791D01*
Y4782D02*
Y4791D01*
X4153Y4793D02*
X4209D01*
X4067Y4707D02*
X4153Y4793D01*
X4365Y4665D02*
X4368Y4663D01*
X4287Y4665D02*
X4365D01*
X4286Y4673D02*
X4293Y4680D01*
X4207Y4673D02*
Y4681D01*
X4141Y4660D02*
Y4670D01*
X4134Y4678D02*
X4141Y4670D01*
Y4660D02*
X4207D01*
X4213Y4665D01*
X4104Y4648D02*
X4134Y4678D01*
X4083Y4648D02*
X4104D01*
X4069Y4634D02*
X4083Y4648D01*
X3328Y4607D02*
X3331Y4610D01*
X3180Y4601D02*
Y4610D01*
X3298Y4579D02*
X3327Y4608D01*
X3298Y4579D02*
X3298D01*
X3298Y4579D02*
X3298Y4579D01*
X3298Y4579D02*
X3298D01*
X3178Y4599D02*
X3180Y4601D01*
X3178Y4599D02*
X3204Y4573D01*
X3292D02*
X3298Y4579D01*
X3204Y4573D02*
X3292D01*
X4095Y4388D02*
X4180D01*
X4213Y4355D01*
X4084Y4511D02*
X4090Y4505D01*
X4144Y4495D02*
X4169D01*
X4090Y4505D02*
X4129D01*
X4193Y4470D02*
X4213Y4490D01*
X4169Y4495D02*
X4193Y4470D01*
X4129Y4505D02*
X4144Y4490D01*
Y4495D01*
X3298Y4546D02*
X3314Y4530D01*
X3207Y4546D02*
X3298D01*
X3314Y4510D02*
Y4530D01*
X3188Y4527D02*
X3207Y4546D01*
X3314Y4510D02*
X3327Y4497D01*
X3438Y4643D02*
X3479D01*
X3437Y4704D02*
X3471D01*
X3475Y4708D01*
X3407Y4674D02*
X3437Y4704D01*
X3407Y4674D02*
X3438Y4643D01*
X3479Y4579D02*
X3527D01*
X3537Y4569D01*
X3466Y4566D02*
X3479Y4579D01*
X3426Y4566D02*
X3466D01*
X3405Y4545D02*
X3426Y4566D01*
X3495Y4341D02*
X3531D01*
X3479Y4380D02*
Y4422D01*
X3469Y4370D02*
X3479Y4380D01*
X3477Y4359D02*
X3495Y4341D01*
X3469Y4359D02*
X3477D01*
X3469D02*
Y4370D01*
X3700Y4344D02*
X3705Y4349D01*
X3644Y4390D02*
Y4418D01*
X3618Y4364D02*
X3644Y4390D01*
X3608Y4364D02*
X3618D01*
X3598Y4344D02*
X3700D01*
X3595Y4341D02*
Y4351D01*
Y4341D02*
X3598Y4344D01*
X3595Y4351D02*
X3608Y4364D01*
X1995Y4630D02*
X2000Y4625D01*
X2062D02*
X2075Y4612D01*
X2000Y4625D02*
X2062D01*
X2690D02*
X2695Y4630D01*
X2613Y4625D02*
X2690D01*
X2597Y4610D02*
X2613Y4625D01*
X2595Y4612D02*
X2597Y4610D01*
X2599Y4544D02*
X2599Y4545D01*
X2569Y4610D02*
X2597D01*
X2549Y4590D02*
X2569Y4610D01*
X2485Y4590D02*
X2549D01*
X2200Y4535D02*
X2205Y4540D01*
X2078Y4600D02*
X2079Y4602D01*
Y4600D02*
X2205D01*
X4917Y4703D02*
X4981D01*
X4908Y4705D02*
X4917Y4714D01*
Y4703D02*
Y4714D01*
X4902Y4705D02*
X4908D01*
X4952Y4405D02*
X4980Y4433D01*
X4902Y4405D02*
X4952D01*
X4970Y4363D02*
X4980D01*
X4962Y4355D02*
X4970Y4363D01*
X4902Y4355D02*
X4962D01*
X4673Y4370D02*
X4676Y4366D01*
X4610Y4370D02*
X4673D01*
X4685Y4508D02*
X4688Y4505D01*
X4600Y4510D02*
X4602Y4508D01*
X4688Y4505D02*
X4705D01*
X4602Y4508D02*
X4685D01*
X4825Y4655D02*
X4902D01*
X4840Y4455D02*
X4902D01*
X4775Y4605D02*
X4825Y4655D01*
X4775Y4520D02*
X4840Y4455D01*
X4805Y4420D02*
X4840Y4455D01*
X4805Y4333D02*
Y4420D01*
X4799Y4327D02*
X4805Y4333D01*
X4688Y4605D02*
X4775D01*
Y4520D02*
Y4605D01*
X4600Y4430D02*
X4663D01*
X4688Y4405D01*
X4583Y4327D02*
X4799D01*
X4540Y4370D02*
X4600Y4430D01*
X4540Y4370D02*
X4583Y4327D01*
X2119Y4690D02*
X2205D01*
X2105Y4704D02*
Y4704D01*
Y4704D02*
X2119Y4690D01*
X2047Y4520D02*
X2075Y4548D01*
X2005Y4471D02*
X2026Y4450D01*
X1995Y4520D02*
X2047D01*
X1995Y4509D02*
Y4520D01*
Y4509D02*
X2005Y4499D01*
Y4471D02*
Y4499D01*
X2203Y4492D02*
X2205Y4490D01*
X2138Y4492D02*
X2203D01*
X2104Y4459D02*
X2138Y4492D01*
X2104Y4450D02*
Y4459D01*
X2688Y4503D02*
X2695Y4510D01*
X2634D02*
X2695D01*
X2688Y4454D02*
Y4503D01*
X2674Y4440D02*
X2688Y4454D01*
X2599Y4545D02*
X2634Y4510D01*
X2595Y4548D02*
X2599Y4544D01*
X2596Y4440D02*
Y4449D01*
X2554Y4490D02*
X2596Y4449D01*
X2485Y4490D02*
X2554D01*
X2586Y4704D02*
Y4704D01*
X2572Y4690D02*
X2586Y4704D01*
X2485Y4690D02*
X2572D01*
X2664Y4704D02*
Y4720D01*
X2026Y4704D02*
Y4791D01*
X2024Y4806D02*
Y4884D01*
Y4806D02*
X2026Y4805D01*
X3559Y4694D02*
X3563Y4691D01*
X3592D01*
X3609Y4674D02*
X3644D01*
X3592Y4691D02*
X3609Y4674D01*
X2104Y4832D02*
Y4884D01*
Y4832D02*
X2118Y4819D01*
X2119Y4804D02*
X2183Y4740D01*
X2205D01*
X3593Y4603D02*
X3599Y4597D01*
X3560Y4603D02*
X3593D01*
X3561Y4603D02*
X3561D01*
X3560Y4603D02*
X3561Y4603D01*
X3599Y4597D02*
X3644D01*
X2196Y4431D02*
X2205Y4440D01*
X2166Y4431D02*
X2196D01*
X2104Y4370D02*
X2166Y4431D01*
X2104Y4361D02*
Y4370D01*
Y4290D02*
Y4361D01*
X2026D02*
Y4450D01*
X2674Y4440D02*
X2675Y4439D01*
Y4350D02*
Y4439D01*
X3599Y4521D02*
X3644D01*
X3592Y4514D02*
X3599Y4521D01*
X3561Y4514D02*
X3592D01*
X2835Y4495D02*
Y4505D01*
X2694Y4354D02*
X2835Y4495D01*
X2515Y4431D02*
X2596Y4350D01*
X2599Y4327D02*
X2608D01*
X2586Y4341D02*
Y4350D01*
X2485Y4440D02*
X2494Y4431D01*
X2515D01*
X2694Y4318D02*
Y4354D01*
X2681Y4305D02*
X2694Y4318D01*
X2631Y4305D02*
X2681D01*
X2586Y4341D02*
X2599Y4327D01*
X2608D02*
X2631Y4305D01*
X2660Y4811D02*
X2665Y4806D01*
Y4816D02*
Y4885D01*
X2664Y4805D02*
X2665Y4806D01*
X2660Y4811D02*
X2665Y4816D01*
X2664Y4720D02*
Y4791D01*
X3643Y4444D02*
X3644Y4444D01*
X3609Y4444D02*
X3643D01*
X2875Y4488D02*
Y4780D01*
X2835Y4448D02*
X2875Y4488D01*
X3562Y4428D02*
X3592D01*
X3609Y4444D01*
X3559Y4424D02*
X3562Y4428D01*
X2835Y4415D02*
Y4448D01*
X2615Y4935D02*
X2720D01*
X2586Y4905D02*
X2615Y4935D01*
X2720D02*
X2875Y4780D01*
X2586Y4805D02*
Y4905D01*
X2576Y4800D02*
X2586Y4791D01*
X2516Y4740D02*
X2576Y4800D01*
X2485Y4740D02*
X2516D01*
X2120Y4643D02*
X2202D01*
X2078Y4685D02*
X2120Y4643D01*
X2202D02*
X2205Y4640D01*
X1885Y4685D02*
X2078D01*
X1565Y4711D02*
X1859D01*
X1885Y4685D01*
X2196Y4549D02*
X2205Y4540D01*
X2161Y4549D02*
X2196D01*
X1596Y4580D02*
X2130D01*
X1565Y4611D02*
X1596Y4580D01*
X2130D02*
X2161Y4549D01*
X2485Y4540D02*
X2485Y4540D01*
X2455Y4540D02*
X2485D01*
X2166Y4250D02*
X2455Y4540D01*
X1565Y4511D02*
X1769D01*
X2030Y4250D02*
X2166D01*
X1769Y4511D02*
X2030Y4250D01*
X2463Y4640D02*
X2485D01*
X1655Y4930D02*
X2173D01*
X2463Y4640D01*
X1520Y4795D02*
X1655Y4930D01*
X1520Y4455D02*
Y4795D01*
Y4455D02*
X1565Y4411D01*
X5330Y4746D02*
X5333Y4743D01*
X5225Y4746D02*
X5330D01*
X5203Y4440D02*
X5205Y4442D01*
X5160Y4433D02*
X5167Y4440D01*
X5203D01*
X5160Y4400D02*
Y4433D01*
X5113Y4353D02*
X5160Y4400D01*
X5066Y4353D02*
X5113D01*
X4825Y4748D02*
X5035D01*
X5060Y4723D01*
X4732Y4655D02*
X4825Y4748D01*
X4688Y4655D02*
X4732D01*
X5060Y4359D02*
Y4723D01*
Y4359D02*
X5066Y4353D01*
X5163Y4467D02*
X5205D01*
X5110Y4415D02*
X5163Y4467D01*
X5110Y4413D02*
Y4415D01*
X5201Y4489D02*
X5205Y4493D01*
X5176Y4489D02*
X5201D01*
X5110Y4488D02*
X5175D01*
X5176Y4489D01*
X5100Y4560D02*
Y4713D01*
X5142Y4519D02*
X5205D01*
X5045Y4768D02*
X5100Y4713D01*
Y4560D02*
X5142Y4519D01*
X4808Y4768D02*
X5045D01*
X4745Y4705D02*
X4808Y4768D01*
X4688Y4705D02*
X4745D01*
X5205Y4570D02*
X5254D01*
X5260Y4563D01*
Y4431D02*
Y4563D01*
X5245Y4416D02*
X5260Y4431D01*
X5205Y4416D02*
X5245D01*
X5215Y4682D02*
X5225D01*
X5202Y4669D02*
X5215Y4682D01*
X5202Y4658D02*
Y4669D01*
X5186Y4570D02*
X5205D01*
X5169Y4626D02*
X5202Y4658D01*
X5150Y4618D02*
X5182Y4586D01*
Y4574D02*
X5186Y4570D01*
X5158Y4626D02*
X5169D01*
X5182Y4574D02*
Y4586D01*
X5150Y4618D02*
X5158Y4626D01*
X5494Y4631D02*
X5520Y4605D01*
X5440Y4631D02*
X5494D01*
X5436Y4570D02*
X5485D01*
X5520Y4605D01*
X5432Y4675D02*
X5435Y4679D01*
X5398Y4675D02*
X5432D01*
X5396Y4416D02*
X5436D01*
X5370Y4442D02*
X5396Y4416D01*
X5370Y4648D02*
X5398Y4675D01*
X5370Y4442D02*
Y4648D01*
X4368Y4802D02*
X4450D01*
X4367Y4803D02*
X4368Y4802D01*
X4356Y4803D02*
X4367D01*
X4344Y4791D02*
X4356Y4803D01*
X4287Y4791D02*
X4344D01*
X4630Y4560D02*
X4683D01*
X4440Y4725D02*
X4465D01*
X4683Y4560D02*
X4688Y4555D01*
X4465Y4725D02*
X4630Y4560D01*
X4083Y4665D02*
X4142Y4725D01*
X4440D01*
X3940Y4665D02*
X4083D01*
X3923Y4649D02*
X3940Y4665D01*
X3875Y4649D02*
X3923D01*
X4450Y4657D02*
X4530Y4577D01*
Y4478D02*
Y4577D01*
X4365Y4582D02*
X4440Y4657D01*
X4683Y4450D02*
X4688Y4455D01*
X4530Y4478D02*
X4558Y4450D01*
X4683D01*
X3962Y4590D02*
X3970Y4582D01*
X4365D01*
X3930Y4589D02*
Y4590D01*
X3962D01*
X3913Y4572D02*
X3930Y4589D01*
X3875Y4572D02*
X3913D01*
X4944Y4605D02*
X4970Y4579D01*
X4902Y4605D02*
X4944D01*
X4970Y4539D02*
X5041Y4468D01*
X4970Y4539D02*
Y4579D01*
X4394Y4421D02*
X4450Y4365D01*
X4454Y4361D02*
X4488D01*
X5041Y4341D02*
Y4468D01*
X4988Y4288D02*
X5041Y4341D01*
X4560Y4288D02*
X4988D01*
X4450Y4365D02*
X4454Y4361D01*
X4488D02*
X4560Y4288D01*
X4099Y4438D02*
X4116Y4421D01*
X4041Y4438D02*
X4099D01*
X4116Y4421D02*
X4394D01*
X4035Y4432D02*
X4041Y4438D01*
X3875Y4418D02*
X3889D01*
X4035Y4369D02*
Y4432D01*
X4010Y4344D02*
X4035Y4369D01*
X3949Y4344D02*
X4010D01*
X3893Y4400D02*
Y4414D01*
Y4400D02*
X3949Y4344D01*
X4412Y4295D02*
X4445D01*
X4450Y4290D01*
X4361Y4338D02*
X4370D01*
X4412Y4295D01*
X4344Y4355D02*
X4361Y4338D01*
X4287Y4355D02*
X4344D01*
X4902Y4505D02*
X4980D01*
X5025Y4460D01*
X4474Y4414D02*
Y4423D01*
Y4414D02*
X4515Y4372D01*
X5025Y4348D02*
Y4460D01*
X4985Y4308D02*
X5025Y4348D01*
X4566Y4308D02*
X4985D01*
X4515Y4359D02*
Y4372D01*
Y4359D02*
X4566Y4308D01*
X3942Y4464D02*
X4105D01*
X3910Y4495D02*
X3942Y4464D01*
X4129Y4440D02*
X4448D01*
X3875Y4495D02*
X3910D01*
X4459Y4438D02*
X4474Y4423D01*
X4450Y4438D02*
X4459D01*
X4105Y4464D02*
X4129Y4440D01*
X4448D02*
X4450Y4438D01*
Y4513D02*
Y4582D01*
X4366Y4513D02*
X4450D01*
X4340Y4538D02*
X4366Y4513D01*
X4312Y4510D02*
X4340Y4538D01*
X4302Y4510D02*
X4312D01*
X4287Y4495D02*
X4302Y4510D01*
X4287Y4490D02*
Y4495D01*
X5494Y5333D02*
X5520Y5307D01*
X5440Y5333D02*
X5494D01*
X5436Y5272D02*
X5485D01*
X5520Y5307D01*
X5880Y5144D02*
X6525Y4499D01*
X5436Y5144D02*
X5880D01*
X5954Y5169D02*
X6625Y4499D01*
X5436Y5169D02*
X5954D01*
X6029Y5195D02*
X6725Y4499D01*
X5436Y5195D02*
X6029D01*
X6103Y5221D02*
X6825Y4499D01*
X5436Y5221D02*
X6103D01*
X4116Y5123D02*
X4393D01*
X4098Y5140D02*
X4116Y5123D01*
X4041Y5140D02*
X4098D01*
X4035Y5134D02*
X4041Y5140D01*
X4035Y5071D02*
Y5134D01*
X4010Y5046D02*
X4035Y5071D01*
X3948Y5046D02*
X4010D01*
X3945Y5118D02*
X3988D01*
X4128Y5142D02*
X4447D01*
X4104Y5166D02*
X4128Y5142D01*
X3941Y5166D02*
X4104D01*
X3910Y5197D02*
X3941Y5166D01*
X3933Y5197D02*
X3969D01*
X3908Y5223D02*
X3933Y5197D01*
X3970Y5284D02*
X4365D01*
X3962Y5292D02*
X3970Y5284D01*
X3930Y5292D02*
X3962D01*
X3930Y5291D02*
Y5292D01*
X3912Y5274D02*
X3930Y5291D01*
X3874Y5274D02*
X3912D01*
X3906Y5303D02*
X3917Y5314D01*
X3878Y5303D02*
X3906D01*
X3602Y5442D02*
X3941D01*
X3944Y5247D02*
Y5254D01*
X3892Y5102D02*
X3948Y5046D01*
X3918Y5146D02*
X3945Y5118D01*
X3874Y5146D02*
X3918D01*
X3874Y5197D02*
X3910D01*
X4067Y5118D02*
X4095Y5090D01*
X3996Y4986D02*
X4068Y5058D01*
Y5089D01*
X4074Y5095D01*
X3413Y4986D02*
X3996D01*
X4393Y5123D02*
X4450Y5067D01*
X3892Y5102D02*
Y5116D01*
X3889Y5120D02*
X3892Y5116D01*
X3874Y5120D02*
X3889D01*
X3328Y5117D02*
X3422D01*
X4179Y5090D02*
X4212Y5057D01*
X4095Y5090D02*
X4179D01*
X4210Y5484D02*
Y5493D01*
X4067Y5409D02*
X4153Y5494D01*
X3331Y5412D02*
Y5435D01*
X4031Y5465D02*
X4062Y5434D01*
X3964Y5465D02*
X4031D01*
X3941Y5442D02*
X3964Y5465D01*
X5330Y5448D02*
X5333Y5445D01*
X5225Y5448D02*
X5330D01*
X5370Y5144D02*
X5396Y5118D01*
X5436D01*
X5370Y5144D02*
Y5350D01*
X5397Y5377D01*
X5431D01*
X5435Y5381D01*
X5150Y5320D02*
X5158Y5328D01*
X5169D01*
X5201Y5360D01*
Y5371D01*
X5214Y5384D01*
X5225D01*
X5204Y5118D02*
X5245D01*
X5260Y5133D01*
Y5265D01*
X5253Y5272D02*
X5260Y5265D01*
X5204Y5272D02*
X5253D01*
X5150Y5320D02*
X5182Y5288D01*
Y5276D02*
Y5288D01*
Y5276D02*
X5186Y5272D01*
X5204D01*
X5160Y5135D02*
X5167Y5142D01*
X5203D01*
X5204Y5144D01*
X5160Y5102D02*
Y5135D01*
X5113Y5055D02*
X5160Y5102D01*
X5066Y5055D02*
X5113D01*
X5060Y5061D02*
X5066Y5055D01*
X5060Y5061D02*
Y5425D01*
X5035Y5450D02*
X5060Y5425D01*
X4825Y5450D02*
X5035D01*
X4732Y5357D02*
X4825Y5450D01*
X4687Y5357D02*
X4732D01*
X5045Y5470D02*
X5100Y5415D01*
X4807Y5470D02*
X5045D01*
X4744Y5407D02*
X4807Y5470D01*
X4916Y5405D02*
Y5416D01*
X3922Y5248D02*
X3936Y5262D01*
X2079Y5302D02*
X2205D01*
X4916Y5405D02*
X4981D01*
X5110Y5190D02*
X5174D01*
X5176Y5191D01*
X5200D01*
X5204Y5195D01*
X5110Y5117D02*
X5162Y5169D01*
X5204D01*
X5110Y5115D02*
Y5117D01*
X4969Y5065D02*
X4980D01*
X4961Y5057D02*
X4969Y5065D01*
X4902Y5057D02*
X4961D01*
X4952Y5107D02*
X4980Y5135D01*
X4902Y5107D02*
X4952D01*
X5041Y5043D02*
Y5170D01*
X4560Y4990D02*
X4988D01*
X5041Y5043D01*
X5025Y5050D02*
Y5162D01*
X4985Y5010D02*
X5025Y5050D01*
X4566Y5010D02*
X4985D01*
X4970Y5241D02*
X5041Y5170D01*
X4980Y5207D02*
X5025Y5162D01*
X5100Y5262D02*
X5141Y5221D01*
X5204D01*
X5100Y5262D02*
Y5415D01*
X4687Y5407D02*
X4744D01*
X4450Y5215D02*
Y5284D01*
X4340Y5240D02*
X4365Y5215D01*
X4450D01*
X4302Y5212D02*
X4312D01*
X4287Y5197D02*
X4302Y5212D01*
X4287Y5192D02*
Y5197D01*
X4312Y5212D02*
X4340Y5240D01*
X4365Y5367D02*
X4367Y5365D01*
X4287Y5367D02*
X4365D01*
X4365Y5284D02*
X4440Y5359D01*
X4366Y5505D02*
X4367Y5504D01*
X4450D01*
X4355Y5505D02*
X4366D01*
X4343Y5493D02*
X4355Y5505D01*
X4287Y5493D02*
X4343D01*
X4369Y5040D02*
X4412Y4997D01*
X4444D01*
X4450Y4992D01*
X4360Y5040D02*
X4369D01*
X4343Y5057D02*
X4360Y5040D01*
X4287Y5057D02*
X4343D01*
X4944Y5307D02*
X4970Y5281D01*
X4902Y5307D02*
X4944D01*
X4970Y5241D02*
Y5281D01*
X4487Y5063D02*
X4560Y4990D01*
X4454Y5063D02*
X4487D01*
X4450Y5067D02*
X4454Y5063D01*
X4902Y5207D02*
X4980D01*
X4515Y5061D02*
X4566Y5010D01*
X4515Y5061D02*
Y5074D01*
X4473Y5116D02*
X4515Y5074D01*
X4473Y5116D02*
Y5125D01*
X4458Y5140D02*
X4473Y5125D01*
X4450Y5140D02*
X4458D01*
X4682Y5152D02*
X4687Y5157D01*
X4558Y5152D02*
X4682D01*
X4530Y5180D02*
X4558Y5152D01*
X4530Y5180D02*
Y5279D01*
X4450Y5359D02*
X4530Y5279D01*
X4682Y5262D02*
X4687Y5257D01*
X4630Y5262D02*
X4682D01*
X4465Y5427D02*
X4630Y5262D01*
X4440Y5427D02*
X4465D01*
X4610Y5072D02*
X4672D01*
X3252Y5413D02*
Y5642D01*
X3249Y5309D02*
Y5409D01*
X4600Y5212D02*
X4602Y5209D01*
X4447Y5142D02*
X4450Y5140D01*
X4168Y5197D02*
X4193Y5172D01*
X4128Y5207D02*
X4144Y5192D01*
X3333Y5214D02*
X3341Y5207D01*
X4090D02*
X4128D01*
X4084Y5213D02*
X4090Y5207D01*
X4144Y5192D02*
Y5197D01*
X4168D01*
X4207Y5362D02*
X4212Y5367D01*
X4104Y5350D02*
X4133Y5380D01*
X4141Y5362D02*
X4207D01*
X4142Y5427D02*
X4440D01*
X4082Y5367D02*
X4142Y5427D01*
X4141Y5362D02*
Y5372D01*
X4133Y5380D02*
X4141Y5372D01*
X3940Y5367D02*
X4082D01*
X3923Y5350D02*
X3940Y5367D01*
X3874Y5350D02*
X3923D01*
X4153Y5494D02*
X4209D01*
X4193Y5172D02*
X4212Y5192D01*
X3969Y5197D02*
X3988Y5216D01*
X3936Y5262D02*
X3944Y5254D01*
X3214Y5182D02*
X3249D01*
X1100Y5610D02*
X1160Y5670D01*
X1100Y4631D02*
Y5610D01*
Y4631D02*
X1106Y4625D01*
X1149D01*
X1180Y4594D01*
X1769Y5213D02*
X2030Y4952D01*
X1565Y5213D02*
X1769D01*
X2455Y5242D02*
X2485D01*
X2165Y4952D02*
X2455Y5242D01*
X2030Y4952D02*
X2165D01*
X3475Y5467D02*
X3480Y5472D01*
X3400Y5467D02*
X3475D01*
X3438Y5187D02*
X3485D01*
X3417Y5166D02*
X3438Y5187D01*
X3405Y5167D02*
X3416D01*
X3417Y5166D01*
X3479Y5188D02*
X3527D01*
X3874Y5248D02*
X3922D01*
X3871Y5398D02*
X3874Y5402D01*
X3840Y5325D02*
X3874D01*
X3872Y5251D02*
X3874Y5248D01*
X3838Y5251D02*
X3872D01*
X3872Y5174D02*
X3874Y5171D01*
X3838Y5174D02*
X3872D01*
X3835Y5398D02*
X3871D01*
X3834Y5397D02*
X3835Y5398D01*
X3834Y5319D02*
X3840Y5325D01*
X3834Y5177D02*
X3838Y5174D01*
X3834Y5255D02*
X3838Y5251D01*
X3834Y5255D02*
Y5319D01*
Y5397D01*
Y5177D02*
Y5255D01*
X3950Y5409D02*
X3988D01*
X3918Y5376D02*
X3950Y5409D01*
X3874Y5376D02*
X3918D01*
X3629Y5402D02*
X3643D01*
X3625Y5406D02*
Y5420D01*
X3559Y5442D02*
Y5489D01*
X3537Y5511D02*
X3559Y5489D01*
Y5442D02*
X3602D01*
X3365Y5511D02*
X3537D01*
X3341Y5486D02*
X3365Y5511D01*
X3341Y5445D02*
Y5486D01*
X3602Y5442D02*
X3625Y5420D01*
Y5406D02*
X3629Y5402D01*
X3331Y5435D02*
X3341Y5445D01*
X3328Y5409D02*
X3331Y5412D01*
X3248Y5319D02*
Y5328D01*
X3518Y5339D02*
X3523Y5344D01*
X3518Y5321D02*
Y5339D01*
X3509Y5312D02*
X3518Y5321D01*
X3331Y5312D02*
X3509D01*
X3327Y5310D02*
Y5319D01*
X3917Y5314D02*
X3988D01*
X3874Y5299D02*
X3878Y5303D01*
X4083Y5350D02*
X4104D01*
X4069Y5336D02*
X4083Y5350D01*
X4069Y5328D02*
Y5336D01*
X4057Y5328D02*
X4069D01*
X3328Y5309D02*
X3331Y5312D01*
X3298Y5281D02*
X3327Y5310D01*
X3298Y5281D02*
X3298D01*
X3298Y5281D02*
X3298D01*
X3298Y5281D01*
X3292Y5275D02*
X3298Y5281D01*
X3180Y5303D02*
Y5312D01*
X3178Y5301D02*
X3180Y5303D01*
X3203Y5275D02*
X3292D01*
X3178Y5301D02*
X3203Y5275D01*
X3234Y5341D02*
X3248Y5328D01*
X3190Y5359D02*
X3207Y5341D01*
X3234D01*
X3120Y5352D02*
X3126Y5359D01*
X3190D01*
X3194Y5162D02*
X3214Y5182D01*
X3134Y5162D02*
X3194D01*
X3120Y5176D02*
Y5352D01*
Y5176D02*
X3134Y5162D01*
X3496Y5217D02*
X3530Y5252D01*
X3446Y5217D02*
X3496D01*
X3435Y5207D02*
X3446Y5217D01*
X3341Y5207D02*
X3435D01*
X3333Y5214D02*
Y5219D01*
X3874Y5223D02*
X3908D01*
X4069Y5213D02*
X4084D01*
X3298Y5248D02*
X3313Y5232D01*
X3207Y5248D02*
X3298D01*
X3188Y5229D02*
X3207Y5248D01*
X3313Y5212D02*
Y5232D01*
Y5212D02*
X3327Y5199D01*
X3249Y5118D02*
Y5182D01*
X3449Y5156D02*
X3515D01*
X3446Y5154D02*
X3449Y5156D01*
X3446Y5153D02*
Y5154D01*
X3446Y5153D02*
X3446D01*
X3446Y5146D02*
Y5153D01*
X3445Y5146D02*
X3446Y5146D01*
X3445Y5140D02*
Y5146D01*
X3422Y5117D02*
X3445Y5140D01*
X3328Y5117D02*
Y5118D01*
X3327Y5117D02*
X3328Y5118D01*
X3328Y5072D02*
X3413Y4986D01*
X3328Y5072D02*
Y5117D01*
X4207Y5374D02*
Y5383D01*
X4286Y5374D02*
X4293Y5382D01*
X3470Y5406D02*
X3474Y5410D01*
X3437Y5406D02*
X3470D01*
X3438Y5345D02*
X3479D01*
X3406Y5376D02*
X3437Y5406D01*
X3406Y5376D02*
X3438Y5345D01*
X3479Y5281D02*
X3527D01*
X3536Y5271D01*
X3466Y5268D02*
X3479Y5281D01*
X3425Y5268D02*
X3466D01*
X3405Y5247D02*
X3425Y5268D01*
X3494Y5043D02*
X3530D01*
X3479Y5082D02*
Y5124D01*
X3476Y5061D02*
X3494Y5043D01*
X3468Y5072D02*
X3479Y5082D01*
X3468Y5061D02*
Y5072D01*
Y5061D02*
X3476D01*
X3700Y5046D02*
X3704Y5051D01*
X3598Y5046D02*
X3700D01*
X3643Y5092D02*
Y5120D01*
X3607Y5066D02*
X3618D01*
X3643Y5092D01*
X3594Y5043D02*
X3598Y5046D01*
X3594Y5053D02*
X3607Y5066D01*
X3594Y5043D02*
Y5053D01*
X1995Y5332D02*
X2000Y5327D01*
X2062D02*
X2075Y5314D01*
X2000Y5327D02*
X2062D01*
X2690D02*
X2695Y5332D01*
X2613Y5327D02*
X2690D01*
X2597Y5311D02*
X2613Y5327D01*
X2595Y5314D02*
X2597Y5311D01*
X2569D02*
X2597D01*
X2485Y5292D02*
X2549D01*
X2569Y5311D01*
X2200Y5237D02*
X2205Y5242D01*
X2077Y5302D02*
X2079Y5304D01*
X4902Y5407D02*
X4908D01*
X4916Y5416D01*
X4672Y5072D02*
X4676Y5068D01*
X4687Y5207D02*
X4705D01*
X4685Y5209D02*
X4687Y5207D01*
X4602Y5209D02*
X4685D01*
X4209Y5494D02*
X4210Y5493D01*
X4825Y5357D02*
X4902D01*
X4840Y5157D02*
X4902D01*
X4775Y5307D02*
X4825Y5357D01*
X4775Y5222D02*
X4840Y5157D01*
X4805Y5122D02*
X4840Y5157D01*
X4805Y5035D02*
Y5122D01*
X4799Y5029D02*
X4805Y5035D01*
X4687Y5307D02*
X4775D01*
Y5222D02*
Y5307D01*
X4600Y5132D02*
X4662D01*
X4687Y5107D01*
X4582Y5029D02*
X4799D01*
X4540Y5072D02*
X4600Y5132D01*
X4540Y5072D02*
X4582Y5029D01*
X2118Y5392D02*
X2205D01*
X2105Y5406D02*
X2118Y5392D01*
X2105Y5406D02*
Y5406D01*
X2047Y5222D02*
X2075Y5250D01*
X2005Y5173D02*
Y5201D01*
X1995Y5222D02*
X2047D01*
X1995Y5211D02*
X2005Y5201D01*
X1995Y5211D02*
Y5222D01*
X2005Y5173D02*
X2025Y5152D01*
X2202Y5194D02*
X2205Y5192D01*
X2137Y5194D02*
X2202D01*
X2104Y5161D02*
X2137Y5194D01*
X2104Y5152D02*
Y5161D01*
X2688Y5205D02*
X2695Y5212D01*
X2688Y5156D02*
Y5205D01*
X2674Y5142D02*
X2688Y5156D01*
X2634Y5212D02*
X2695D01*
X2595Y5250D02*
X2598Y5246D01*
X2599Y5247D02*
X2634Y5212D01*
X2598Y5246D02*
X2599Y5247D01*
X2595Y5142D02*
Y5151D01*
X2554Y5192D02*
X2595Y5151D01*
X2485Y5192D02*
X2554D01*
X2585Y5406D02*
Y5406D01*
X2571Y5392D02*
X2585Y5406D01*
X2485Y5392D02*
X2571D01*
X2664Y5406D02*
Y5422D01*
X2024Y5508D02*
X2025Y5507D01*
X2024Y5508D02*
Y5586D01*
X2026Y5406D02*
Y5493D01*
X3559Y5396D02*
X3562Y5393D01*
X3592D01*
X3609Y5376D02*
X3643D01*
X3592Y5393D02*
X3609Y5376D01*
X2104Y5534D02*
Y5586D01*
Y5534D02*
X2117Y5521D01*
X2118Y5506D02*
X2182Y5442D01*
X2205D01*
X3593Y5305D02*
X3599Y5299D01*
X3560Y5305D02*
X3593D01*
X3560Y5305D02*
X3561D01*
X3560Y5305D02*
X3560Y5305D01*
X3599Y5299D02*
X3643D01*
X2196Y5133D02*
X2205Y5142D01*
X2165Y5133D02*
X2196D01*
X2104Y5072D02*
X2165Y5133D01*
X2104Y5063D02*
Y5072D01*
Y4992D02*
Y5063D01*
X2025D02*
Y5152D01*
X2675Y5052D02*
Y5141D01*
X2674Y5142D02*
X2675Y5141D01*
X3599Y5223D02*
X3643D01*
X3592Y5216D02*
X3599Y5223D01*
X3560Y5216D02*
X3592D01*
X2835Y5197D02*
Y5207D01*
X2694Y5056D02*
X2835Y5197D01*
X2515Y5133D02*
X2596Y5052D01*
X2599Y5029D02*
X2608D01*
X2585Y5043D02*
Y5052D01*
X2485Y5142D02*
X2494Y5133D01*
X2515D01*
X2694Y5020D02*
Y5056D01*
X2681Y5007D02*
X2694Y5020D01*
X2630Y5007D02*
X2681D01*
X2585Y5043D02*
X2599Y5029D01*
X2608D02*
X2630Y5007D01*
X2664Y5507D02*
X2665Y5508D01*
X2660Y5513D02*
X2665Y5508D01*
Y5518D02*
Y5587D01*
X2660Y5513D02*
X2665Y5518D01*
X2664Y5422D02*
Y5493D01*
X3643Y5146D02*
X3643Y5146D01*
X3609Y5146D02*
X3643D01*
X2875Y5190D02*
Y5482D01*
X2835Y5150D02*
X2875Y5190D01*
X3562Y5129D02*
X3592D01*
X3609Y5146D01*
X3559Y5126D02*
X3562Y5129D01*
X2615Y5637D02*
X2720D01*
X2585Y5607D02*
X2615Y5637D01*
X2720D02*
X2875Y5482D01*
X2585Y5507D02*
Y5607D01*
X2576Y5502D02*
X2585Y5493D01*
X2835Y5117D02*
Y5150D01*
X2516Y5442D02*
X2576Y5502D01*
X2485Y5442D02*
X2516D01*
X2120Y5345D02*
X2202D01*
X2077Y5387D02*
X2120Y5345D01*
X2202D02*
X2205Y5342D01*
X1885Y5387D02*
X2077D01*
X1565Y5413D02*
X1859D01*
X1885Y5387D01*
X2196Y5251D02*
X2205Y5242D01*
X2161Y5251D02*
X2196D01*
X1596Y5282D02*
X2130D01*
X1565Y5313D02*
X1596Y5282D01*
X2130D02*
X2161Y5251D01*
X2485Y5242D02*
X2485Y5242D01*
X2463Y5342D02*
X2485D01*
X1655Y5632D02*
X2173D01*
X2463Y5342D01*
X1520Y5497D02*
X1655Y5632D01*
X1520Y5157D02*
Y5497D01*
Y5157D02*
X1565Y5113D01*
X7360Y5700D02*
X7370Y5690D01*
D13*
X1000Y0D02*
Y5700D01*
X7370D01*
Y0D02*
Y5700D01*
X1000Y0D02*
X7370D01*
D14*
X4718Y475D02*
X4768Y525D01*
X4718Y135D02*
Y525D01*
Y135D02*
X4872D01*
Y525D01*
X4718D02*
X4872D01*
X5381Y195D02*
X5407Y220D01*
Y195D02*
Y391D01*
X5234D02*
X5407D01*
X5234Y195D02*
Y391D01*
Y195D02*
X5407D01*
X4425Y525D02*
X4475D01*
Y604D01*
X4425D02*
X4475D01*
X4425Y525D02*
Y604D01*
Y459D02*
X4475D01*
X4425Y380D02*
Y459D01*
Y380D02*
X4475D01*
Y459D01*
X4425Y88D02*
X4475D01*
Y167D01*
X4425D02*
X4475D01*
X4425Y88D02*
Y167D01*
Y315D02*
X4475D01*
X4425Y236D02*
Y315D01*
Y236D02*
X4475D01*
Y315D01*
X4718Y1225D02*
X4872D01*
Y835D02*
Y1225D01*
X4718Y835D02*
X4872D01*
X4718D02*
Y1225D01*
Y1175D02*
X4768Y1225D01*
X5381Y895D02*
X5407Y920D01*
Y895D02*
Y1091D01*
X5234D02*
X5407D01*
X5234Y895D02*
Y1091D01*
Y895D02*
X5407D01*
X4425Y1225D02*
X4475D01*
Y1304D01*
X4425D02*
X4475D01*
X4425Y1225D02*
Y1304D01*
Y1159D02*
X4475D01*
X4425Y1080D02*
Y1159D01*
Y1080D02*
X4475D01*
Y1159D01*
X4425Y788D02*
X4475D01*
Y867D01*
X4425D02*
X4475D01*
X4425Y788D02*
Y867D01*
Y1015D02*
X4475D01*
X4425Y936D02*
Y1015D01*
Y936D02*
X4475D01*
Y1015D01*
X4718Y1875D02*
X4768Y1925D01*
X4718Y1535D02*
Y1925D01*
Y1535D02*
X4872D01*
Y1925D01*
X4718D02*
X4872D01*
X5381Y1595D02*
X5407Y1620D01*
Y1595D02*
Y1791D01*
X5234D02*
X5407D01*
X5234Y1595D02*
Y1791D01*
Y1595D02*
X5407D01*
X4425Y1925D02*
X4475D01*
Y2004D01*
X4425D02*
X4475D01*
X4425Y1925D02*
Y2004D01*
Y1859D02*
X4475D01*
X4425Y1780D02*
Y1859D01*
Y1780D02*
X4475D01*
Y1859D01*
X4425Y1488D02*
X4475D01*
Y1567D01*
X4425D02*
X4475D01*
X4425Y1488D02*
Y1567D01*
Y1715D02*
X4475D01*
X4425Y1636D02*
Y1715D01*
Y1636D02*
X4475D01*
Y1715D01*
X4718Y2575D02*
X4768Y2625D01*
X4718Y2235D02*
Y2625D01*
Y2235D02*
X4872D01*
Y2625D01*
X4718D02*
X4872D01*
X5381Y2295D02*
X5407Y2320D01*
Y2295D02*
Y2491D01*
X5234D02*
X5407D01*
X5234Y2295D02*
Y2491D01*
Y2295D02*
X5407D01*
X4425Y2625D02*
X4475D01*
Y2704D01*
X4425D02*
X4475D01*
X4425Y2625D02*
Y2704D01*
Y2559D02*
X4475D01*
X4425Y2480D02*
Y2559D01*
Y2480D02*
X4475D01*
Y2559D01*
X4425Y2188D02*
X4475D01*
Y2267D01*
X4425D02*
X4475D01*
X4425Y2188D02*
Y2267D01*
Y2415D02*
X4475D01*
X4425Y2336D02*
Y2415D01*
Y2336D02*
X4475D01*
Y2415D01*
X4718Y3275D02*
X4768Y3325D01*
X4718Y2935D02*
Y3325D01*
Y2935D02*
X4872D01*
Y3325D01*
X4718D02*
X4872D01*
X5381Y2995D02*
X5407Y3020D01*
Y2995D02*
Y3191D01*
X5234D02*
X5407D01*
X5234Y2995D02*
Y3191D01*
Y2995D02*
X5407D01*
X4425Y3325D02*
X4475D01*
Y3404D01*
X4425D02*
X4475D01*
X4425Y3325D02*
Y3404D01*
Y3259D02*
X4475D01*
X4425Y3180D02*
Y3259D01*
Y3180D02*
X4475D01*
Y3259D01*
X4425Y2888D02*
X4475D01*
Y2967D01*
X4425D02*
X4475D01*
X4425Y2888D02*
Y2967D01*
Y3115D02*
X4475D01*
X4425Y3036D02*
Y3115D01*
Y3036D02*
X4475D01*
Y3115D01*
X4718Y3975D02*
X4768Y4025D01*
X4718Y3635D02*
Y4025D01*
Y3635D02*
X4872D01*
Y4025D01*
X4718D02*
X4872D01*
X5381Y3695D02*
X5407Y3720D01*
Y3695D02*
Y3891D01*
X5234D02*
X5407D01*
X5234Y3695D02*
Y3891D01*
Y3695D02*
X5407D01*
X4425Y4025D02*
X4475D01*
Y4104D01*
X4425D02*
X4475D01*
X4425Y4025D02*
Y4104D01*
Y3959D02*
X4475D01*
X4425Y3880D02*
Y3959D01*
Y3880D02*
X4475D01*
Y3959D01*
X4425Y3588D02*
X4475D01*
Y3667D01*
X4425D02*
X4475D01*
X4425Y3588D02*
Y3667D01*
Y3815D02*
X4475D01*
X4425Y3736D02*
Y3815D01*
Y3736D02*
X4475D01*
Y3815D01*
X4718Y4675D02*
X4768Y4725D01*
X4718Y4335D02*
Y4725D01*
Y4335D02*
X4872D01*
Y4725D01*
X4718D02*
X4872D01*
X5381Y4395D02*
X5407Y4420D01*
Y4395D02*
Y4591D01*
X5234D02*
X5407D01*
X5234Y4395D02*
Y4591D01*
Y4395D02*
X5407D01*
X4425Y4725D02*
X4475D01*
Y4804D01*
X4425D02*
X4475D01*
X4425Y4725D02*
Y4804D01*
Y4659D02*
X4475D01*
X4425Y4580D02*
Y4659D01*
Y4580D02*
X4475D01*
Y4659D01*
X4425Y4288D02*
X4475D01*
Y4367D01*
X4425D02*
X4475D01*
X4425Y4288D02*
Y4367D01*
Y4515D02*
X4475D01*
X4425Y4436D02*
Y4515D01*
Y4436D02*
X4475D01*
Y4515D01*
X5381Y5097D02*
X5407Y5122D01*
Y5097D02*
Y5293D01*
X5233D02*
X5407D01*
X5233Y5097D02*
Y5293D01*
Y5097D02*
X5407D01*
X4718Y5377D02*
X4768Y5427D01*
X4718Y5037D02*
Y5427D01*
Y5037D02*
X4871D01*
Y5427D01*
X4718D02*
X4871D01*
X4425Y4990D02*
X4474D01*
Y5069D01*
X4425D02*
X4474D01*
X4425Y4990D02*
Y5069D01*
Y5217D02*
X4474D01*
X4425Y5138D02*
Y5217D01*
Y5138D02*
X4474D01*
Y5217D01*
X4425Y5427D02*
X4474D01*
Y5506D01*
X4425D02*
X4474D01*
X4425Y5427D02*
Y5506D01*
Y5361D02*
X4474D01*
X4425Y5282D02*
Y5361D01*
Y5282D02*
X4474D01*
Y5361D01*
X2586Y3380D02*
Y3430D01*
Y3380D02*
X2664D01*
Y3430D01*
X2586D02*
X2664D01*
X2586Y825D02*
Y875D01*
Y825D02*
X2664D01*
Y875D01*
X2586D02*
X2664D01*
X2586Y1280D02*
Y1330D01*
Y1280D02*
X2664D01*
Y1330D01*
X2586D02*
X2664D01*
X2585Y5027D02*
Y5077D01*
Y5027D02*
X2664D01*
Y5077D01*
X2585D02*
X2664D01*
X2586Y2680D02*
Y2730D01*
Y2680D02*
X2664D01*
Y2730D01*
X2586D02*
X2664D01*
X2586Y2925D02*
Y2975D01*
Y2925D02*
X2664D01*
Y2975D01*
X2586D02*
X2664D01*
X2586Y2225D02*
Y2275D01*
Y2225D02*
X2664D01*
Y2275D01*
X2586D02*
X2664D01*
X2586Y4080D02*
Y4130D01*
Y4080D02*
X2664D01*
Y4130D01*
X2586D02*
X2664D01*
X2586Y125D02*
Y175D01*
Y125D02*
X2664D01*
Y175D01*
X2586D02*
X2664D01*
X2586Y4780D02*
Y4830D01*
Y4780D02*
X2664D01*
Y4830D01*
X2586D02*
X2664D01*
X2585Y5482D02*
Y5532D01*
Y5482D02*
X2664D01*
Y5532D01*
X2585D02*
X2664D01*
X2586Y4325D02*
Y4375D01*
Y4325D02*
X2664D01*
Y4375D01*
X2586D02*
X2664D01*
X2586Y1980D02*
Y2030D01*
Y1980D02*
X2664D01*
Y2030D01*
X2586D02*
X2664D01*
X2586Y3625D02*
Y3675D01*
Y3625D02*
X2664D01*
Y3675D01*
X2586D02*
X2664D01*
X2586Y580D02*
Y630D01*
Y580D02*
X2664D01*
Y630D01*
X2586D02*
X2664D01*
X2586Y1525D02*
Y1575D01*
Y1525D02*
X2664D01*
Y1575D01*
X2586D02*
X2664D01*
X4289Y5167D02*
Y5217D01*
X4210D02*
X4289D01*
X4210Y5167D02*
Y5217D01*
Y5167D02*
X4289D01*
X4289Y265D02*
Y315D01*
X4211D02*
X4289D01*
X4211Y265D02*
Y315D01*
Y265D02*
X4289D01*
Y830D02*
Y880D01*
X4211D02*
X4289D01*
X4211Y830D02*
Y880D01*
Y830D02*
X4289D01*
X3249Y4441D02*
X3328D01*
Y4391D02*
Y4441D01*
X3249Y4391D02*
X3328D01*
X3249D02*
Y4441D01*
X4211Y1841D02*
Y1890D01*
Y1841D02*
X4289D01*
Y1890D01*
X4211D02*
X4289D01*
X3996Y4418D02*
X4075D01*
Y4368D02*
Y4418D01*
X3996Y4368D02*
X4075D01*
X3996D02*
Y4418D01*
X4289Y130D02*
Y180D01*
X4211D02*
X4289D01*
X4211Y130D02*
Y180D01*
Y130D02*
X4289D01*
X3996Y3718D02*
X4075D01*
Y3668D02*
Y3718D01*
X3996Y3668D02*
X4075D01*
X3996D02*
Y3718D01*
X4289Y965D02*
Y1015D01*
X4211D02*
X4289D01*
X4211Y965D02*
Y1015D01*
Y965D02*
X4289D01*
X3249Y3741D02*
X3328D01*
Y3691D02*
Y3741D01*
X3249Y3691D02*
X3328D01*
X3249D02*
Y3741D01*
X4211Y567D02*
Y616D01*
Y567D02*
X4289D01*
Y616D01*
X4211D02*
X4289D01*
X3249Y1641D02*
X3328D01*
Y1591D02*
Y1641D01*
X3249Y1591D02*
X3328D01*
X3249D02*
Y1641D01*
X4289Y3065D02*
Y3115D01*
X4211D02*
X4289D01*
X4211Y3065D02*
Y3115D01*
Y3065D02*
X4289D01*
Y3765D02*
Y3815D01*
X4211D02*
X4289D01*
X4211Y3765D02*
Y3815D01*
Y3765D02*
X4289D01*
Y1530D02*
Y1580D01*
X4211D02*
X4289D01*
X4211Y1530D02*
Y1580D01*
Y1530D02*
X4289D01*
Y4465D02*
Y4515D01*
X4211D02*
X4289D01*
X4211Y4465D02*
Y4515D01*
Y4465D02*
X4289D01*
X3249Y2341D02*
X3328D01*
Y2291D02*
Y2341D01*
X3249Y2291D02*
X3328D01*
X3249D02*
Y2341D01*
X4211Y4767D02*
Y4816D01*
Y4767D02*
X4289D01*
Y4816D01*
X4211D02*
X4289D01*
X3996Y5120D02*
X4074D01*
Y5070D02*
Y5120D01*
X3996Y5070D02*
X4074D01*
X3996D02*
Y5120D01*
X3996Y2318D02*
X4075D01*
Y2268D02*
Y2318D01*
X3996Y2268D02*
X4075D01*
X3996D02*
Y2318D01*
X4006Y3136D02*
X4084D01*
Y3086D02*
Y3136D01*
X4006Y3086D02*
X4084D01*
X4006D02*
Y3136D01*
X3249Y3041D02*
X3328D01*
Y2991D02*
Y3041D01*
X3249Y2991D02*
X3328D01*
X3249D02*
Y3041D01*
X4211Y1141D02*
Y1190D01*
Y1141D02*
X4289D01*
Y1190D01*
X4211D02*
X4289D01*
X4211Y2541D02*
Y2590D01*
Y2541D02*
X4289D01*
Y2590D01*
X4211D02*
X4289D01*
X3996Y3018D02*
X4075D01*
Y2968D02*
Y3018D01*
X3996Y2968D02*
X4075D01*
X3996D02*
Y3018D01*
X3249Y941D02*
X3328D01*
Y891D02*
Y941D01*
X3249Y891D02*
X3328D01*
X3249D02*
Y941D01*
X4289Y1665D02*
Y1715D01*
X4211D02*
X4289D01*
X4211Y1665D02*
Y1715D01*
Y1665D02*
X4289D01*
X4006Y2436D02*
X4084D01*
Y2386D02*
Y2436D01*
X4006Y2386D02*
X4084D01*
X4006D02*
Y2436D01*
X4211Y1967D02*
Y2016D01*
Y1967D02*
X4289D01*
Y2016D01*
X4211D02*
X4289D01*
X3249Y241D02*
X3328D01*
Y191D02*
Y241D01*
X3249Y191D02*
X3328D01*
X3249D02*
Y241D01*
X4211Y441D02*
Y490D01*
Y441D02*
X4289D01*
Y490D01*
X4211D02*
X4289D01*
X4210Y5469D02*
Y5518D01*
Y5469D02*
X4289D01*
Y5518D01*
X4210D02*
X4289D01*
X4211Y1267D02*
Y1316D01*
Y1267D02*
X4289D01*
Y1316D01*
X4211D02*
X4289D01*
X4005Y5238D02*
X4084D01*
Y5188D02*
Y5238D01*
X4005Y5188D02*
X4084D01*
X4005D02*
Y5238D01*
X3996Y1618D02*
X4075D01*
Y1568D02*
Y1618D01*
X3996Y1568D02*
X4075D01*
X3996D02*
Y1618D01*
X4289Y4330D02*
Y4380D01*
X4211D02*
X4289D01*
X4211Y4330D02*
Y4380D01*
Y4330D02*
X4289D01*
Y3630D02*
Y3680D01*
X4211D02*
X4289D01*
X4211Y3630D02*
Y3680D01*
Y3630D02*
X4289D01*
X3996Y918D02*
X4075D01*
Y868D02*
Y918D01*
X3996Y868D02*
X4075D01*
X3996D02*
Y918D01*
X4289Y2230D02*
Y2280D01*
X4211D02*
X4289D01*
X4211Y2230D02*
Y2280D01*
Y2230D02*
X4289D01*
Y2365D02*
Y2415D01*
X4211D02*
X4289D01*
X4211Y2365D02*
Y2415D01*
Y2365D02*
X4289D01*
X4211Y4641D02*
Y4690D01*
Y4641D02*
X4289D01*
Y4690D01*
X4211D02*
X4289D01*
X4210Y5343D02*
Y5392D01*
Y5343D02*
X4289D01*
Y5392D01*
X4210D02*
X4289D01*
X4289Y2930D02*
Y2980D01*
X4211D02*
X4289D01*
X4211Y2930D02*
Y2980D01*
Y2930D02*
X4289D01*
X4289Y5032D02*
Y5082D01*
X4210D02*
X4289D01*
X4210Y5032D02*
Y5082D01*
Y5032D02*
X4289D01*
X4006Y3836D02*
X4084D01*
Y3786D02*
Y3836D01*
X4006Y3786D02*
X4084D01*
X4006D02*
Y3836D01*
Y1736D02*
X4084D01*
Y1686D02*
Y1736D01*
X4006Y1686D02*
X4084D01*
X4006D02*
Y1736D01*
X4211Y3367D02*
Y3416D01*
Y3367D02*
X4289D01*
Y3416D01*
X4211D02*
X4289D01*
X4211Y4067D02*
Y4116D01*
Y4067D02*
X4289D01*
Y4116D01*
X4211D02*
X4289D01*
X4211Y3241D02*
Y3290D01*
Y3241D02*
X4289D01*
Y3290D01*
X4211D02*
X4289D01*
X3249Y5143D02*
X3328D01*
Y5093D02*
Y5143D01*
X3249Y5093D02*
X3328D01*
X3249D02*
Y5143D01*
X4006Y4536D02*
X4084D01*
Y4486D02*
Y4536D01*
X4006Y4486D02*
X4084D01*
X4006D02*
Y4536D01*
X4211Y3941D02*
Y3990D01*
Y3941D02*
X4289D01*
Y3990D01*
X4211D02*
X4289D01*
X4006Y1036D02*
X4084D01*
Y986D02*
Y1036D01*
X4006Y986D02*
X4084D01*
X4006D02*
Y1036D01*
X4211Y2667D02*
Y2716D01*
Y2667D02*
X4289D01*
Y2716D01*
X4211D02*
X4289D01*
X3996Y218D02*
X4075D01*
Y168D02*
Y218D01*
X3996Y168D02*
X4075D01*
X3996D02*
Y218D01*
X2104Y4780D02*
Y4830D01*
X2026D02*
X2104D01*
X2026Y4780D02*
Y4830D01*
Y4780D02*
X2104D01*
X2241Y4741D02*
X2291Y4791D01*
X2241Y4389D02*
Y4791D01*
Y4389D02*
X2450D01*
Y4791D01*
X2241D02*
X2450D01*
X2026Y836D02*
Y886D01*
Y836D02*
X2104D01*
Y886D01*
X2026D02*
X2104D01*
X2026Y2236D02*
Y2286D01*
Y2236D02*
X2104D01*
Y2286D01*
X2026D02*
X2104D01*
X2241Y2641D02*
X2291Y2691D01*
X2241Y2289D02*
Y2691D01*
Y2289D02*
X2450D01*
Y2691D01*
X2241D02*
X2450D01*
X2241Y3341D02*
X2291Y3391D01*
X2241Y2989D02*
Y3391D01*
Y2989D02*
X2450D01*
Y3391D01*
X2241D02*
X2450D01*
X2104Y1280D02*
Y1330D01*
X2026D02*
X2104D01*
X2026Y1280D02*
Y1330D01*
Y1280D02*
X2104D01*
Y225D02*
Y275D01*
X2026D02*
X2104D01*
X2026Y225D02*
Y275D01*
Y225D02*
X2104D01*
X2664Y3995D02*
Y4045D01*
X2586D02*
X2664D01*
X2586Y3995D02*
Y4045D01*
Y3995D02*
X2664D01*
X2025Y5038D02*
Y5088D01*
Y5038D02*
X2104D01*
Y5088D01*
X2025D02*
X2104D01*
X2240Y5443D02*
X2290Y5493D01*
X2240Y5091D02*
Y5493D01*
Y5091D02*
X2449D01*
Y5493D01*
X2240D02*
X2449D01*
X2026Y1900D02*
Y1950D01*
Y1900D02*
X2104D01*
Y1950D01*
X2026D02*
X2104D01*
X2586Y1615D02*
Y1665D01*
Y1615D02*
X2664D01*
Y1665D01*
X2586D02*
X2664D01*
X2104Y2680D02*
Y2730D01*
X2026D02*
X2104D01*
X2026Y2680D02*
Y2730D01*
Y2680D02*
X2104D01*
X2026Y4000D02*
Y4050D01*
Y4000D02*
X2104D01*
Y4050D01*
X2026D02*
X2104D01*
X2241Y1941D02*
X2291Y1991D01*
X2241Y1589D02*
Y1991D01*
Y1589D02*
X2450D01*
Y1991D01*
X2241D02*
X2450D01*
X2104Y1980D02*
Y2030D01*
X2026D02*
X2104D01*
X2026Y1980D02*
Y2030D01*
Y1980D02*
X2104D01*
X2026Y4700D02*
Y4750D01*
Y4700D02*
X2104D01*
Y4750D01*
X2026D02*
X2104D01*
X2664Y495D02*
Y545D01*
X2586D02*
X2664D01*
X2586Y495D02*
Y545D01*
Y495D02*
X2664D01*
X2026Y3300D02*
Y3350D01*
Y3300D02*
X2104D01*
Y3350D01*
X2026D02*
X2104D01*
X2664Y2595D02*
Y2645D01*
X2586D02*
X2664D01*
X2586Y2595D02*
Y2645D01*
Y2595D02*
X2664D01*
X2586Y915D02*
Y965D01*
Y915D02*
X2664D01*
Y965D01*
X2586D02*
X2664D01*
X2104Y1625D02*
Y1675D01*
X2026D02*
X2104D01*
X2026Y1625D02*
Y1675D01*
Y1625D02*
X2104D01*
Y3725D02*
Y3775D01*
X2026D02*
X2104D01*
X2026Y3725D02*
Y3775D01*
Y3725D02*
X2104D01*
X2586Y215D02*
Y265D01*
Y215D02*
X2664D01*
Y265D01*
X2586D02*
X2664D01*
Y1895D02*
Y1945D01*
X2586D02*
X2664D01*
X2586Y1895D02*
Y1945D01*
Y1895D02*
X2664D01*
X2586Y4415D02*
Y4465D01*
Y4415D02*
X2664D01*
Y4465D01*
X2586D02*
X2664D01*
X2025Y5402D02*
Y5452D01*
Y5402D02*
X2104D01*
Y5452D01*
X2025D02*
X2104D01*
X2104Y2325D02*
Y2375D01*
X2026D02*
X2104D01*
X2026Y2325D02*
Y2375D01*
Y2325D02*
X2104D01*
X2104Y5127D02*
Y5177D01*
X2025D02*
X2104D01*
X2025Y5127D02*
Y5177D01*
Y5127D02*
X2104D01*
X2664Y3295D02*
Y3345D01*
X2586D02*
X2664D01*
X2586Y3295D02*
Y3345D01*
Y3295D02*
X2664D01*
Y1195D02*
Y1245D01*
X2586D02*
X2664D01*
X2586Y1195D02*
Y1245D01*
Y1195D02*
X2664D01*
Y4695D02*
Y4745D01*
X2586D02*
X2664D01*
X2586Y4695D02*
Y4745D01*
Y4695D02*
X2664D01*
X2026Y136D02*
Y186D01*
Y136D02*
X2104D01*
Y186D01*
X2026D02*
X2104D01*
X2585Y5117D02*
Y5167D01*
Y5117D02*
X2664D01*
Y5167D01*
X2585D02*
X2664D01*
X2104Y4425D02*
Y4475D01*
X2026D02*
X2104D01*
X2026Y4425D02*
Y4475D01*
Y4425D02*
X2104D01*
X2104Y5482D02*
Y5532D01*
X2025D02*
X2104D01*
X2025Y5482D02*
Y5532D01*
Y5482D02*
X2104D01*
X2026Y1536D02*
Y1586D01*
Y1536D02*
X2104D01*
Y1586D01*
X2026D02*
X2104D01*
Y925D02*
Y975D01*
X2026D02*
X2104D01*
X2026Y925D02*
Y975D01*
Y925D02*
X2104D01*
X2026Y4336D02*
Y4386D01*
Y4336D02*
X2104D01*
Y4386D01*
X2026D02*
X2104D01*
X2026Y2600D02*
Y2650D01*
Y2600D02*
X2104D01*
Y2650D01*
X2026D02*
X2104D01*
X2241Y541D02*
X2291Y591D01*
X2241Y189D02*
Y591D01*
Y189D02*
X2450D01*
Y591D01*
X2241D02*
X2450D01*
X2026Y2936D02*
Y2986D01*
Y2936D02*
X2104D01*
Y2986D01*
X2026D02*
X2104D01*
X2241Y4041D02*
X2291Y4091D01*
X2241Y3689D02*
Y4091D01*
Y3689D02*
X2450D01*
Y4091D01*
X2241D02*
X2450D01*
X2026Y3636D02*
Y3686D01*
Y3636D02*
X2104D01*
Y3686D01*
X2026D02*
X2104D01*
X2026Y1200D02*
Y1250D01*
Y1200D02*
X2104D01*
Y1250D01*
X2026D02*
X2104D01*
X2026Y500D02*
Y550D01*
Y500D02*
X2104D01*
Y550D01*
X2026D02*
X2104D01*
Y4080D02*
Y4130D01*
X2026D02*
X2104D01*
X2026Y4080D02*
Y4130D01*
Y4080D02*
X2104D01*
Y3380D02*
Y3430D01*
X2026D02*
X2104D01*
X2026Y3380D02*
Y3430D01*
Y3380D02*
X2104D01*
X2241Y1291D02*
X2450D01*
Y889D02*
Y1291D01*
X2241Y889D02*
X2450D01*
X2241D02*
Y1291D01*
Y1241D02*
X2291Y1291D01*
X2104Y3025D02*
Y3075D01*
X2026D02*
X2104D01*
X2026Y3025D02*
Y3075D01*
Y3025D02*
X2104D01*
X2586Y3715D02*
Y3765D01*
Y3715D02*
X2664D01*
Y3765D01*
X2586D02*
X2664D01*
X2664Y5397D02*
Y5447D01*
X2585D02*
X2664D01*
X2585Y5397D02*
Y5447D01*
Y5397D02*
X2664D01*
X2586Y3015D02*
Y3065D01*
Y3015D02*
X2664D01*
Y3065D01*
X2586D02*
X2664D01*
X2104Y580D02*
Y630D01*
X2026D02*
X2104D01*
X2026Y580D02*
Y630D01*
Y580D02*
X2104D01*
X2586Y2315D02*
Y2365D01*
Y2315D02*
X2664D01*
Y2365D01*
X2586D02*
X2664D01*
X4006Y336D02*
X4084D01*
Y286D02*
Y336D01*
X4006Y286D02*
X4084D01*
X4006D02*
Y336D01*
X3248Y5223D02*
X3327D01*
Y5174D02*
Y5223D01*
X3248Y5174D02*
X3327D01*
X3248D02*
Y5223D01*
X3249Y4521D02*
X3327D01*
Y4472D02*
Y4521D01*
X3249Y4472D02*
X3327D01*
X3249D02*
Y4521D01*
Y3821D02*
X3327D01*
Y3772D02*
Y3821D01*
X3249Y3772D02*
X3327D01*
X3249D02*
Y3821D01*
Y3121D02*
X3327D01*
Y3072D02*
Y3121D01*
X3249Y3072D02*
X3327D01*
X3249D02*
Y3121D01*
Y2421D02*
X3327D01*
Y2372D02*
Y2421D01*
X3249Y2372D02*
X3327D01*
X3249D02*
Y2421D01*
Y1721D02*
X3327D01*
Y1672D02*
Y1721D01*
X3249Y1672D02*
X3327D01*
X3249D02*
Y1721D01*
Y1021D02*
X3327D01*
Y972D02*
Y1021D01*
X3249Y972D02*
X3327D01*
X3249D02*
Y1021D01*
Y321D02*
X3327D01*
Y272D02*
Y321D01*
X3249Y272D02*
X3327D01*
X3249D02*
Y321D01*
X3990Y5352D02*
X4069D01*
Y5303D02*
Y5352D01*
X3990Y5303D02*
X4069D01*
X3990D02*
Y5352D01*
X3991Y4650D02*
X4069D01*
Y4601D02*
Y4650D01*
X3991Y4601D02*
X4069D01*
X3991D02*
Y4650D01*
Y3950D02*
X4069D01*
Y3901D02*
Y3950D01*
X3991Y3901D02*
X4069D01*
X3991D02*
Y3950D01*
Y3250D02*
X4069D01*
Y3201D02*
Y3250D01*
X3991Y3201D02*
X4069D01*
X3991D02*
Y3250D01*
Y2550D02*
X4069D01*
Y2501D02*
Y2550D01*
X3991Y2501D02*
X4069D01*
X3991D02*
Y2550D01*
Y1850D02*
X4069D01*
Y1801D02*
Y1850D01*
X3991Y1801D02*
X4069D01*
X3991D02*
Y1850D01*
Y1150D02*
X4069D01*
Y1101D02*
Y1150D01*
X3991Y1101D02*
X4069D01*
X3991D02*
Y1150D01*
Y450D02*
X4069D01*
Y401D02*
Y450D01*
X3991Y401D02*
X4069D01*
X3991D02*
Y450D01*
X3248Y5343D02*
X3327D01*
Y5294D02*
Y5343D01*
X3248Y5294D02*
X3327D01*
X3248D02*
Y5343D01*
X3249Y4641D02*
X3327D01*
Y4592D02*
Y4641D01*
X3249Y4592D02*
X3327D01*
X3249D02*
Y4641D01*
Y3941D02*
X3327D01*
Y3892D02*
Y3941D01*
X3249Y3892D02*
X3327D01*
X3249D02*
Y3941D01*
Y3241D02*
X3327D01*
Y3192D02*
Y3241D01*
X3249Y3192D02*
X3327D01*
X3249D02*
Y3241D01*
Y2541D02*
X3327D01*
Y2492D02*
Y2541D01*
X3249Y2492D02*
X3327D01*
X3249D02*
Y2541D01*
Y1841D02*
X3327D01*
Y1792D02*
Y1841D01*
X3249Y1792D02*
X3327D01*
X3249D02*
Y1841D01*
Y1141D02*
X3327D01*
Y1092D02*
Y1141D01*
X3249Y1092D02*
X3327D01*
X3249D02*
Y1141D01*
Y441D02*
X3327D01*
Y392D02*
Y441D01*
X3249Y392D02*
X3327D01*
X3249D02*
Y441D01*
X3990Y5447D02*
X4069D01*
Y5397D02*
Y5447D01*
X3990Y5397D02*
X4069D01*
X3990D02*
Y5447D01*
X3991Y4745D02*
X4069D01*
Y4695D02*
Y4745D01*
X3991Y4695D02*
X4069D01*
X3991D02*
Y4745D01*
Y4045D02*
X4069D01*
Y3995D02*
Y4045D01*
X3991Y3995D02*
X4069D01*
X3991D02*
Y4045D01*
Y3345D02*
X4069D01*
Y3295D02*
Y3345D01*
X3991Y3295D02*
X4069D01*
X3991D02*
Y3345D01*
Y2645D02*
X4069D01*
Y2595D02*
Y2645D01*
X3991Y2595D02*
X4069D01*
X3991D02*
Y2645D01*
Y1945D02*
X4069D01*
Y1895D02*
Y1945D01*
X3991Y1895D02*
X4069D01*
X3991D02*
Y1945D01*
Y1245D02*
X4069D01*
Y1195D02*
Y1245D01*
X3991Y1195D02*
X4069D01*
X3991D02*
Y1245D01*
Y545D02*
X4069D01*
Y495D02*
Y545D01*
X3991Y495D02*
X4069D01*
X3991D02*
Y545D01*
X3252Y5438D02*
X3330D01*
Y5388D02*
Y5438D01*
X3252Y5388D02*
X3330D01*
X3252D02*
Y5438D01*
X3252Y4736D02*
X3331D01*
Y4686D02*
Y4736D01*
X3252Y4686D02*
X3331D01*
X3252D02*
Y4736D01*
Y4036D02*
X3331D01*
Y3986D02*
Y4036D01*
X3252Y3986D02*
X3331D01*
X3252D02*
Y4036D01*
Y3336D02*
X3331D01*
Y3286D02*
Y3336D01*
X3252Y3286D02*
X3331D01*
X3252D02*
Y3336D01*
Y2636D02*
X3331D01*
Y2586D02*
Y2636D01*
X3252Y2586D02*
X3331D01*
X3252D02*
Y2636D01*
Y1936D02*
X3331D01*
Y1886D02*
Y1936D01*
X3252Y1886D02*
X3331D01*
X3252D02*
Y1936D01*
Y1236D02*
X3331D01*
Y1186D02*
Y1236D01*
X3252Y1186D02*
X3331D01*
X3252D02*
Y1236D01*
Y536D02*
X3331D01*
Y486D02*
Y536D01*
X3252Y486D02*
X3331D01*
X3252D02*
Y536D01*
X3672Y5414D02*
X3845D01*
Y5107D02*
Y5414D01*
X3672Y5107D02*
X3845D01*
X3672D02*
Y5414D01*
Y5389D02*
X3698Y5414D01*
X3673Y4712D02*
X3846D01*
Y4405D02*
Y4712D01*
X3673Y4405D02*
X3846D01*
X3673D02*
Y4712D01*
Y4687D02*
X3698Y4712D01*
X3673Y4012D02*
X3846D01*
Y3705D02*
Y4012D01*
X3673Y3705D02*
X3846D01*
X3673D02*
Y4012D01*
Y3987D02*
X3698Y4012D01*
X3673Y3312D02*
X3846D01*
Y3005D02*
Y3312D01*
X3673Y3005D02*
X3846D01*
X3673D02*
Y3312D01*
Y3287D02*
X3698Y3312D01*
X3673Y2587D02*
X3698Y2612D01*
X3673Y2305D02*
Y2612D01*
Y2305D02*
X3846D01*
Y2612D01*
X3673D02*
X3846D01*
X3673Y1912D02*
X3846D01*
Y1605D02*
Y1912D01*
X3673Y1605D02*
X3846D01*
X3673D02*
Y1912D01*
Y1887D02*
X3698Y1912D01*
X3673Y1212D02*
X3846D01*
Y905D02*
Y1212D01*
X3673Y905D02*
X3846D01*
X3673D02*
Y1212D01*
Y1187D02*
X3698Y1212D01*
X3673Y512D02*
X3846D01*
Y205D02*
Y512D01*
X3673Y205D02*
X3846D01*
X3673D02*
Y512D01*
Y487D02*
X3698Y512D01*
D15*
X4902Y505D02*
D03*
Y455D02*
D03*
Y405D02*
D03*
Y355D02*
D03*
Y305D02*
D03*
Y255D02*
D03*
Y205D02*
D03*
Y155D02*
D03*
X4688D02*
D03*
Y205D02*
D03*
Y255D02*
D03*
Y305D02*
D03*
Y355D02*
D03*
Y405D02*
D03*
Y455D02*
D03*
Y505D02*
D03*
Y1205D02*
D03*
Y1155D02*
D03*
Y1105D02*
D03*
Y1055D02*
D03*
Y1005D02*
D03*
Y955D02*
D03*
Y905D02*
D03*
Y855D02*
D03*
X4902D02*
D03*
Y905D02*
D03*
Y955D02*
D03*
Y1005D02*
D03*
Y1055D02*
D03*
Y1105D02*
D03*
Y1155D02*
D03*
Y1205D02*
D03*
Y1905D02*
D03*
Y1855D02*
D03*
Y1805D02*
D03*
Y1755D02*
D03*
Y1705D02*
D03*
Y1655D02*
D03*
Y1605D02*
D03*
Y1555D02*
D03*
X4688D02*
D03*
Y1605D02*
D03*
Y1655D02*
D03*
Y1705D02*
D03*
Y1755D02*
D03*
Y1805D02*
D03*
Y1855D02*
D03*
Y1905D02*
D03*
X4902Y2605D02*
D03*
Y2555D02*
D03*
Y2505D02*
D03*
Y2455D02*
D03*
Y2405D02*
D03*
Y2355D02*
D03*
Y2305D02*
D03*
Y2255D02*
D03*
X4688D02*
D03*
Y2305D02*
D03*
Y2355D02*
D03*
Y2405D02*
D03*
Y2455D02*
D03*
Y2505D02*
D03*
Y2555D02*
D03*
Y2605D02*
D03*
X4902Y3305D02*
D03*
Y3255D02*
D03*
Y3205D02*
D03*
Y3155D02*
D03*
Y3105D02*
D03*
Y3055D02*
D03*
Y3005D02*
D03*
Y2955D02*
D03*
X4688D02*
D03*
Y3005D02*
D03*
Y3055D02*
D03*
Y3105D02*
D03*
Y3155D02*
D03*
Y3205D02*
D03*
Y3255D02*
D03*
Y3305D02*
D03*
X4902Y4005D02*
D03*
Y3955D02*
D03*
Y3905D02*
D03*
Y3855D02*
D03*
Y3805D02*
D03*
Y3755D02*
D03*
Y3705D02*
D03*
Y3655D02*
D03*
X4688D02*
D03*
Y3705D02*
D03*
Y3755D02*
D03*
Y3805D02*
D03*
Y3855D02*
D03*
Y3905D02*
D03*
Y3955D02*
D03*
Y4005D02*
D03*
X4902Y4705D02*
D03*
Y4655D02*
D03*
Y4605D02*
D03*
Y4555D02*
D03*
Y4505D02*
D03*
Y4455D02*
D03*
Y4405D02*
D03*
Y4355D02*
D03*
X4688D02*
D03*
Y4405D02*
D03*
Y4455D02*
D03*
Y4505D02*
D03*
Y4555D02*
D03*
Y4605D02*
D03*
Y4655D02*
D03*
Y4705D02*
D03*
X4902Y5407D02*
D03*
Y5357D02*
D03*
Y5307D02*
D03*
Y5257D02*
D03*
Y5207D02*
D03*
Y5157D02*
D03*
Y5107D02*
D03*
Y5057D02*
D03*
X4687D02*
D03*
Y5107D02*
D03*
Y5157D02*
D03*
Y5207D02*
D03*
Y5257D02*
D03*
Y5307D02*
D03*
Y5357D02*
D03*
Y5407D02*
D03*
D16*
X5205Y216D02*
D03*
Y242D02*
D03*
Y267D02*
D03*
Y293D02*
D03*
Y319D02*
D03*
Y344D02*
D03*
Y370D02*
D03*
X5436D02*
D03*
Y344D02*
D03*
Y319D02*
D03*
Y293D02*
D03*
Y267D02*
D03*
Y242D02*
D03*
Y216D02*
D03*
X5205Y916D02*
D03*
Y942D02*
D03*
Y967D02*
D03*
Y993D02*
D03*
Y1019D02*
D03*
Y1044D02*
D03*
Y1070D02*
D03*
X5436D02*
D03*
Y1044D02*
D03*
Y1019D02*
D03*
Y993D02*
D03*
Y967D02*
D03*
Y942D02*
D03*
Y916D02*
D03*
X5205Y1616D02*
D03*
Y1642D02*
D03*
Y1667D02*
D03*
Y1693D02*
D03*
Y1719D02*
D03*
Y1744D02*
D03*
Y1770D02*
D03*
X5436D02*
D03*
Y1744D02*
D03*
Y1719D02*
D03*
Y1693D02*
D03*
Y1667D02*
D03*
Y1642D02*
D03*
Y1616D02*
D03*
X5205Y2316D02*
D03*
Y2342D02*
D03*
Y2367D02*
D03*
Y2393D02*
D03*
Y2419D02*
D03*
Y2444D02*
D03*
Y2470D02*
D03*
X5436D02*
D03*
Y2444D02*
D03*
Y2419D02*
D03*
Y2393D02*
D03*
Y2367D02*
D03*
Y2342D02*
D03*
Y2316D02*
D03*
X5205Y3016D02*
D03*
Y3042D02*
D03*
Y3067D02*
D03*
Y3093D02*
D03*
Y3119D02*
D03*
Y3144D02*
D03*
Y3170D02*
D03*
X5436D02*
D03*
Y3144D02*
D03*
Y3119D02*
D03*
Y3093D02*
D03*
Y3067D02*
D03*
Y3042D02*
D03*
Y3016D02*
D03*
X5205Y3716D02*
D03*
Y3742D02*
D03*
Y3767D02*
D03*
Y3793D02*
D03*
Y3819D02*
D03*
Y3844D02*
D03*
Y3870D02*
D03*
X5436D02*
D03*
Y3844D02*
D03*
Y3819D02*
D03*
Y3793D02*
D03*
Y3767D02*
D03*
Y3742D02*
D03*
Y3716D02*
D03*
X5205Y4416D02*
D03*
Y4442D02*
D03*
Y4467D02*
D03*
Y4493D02*
D03*
Y4519D02*
D03*
Y4544D02*
D03*
Y4570D02*
D03*
X5436D02*
D03*
Y4544D02*
D03*
Y4519D02*
D03*
Y4493D02*
D03*
Y4467D02*
D03*
Y4442D02*
D03*
Y4416D02*
D03*
X5204Y5118D02*
D03*
Y5144D02*
D03*
Y5169D02*
D03*
Y5195D02*
D03*
Y5221D02*
D03*
Y5246D02*
D03*
Y5272D02*
D03*
X5436D02*
D03*
Y5246D02*
D03*
Y5221D02*
D03*
Y5195D02*
D03*
Y5169D02*
D03*
Y5144D02*
D03*
Y5118D02*
D03*
X3643Y5402D02*
D03*
Y5376D02*
D03*
Y5350D02*
D03*
Y5325D02*
D03*
Y5299D02*
D03*
Y5274D02*
D03*
Y5248D02*
D03*
Y5223D02*
D03*
Y5197D02*
D03*
Y5171D02*
D03*
Y5146D02*
D03*
Y5120D02*
D03*
X3874D02*
D03*
Y5146D02*
D03*
Y5171D02*
D03*
Y5197D02*
D03*
Y5223D02*
D03*
Y5248D02*
D03*
Y5274D02*
D03*
Y5299D02*
D03*
Y5325D02*
D03*
Y5350D02*
D03*
Y5376D02*
D03*
Y5402D02*
D03*
X3644Y4700D02*
D03*
Y4674D02*
D03*
Y4649D02*
D03*
Y4623D02*
D03*
Y4597D02*
D03*
Y4572D02*
D03*
Y4546D02*
D03*
Y4521D02*
D03*
Y4495D02*
D03*
Y4469D02*
D03*
Y4444D02*
D03*
Y4418D02*
D03*
X3875D02*
D03*
Y4444D02*
D03*
Y4469D02*
D03*
Y4495D02*
D03*
Y4521D02*
D03*
Y4546D02*
D03*
Y4572D02*
D03*
Y4597D02*
D03*
Y4623D02*
D03*
Y4649D02*
D03*
Y4674D02*
D03*
Y4700D02*
D03*
X3644Y4000D02*
D03*
Y3974D02*
D03*
Y3949D02*
D03*
Y3923D02*
D03*
Y3897D02*
D03*
Y3872D02*
D03*
Y3846D02*
D03*
Y3821D02*
D03*
Y3795D02*
D03*
Y3769D02*
D03*
Y3744D02*
D03*
Y3718D02*
D03*
X3875D02*
D03*
Y3744D02*
D03*
Y3769D02*
D03*
Y3795D02*
D03*
Y3821D02*
D03*
Y3846D02*
D03*
Y3872D02*
D03*
Y3897D02*
D03*
Y3923D02*
D03*
Y3949D02*
D03*
Y3974D02*
D03*
Y4000D02*
D03*
X3644Y3300D02*
D03*
Y3274D02*
D03*
Y3249D02*
D03*
Y3223D02*
D03*
Y3197D02*
D03*
Y3172D02*
D03*
Y3146D02*
D03*
Y3121D02*
D03*
Y3095D02*
D03*
Y3069D02*
D03*
Y3044D02*
D03*
Y3018D02*
D03*
X3875D02*
D03*
Y3044D02*
D03*
Y3069D02*
D03*
Y3095D02*
D03*
Y3121D02*
D03*
Y3146D02*
D03*
Y3172D02*
D03*
Y3197D02*
D03*
Y3223D02*
D03*
Y3249D02*
D03*
Y3274D02*
D03*
Y3300D02*
D03*
Y2600D02*
D03*
Y2574D02*
D03*
Y2549D02*
D03*
Y2523D02*
D03*
Y2497D02*
D03*
Y2472D02*
D03*
Y2446D02*
D03*
Y2421D02*
D03*
Y2395D02*
D03*
Y2369D02*
D03*
Y2344D02*
D03*
Y2318D02*
D03*
X3644D02*
D03*
Y2344D02*
D03*
Y2369D02*
D03*
Y2395D02*
D03*
Y2421D02*
D03*
Y2446D02*
D03*
Y2472D02*
D03*
Y2497D02*
D03*
Y2523D02*
D03*
Y2549D02*
D03*
Y2574D02*
D03*
Y2600D02*
D03*
Y1900D02*
D03*
Y1874D02*
D03*
Y1849D02*
D03*
Y1823D02*
D03*
Y1797D02*
D03*
Y1772D02*
D03*
Y1746D02*
D03*
Y1721D02*
D03*
Y1695D02*
D03*
Y1669D02*
D03*
Y1644D02*
D03*
Y1618D02*
D03*
X3875D02*
D03*
Y1644D02*
D03*
Y1669D02*
D03*
Y1695D02*
D03*
Y1721D02*
D03*
Y1746D02*
D03*
Y1772D02*
D03*
Y1797D02*
D03*
Y1823D02*
D03*
Y1849D02*
D03*
Y1874D02*
D03*
Y1900D02*
D03*
X3644Y1200D02*
D03*
Y1174D02*
D03*
Y1149D02*
D03*
Y1123D02*
D03*
Y1097D02*
D03*
Y1072D02*
D03*
Y1046D02*
D03*
Y1021D02*
D03*
Y995D02*
D03*
Y969D02*
D03*
Y944D02*
D03*
Y918D02*
D03*
X3875D02*
D03*
Y944D02*
D03*
Y969D02*
D03*
Y995D02*
D03*
Y1021D02*
D03*
Y1046D02*
D03*
Y1072D02*
D03*
Y1097D02*
D03*
Y1123D02*
D03*
Y1149D02*
D03*
Y1174D02*
D03*
Y1200D02*
D03*
X3644Y500D02*
D03*
Y474D02*
D03*
Y449D02*
D03*
Y423D02*
D03*
Y397D02*
D03*
Y372D02*
D03*
Y346D02*
D03*
Y321D02*
D03*
Y295D02*
D03*
Y269D02*
D03*
Y244D02*
D03*
Y218D02*
D03*
X3875D02*
D03*
Y244D02*
D03*
Y269D02*
D03*
Y295D02*
D03*
Y321D02*
D03*
Y346D02*
D03*
Y372D02*
D03*
Y397D02*
D03*
Y423D02*
D03*
Y449D02*
D03*
Y474D02*
D03*
Y500D02*
D03*
D17*
X4450Y602D02*
D03*
Y527D02*
D03*
Y382D02*
D03*
Y457D02*
D03*
Y165D02*
D03*
Y90D02*
D03*
Y238D02*
D03*
Y313D02*
D03*
Y1302D02*
D03*
Y1227D02*
D03*
Y1082D02*
D03*
Y1157D02*
D03*
Y865D02*
D03*
Y790D02*
D03*
Y938D02*
D03*
Y1013D02*
D03*
Y2002D02*
D03*
Y1927D02*
D03*
Y1782D02*
D03*
Y1857D02*
D03*
Y1565D02*
D03*
Y1490D02*
D03*
Y1638D02*
D03*
Y1713D02*
D03*
Y2702D02*
D03*
Y2627D02*
D03*
Y2482D02*
D03*
Y2557D02*
D03*
Y2265D02*
D03*
Y2190D02*
D03*
Y2338D02*
D03*
Y2413D02*
D03*
Y3402D02*
D03*
Y3327D02*
D03*
Y3182D02*
D03*
Y3257D02*
D03*
Y2965D02*
D03*
Y2890D02*
D03*
Y3038D02*
D03*
Y3113D02*
D03*
Y4102D02*
D03*
Y4027D02*
D03*
Y3882D02*
D03*
Y3957D02*
D03*
Y3665D02*
D03*
Y3590D02*
D03*
Y3738D02*
D03*
Y3813D02*
D03*
Y4802D02*
D03*
Y4727D02*
D03*
Y4582D02*
D03*
Y4657D02*
D03*
Y4365D02*
D03*
Y4290D02*
D03*
Y4438D02*
D03*
Y4513D02*
D03*
X4450Y5067D02*
D03*
Y4992D02*
D03*
Y5140D02*
D03*
Y5215D02*
D03*
Y5504D02*
D03*
Y5429D02*
D03*
Y5284D02*
D03*
Y5359D02*
D03*
D18*
X2664Y3405D02*
D03*
X2586D02*
D03*
X2664Y850D02*
D03*
X2586D02*
D03*
X2664Y1305D02*
D03*
X2586D02*
D03*
X2664Y5052D02*
D03*
X2585D02*
D03*
X2664Y2705D02*
D03*
X2586D02*
D03*
X2664Y2950D02*
D03*
X2586D02*
D03*
X2664Y2250D02*
D03*
X2586D02*
D03*
X2664Y4105D02*
D03*
X2586D02*
D03*
X2664Y150D02*
D03*
X2586D02*
D03*
X2664Y4805D02*
D03*
X2586D02*
D03*
X2664Y5507D02*
D03*
X2585D02*
D03*
X2664Y4350D02*
D03*
X2586D02*
D03*
X2664Y2005D02*
D03*
X2586D02*
D03*
X2664Y3650D02*
D03*
X2586D02*
D03*
X2664Y605D02*
D03*
X2586D02*
D03*
X2664Y1550D02*
D03*
X2586D02*
D03*
X3249Y4416D02*
D03*
X3328D02*
D03*
X3996Y4393D02*
D03*
X4075D02*
D03*
X3996Y3693D02*
D03*
X4075D02*
D03*
X3249Y3716D02*
D03*
X3328D02*
D03*
X3249Y1616D02*
D03*
X3328D02*
D03*
X3249Y2316D02*
D03*
X3328D02*
D03*
X3996Y5095D02*
D03*
X4074D02*
D03*
X3996Y2293D02*
D03*
X4075D02*
D03*
X4006Y3111D02*
D03*
X4084D02*
D03*
X3249Y3016D02*
D03*
X3328D02*
D03*
X3996Y2993D02*
D03*
X4075D02*
D03*
X3249Y916D02*
D03*
X3328D02*
D03*
X4006Y2411D02*
D03*
X4084D02*
D03*
X3249Y216D02*
D03*
X3328D02*
D03*
X4005Y5213D02*
D03*
X4084D02*
D03*
X3996Y1593D02*
D03*
X4075D02*
D03*
X3996Y893D02*
D03*
X4075D02*
D03*
X4006Y3811D02*
D03*
X4084D02*
D03*
X4006Y1711D02*
D03*
X4084D02*
D03*
X3249Y5118D02*
D03*
X3328D02*
D03*
X4006Y4511D02*
D03*
X4084D02*
D03*
X4006Y1011D02*
D03*
X4084D02*
D03*
X3996Y193D02*
D03*
X4075D02*
D03*
X2026Y4805D02*
D03*
X2104D02*
D03*
Y861D02*
D03*
X2026D02*
D03*
X2104Y2261D02*
D03*
X2026D02*
D03*
Y1305D02*
D03*
X2104D02*
D03*
X2026Y250D02*
D03*
X2104D02*
D03*
X2586Y4020D02*
D03*
X2664D02*
D03*
X2104Y5063D02*
D03*
X2025D02*
D03*
X2104Y1925D02*
D03*
X2026D02*
D03*
X2664Y1640D02*
D03*
X2586D02*
D03*
X2026Y2705D02*
D03*
X2104D02*
D03*
Y4025D02*
D03*
X2026D02*
D03*
Y2005D02*
D03*
X2104D02*
D03*
Y4725D02*
D03*
X2026D02*
D03*
X2586Y520D02*
D03*
X2664D02*
D03*
X2104Y3325D02*
D03*
X2026D02*
D03*
X2586Y2620D02*
D03*
X2664D02*
D03*
Y940D02*
D03*
X2586D02*
D03*
X2026Y1650D02*
D03*
X2104D02*
D03*
X2026Y3750D02*
D03*
X2104D02*
D03*
X2664Y240D02*
D03*
X2586D02*
D03*
Y1920D02*
D03*
X2664D02*
D03*
Y4440D02*
D03*
X2586D02*
D03*
X2104Y5427D02*
D03*
X2025D02*
D03*
X2026Y2350D02*
D03*
X2104D02*
D03*
X2025Y5152D02*
D03*
X2104D02*
D03*
X2586Y3320D02*
D03*
X2664D02*
D03*
X2586Y1220D02*
D03*
X2664D02*
D03*
X2586Y4720D02*
D03*
X2664D02*
D03*
X2104Y161D02*
D03*
X2026D02*
D03*
X2664Y5142D02*
D03*
X2585D02*
D03*
X2026Y4450D02*
D03*
X2104D02*
D03*
X2025Y5507D02*
D03*
X2104D02*
D03*
X2104Y1561D02*
D03*
X2026D02*
D03*
Y950D02*
D03*
X2104D02*
D03*
Y4361D02*
D03*
X2026D02*
D03*
X2104Y2625D02*
D03*
X2026D02*
D03*
X2104Y2961D02*
D03*
X2026D02*
D03*
X2104Y3661D02*
D03*
X2026D02*
D03*
X2104Y1225D02*
D03*
X2026D02*
D03*
X2104Y525D02*
D03*
X2026D02*
D03*
Y4105D02*
D03*
X2104D02*
D03*
X2026Y3405D02*
D03*
X2104D02*
D03*
X2026Y3050D02*
D03*
X2104D02*
D03*
X2664Y3740D02*
D03*
X2586D02*
D03*
X2585Y5422D02*
D03*
X2664D02*
D03*
X2664Y3040D02*
D03*
X2586D02*
D03*
X2026Y605D02*
D03*
X2104D02*
D03*
X2664Y2340D02*
D03*
X2586D02*
D03*
X4006Y311D02*
D03*
X4084D02*
D03*
X3248Y5199D02*
D03*
X3327D02*
D03*
X3249Y4497D02*
D03*
X3327D02*
D03*
X3249Y3797D02*
D03*
X3327D02*
D03*
X3249Y3097D02*
D03*
X3327D02*
D03*
X3249Y2397D02*
D03*
X3327D02*
D03*
X3249Y1697D02*
D03*
X3327D02*
D03*
X3249Y997D02*
D03*
X3327D02*
D03*
X3249Y297D02*
D03*
X3327D02*
D03*
X3990Y5328D02*
D03*
X4069D02*
D03*
X3991Y4626D02*
D03*
X4069D02*
D03*
X3991Y3926D02*
D03*
X4069D02*
D03*
X3991Y3226D02*
D03*
X4069D02*
D03*
X3991Y2526D02*
D03*
X4069D02*
D03*
X3991Y1826D02*
D03*
X4069D02*
D03*
X3991Y1126D02*
D03*
X4069D02*
D03*
X3991Y426D02*
D03*
X4069D02*
D03*
X3248Y5319D02*
D03*
X3327D02*
D03*
X3249Y4617D02*
D03*
X3327D02*
D03*
X3249Y3917D02*
D03*
X3327D02*
D03*
X3249Y3217D02*
D03*
X3327D02*
D03*
X3249Y2517D02*
D03*
X3327D02*
D03*
X3249Y1817D02*
D03*
X3327D02*
D03*
X3249Y1117D02*
D03*
X3327D02*
D03*
X3249Y417D02*
D03*
X3327D02*
D03*
X3990Y5422D02*
D03*
X4069D02*
D03*
X3991Y4720D02*
D03*
X4069D02*
D03*
X3991Y4020D02*
D03*
X4069D02*
D03*
X3991Y3320D02*
D03*
X4069D02*
D03*
X3991Y2620D02*
D03*
X4069D02*
D03*
X3991Y1920D02*
D03*
X4069D02*
D03*
X3991Y1220D02*
D03*
X4069D02*
D03*
X3991Y520D02*
D03*
X4069D02*
D03*
X3252Y5413D02*
D03*
X3330D02*
D03*
X3252Y4711D02*
D03*
X3331D02*
D03*
X3252Y4011D02*
D03*
X3331D02*
D03*
X3252Y3311D02*
D03*
X3331D02*
D03*
X3252Y2611D02*
D03*
X3331D02*
D03*
X3252Y1911D02*
D03*
X3331D02*
D03*
X3252Y1211D02*
D03*
X3331D02*
D03*
X3252Y511D02*
D03*
X3331D02*
D03*
D19*
X3479Y2543D02*
D03*
Y2479D02*
D03*
X3479Y5345D02*
D03*
Y5281D02*
D03*
X3479Y4643D02*
D03*
Y4579D02*
D03*
Y3943D02*
D03*
Y3879D02*
D03*
Y1143D02*
D03*
Y1079D02*
D03*
Y443D02*
D03*
Y379D02*
D03*
Y1843D02*
D03*
Y1779D02*
D03*
Y3243D02*
D03*
Y3179D02*
D03*
X2075Y4612D02*
D03*
Y4548D02*
D03*
Y1812D02*
D03*
Y1748D02*
D03*
Y1112D02*
D03*
Y1048D02*
D03*
Y412D02*
D03*
Y348D02*
D03*
X2595Y3212D02*
D03*
Y3148D02*
D03*
X2075Y3912D02*
D03*
Y3848D02*
D03*
X2075Y5314D02*
D03*
Y5250D02*
D03*
X2075Y3212D02*
D03*
Y3148D02*
D03*
Y2512D02*
D03*
Y2448D02*
D03*
X2595Y5314D02*
D03*
Y5250D02*
D03*
X2595Y412D02*
D03*
Y348D02*
D03*
Y3912D02*
D03*
Y3848D02*
D03*
Y4612D02*
D03*
Y4548D02*
D03*
Y1112D02*
D03*
Y1048D02*
D03*
Y2512D02*
D03*
Y2448D02*
D03*
Y1812D02*
D03*
Y1748D02*
D03*
X3485Y5123D02*
D03*
Y5187D02*
D03*
X3485Y4421D02*
D03*
Y4485D02*
D03*
Y3721D02*
D03*
Y3785D02*
D03*
Y3021D02*
D03*
Y3085D02*
D03*
Y2321D02*
D03*
Y2385D02*
D03*
Y1621D02*
D03*
Y1685D02*
D03*
Y921D02*
D03*
Y985D02*
D03*
Y221D02*
D03*
Y285D02*
D03*
X3480Y5408D02*
D03*
Y5472D02*
D03*
X3480Y4706D02*
D03*
Y4770D02*
D03*
Y4006D02*
D03*
Y4070D02*
D03*
Y3306D02*
D03*
Y3370D02*
D03*
Y2606D02*
D03*
Y2670D02*
D03*
Y1906D02*
D03*
Y1970D02*
D03*
Y1206D02*
D03*
Y1270D02*
D03*
Y506D02*
D03*
Y570D02*
D03*
X5225Y5448D02*
D03*
Y5384D02*
D03*
X5225Y4746D02*
D03*
Y4682D02*
D03*
Y4046D02*
D03*
Y3982D02*
D03*
Y3346D02*
D03*
Y3282D02*
D03*
Y2646D02*
D03*
Y2582D02*
D03*
Y1946D02*
D03*
Y1882D02*
D03*
Y1246D02*
D03*
Y1182D02*
D03*
Y546D02*
D03*
Y482D02*
D03*
X5440Y5333D02*
D03*
Y5397D02*
D03*
X5440Y4631D02*
D03*
Y4695D02*
D03*
Y3931D02*
D03*
Y3995D02*
D03*
Y3231D02*
D03*
Y3295D02*
D03*
Y2531D02*
D03*
Y2595D02*
D03*
Y1831D02*
D03*
Y1895D02*
D03*
Y1131D02*
D03*
Y1195D02*
D03*
Y431D02*
D03*
Y495D02*
D03*
D20*
X4212Y5192D02*
D03*
X4287D02*
D03*
X4213Y290D02*
D03*
X4287D02*
D03*
X4213Y855D02*
D03*
X4287D02*
D03*
Y1865D02*
D03*
X4213D02*
D03*
Y155D02*
D03*
X4287D02*
D03*
X4213Y990D02*
D03*
X4287D02*
D03*
Y591D02*
D03*
X4213D02*
D03*
Y3090D02*
D03*
X4287D02*
D03*
X4213Y3790D02*
D03*
X4287D02*
D03*
X4213Y1555D02*
D03*
X4287D02*
D03*
X4213Y4490D02*
D03*
X4287D02*
D03*
Y4791D02*
D03*
X4213D02*
D03*
X4287Y1165D02*
D03*
X4213D02*
D03*
X4287Y2565D02*
D03*
X4213D02*
D03*
Y1690D02*
D03*
X4287D02*
D03*
Y1991D02*
D03*
X4213D02*
D03*
X4287Y465D02*
D03*
X4213D02*
D03*
X4287Y5493D02*
D03*
X4212D02*
D03*
X4287Y1291D02*
D03*
X4213D02*
D03*
Y4355D02*
D03*
X4287D02*
D03*
X4213Y3655D02*
D03*
X4287D02*
D03*
X4213Y2255D02*
D03*
X4287D02*
D03*
X4213Y2390D02*
D03*
X4287D02*
D03*
Y4665D02*
D03*
X4213D02*
D03*
X4287Y5367D02*
D03*
X4212D02*
D03*
X4213Y2955D02*
D03*
X4287D02*
D03*
X4212Y5057D02*
D03*
X4287D02*
D03*
X4287Y3391D02*
D03*
X4213D02*
D03*
X4287Y4091D02*
D03*
X4213D02*
D03*
X4287Y3265D02*
D03*
X4213D02*
D03*
X4287Y3965D02*
D03*
X4213D02*
D03*
X4287Y2691D02*
D03*
X4213D02*
D03*
D21*
X3531Y141D02*
D03*
X3595D02*
D03*
X3531Y841D02*
D03*
X3595D02*
D03*
X3531Y1541D02*
D03*
X3595D02*
D03*
X3531Y2241D02*
D03*
X3595D02*
D03*
X3531Y2941D02*
D03*
X3595D02*
D03*
X3531Y3641D02*
D03*
X3595D02*
D03*
X3530Y5043D02*
D03*
X3594D02*
D03*
X3531Y4341D02*
D03*
X3595D02*
D03*
D22*
X2485Y4740D02*
D03*
Y4690D02*
D03*
Y4640D02*
D03*
Y4590D02*
D03*
Y4540D02*
D03*
Y4490D02*
D03*
Y4440D02*
D03*
X2205D02*
D03*
Y4490D02*
D03*
Y4540D02*
D03*
Y4590D02*
D03*
Y4640D02*
D03*
Y4690D02*
D03*
Y4740D02*
D03*
X2485Y2640D02*
D03*
Y2590D02*
D03*
Y2540D02*
D03*
Y2490D02*
D03*
Y2440D02*
D03*
Y2390D02*
D03*
Y2340D02*
D03*
X2205D02*
D03*
Y2390D02*
D03*
Y2440D02*
D03*
Y2490D02*
D03*
Y2540D02*
D03*
Y2590D02*
D03*
Y2640D02*
D03*
X2485Y3340D02*
D03*
Y3290D02*
D03*
Y3240D02*
D03*
Y3190D02*
D03*
Y3140D02*
D03*
Y3090D02*
D03*
Y3040D02*
D03*
X2205D02*
D03*
Y3090D02*
D03*
Y3140D02*
D03*
Y3190D02*
D03*
Y3240D02*
D03*
Y3290D02*
D03*
Y3340D02*
D03*
X2485Y5442D02*
D03*
Y5392D02*
D03*
Y5342D02*
D03*
Y5292D02*
D03*
Y5242D02*
D03*
Y5192D02*
D03*
Y5142D02*
D03*
X2205D02*
D03*
Y5192D02*
D03*
Y5242D02*
D03*
Y5292D02*
D03*
Y5342D02*
D03*
Y5392D02*
D03*
Y5442D02*
D03*
X2485Y1940D02*
D03*
Y1890D02*
D03*
Y1840D02*
D03*
Y1790D02*
D03*
Y1740D02*
D03*
Y1690D02*
D03*
Y1640D02*
D03*
X2205D02*
D03*
Y1690D02*
D03*
Y1740D02*
D03*
Y1790D02*
D03*
Y1840D02*
D03*
Y1890D02*
D03*
Y1940D02*
D03*
X2485Y540D02*
D03*
Y490D02*
D03*
Y440D02*
D03*
Y390D02*
D03*
Y340D02*
D03*
Y290D02*
D03*
Y240D02*
D03*
X2205D02*
D03*
Y290D02*
D03*
Y340D02*
D03*
Y390D02*
D03*
Y440D02*
D03*
Y490D02*
D03*
Y540D02*
D03*
X2485Y4040D02*
D03*
Y3990D02*
D03*
Y3940D02*
D03*
Y3890D02*
D03*
Y3840D02*
D03*
Y3790D02*
D03*
Y3740D02*
D03*
X2205D02*
D03*
Y3790D02*
D03*
Y3840D02*
D03*
Y3890D02*
D03*
Y3940D02*
D03*
Y3990D02*
D03*
Y4040D02*
D03*
Y1240D02*
D03*
Y1190D02*
D03*
Y1140D02*
D03*
Y1090D02*
D03*
Y1040D02*
D03*
Y990D02*
D03*
Y940D02*
D03*
X2485D02*
D03*
Y990D02*
D03*
Y1040D02*
D03*
Y1090D02*
D03*
Y1140D02*
D03*
Y1190D02*
D03*
Y1240D02*
D03*
D36*
X1465Y1911D02*
D03*
Y522D02*
D03*
Y2611D02*
D03*
Y1211D02*
D03*
Y3311D02*
D03*
Y4011D02*
D03*
Y4711D02*
D03*
X1465Y5413D02*
D03*
D37*
X1565Y1911D02*
D03*
X1465Y1811D02*
D03*
X1565D02*
D03*
X1465Y1711D02*
D03*
X1565D02*
D03*
X1465Y1611D02*
D03*
X1565D02*
D03*
Y522D02*
D03*
X1465Y422D02*
D03*
X1565D02*
D03*
X1465Y322D02*
D03*
X1565D02*
D03*
X1465Y222D02*
D03*
X1565D02*
D03*
Y2611D02*
D03*
X1465Y2511D02*
D03*
X1565D02*
D03*
X1465Y2411D02*
D03*
X1565D02*
D03*
X1465Y2311D02*
D03*
X1565D02*
D03*
X7045Y1080D02*
D03*
X6945D02*
D03*
X6845D02*
D03*
X6745D02*
D03*
X6645D02*
D03*
X6545D02*
D03*
X6445D02*
D03*
X6345D02*
D03*
X6245D02*
D03*
X6145D02*
D03*
X6045D02*
D03*
X5945D02*
D03*
X5845D02*
D03*
X1565Y1211D02*
D03*
X1465Y1111D02*
D03*
X1565D02*
D03*
X1465Y1011D02*
D03*
X1565D02*
D03*
X1465Y911D02*
D03*
X1565D02*
D03*
Y3311D02*
D03*
X1465Y3211D02*
D03*
X1565D02*
D03*
X1465Y3111D02*
D03*
X1565D02*
D03*
X1465Y3011D02*
D03*
X1565D02*
D03*
Y4011D02*
D03*
X1465Y3911D02*
D03*
X1565D02*
D03*
X1465Y3811D02*
D03*
X1565D02*
D03*
X1465Y3711D02*
D03*
X1565D02*
D03*
Y4711D02*
D03*
X1465Y4611D02*
D03*
X1565D02*
D03*
X1465Y4511D02*
D03*
X1565D02*
D03*
X1465Y4411D02*
D03*
X1565D02*
D03*
X1565Y5413D02*
D03*
X1465Y5313D02*
D03*
X1565D02*
D03*
X1465Y5213D02*
D03*
X1565D02*
D03*
X1465Y5113D02*
D03*
X1565D02*
D03*
X7045Y1677D02*
D03*
X6945D02*
D03*
X6845D02*
D03*
X6745D02*
D03*
X6645D02*
D03*
X6545D02*
D03*
X6445D02*
D03*
X6345D02*
D03*
X6245D02*
D03*
X6145D02*
D03*
X6045D02*
D03*
X5945D02*
D03*
X5845D02*
D03*
X1280Y4940D02*
D03*
X1380D02*
D03*
X5925Y3900D02*
D03*
X6025D02*
D03*
X6125D02*
D03*
X6225D02*
D03*
X6325D02*
D03*
X6425D02*
D03*
X6525D02*
D03*
X6625D02*
D03*
X6725D02*
D03*
X6825D02*
D03*
X6925D02*
D03*
X7025D02*
D03*
X7125D02*
D03*
X5925Y4499D02*
D03*
X6025D02*
D03*
X6125D02*
D03*
X6225D02*
D03*
X6325D02*
D03*
X6425D02*
D03*
X6525D02*
D03*
X6625D02*
D03*
X6725D02*
D03*
X6825D02*
D03*
X6925D02*
D03*
X7025D02*
D03*
X7125D02*
D03*
D38*
X7145Y1080D02*
D03*
Y1677D02*
D03*
X1180Y4940D02*
D03*
X5825Y3900D02*
D03*
Y4499D02*
D03*
D39*
X1180Y4694D02*
D03*
Y4594D02*
D03*
Y4494D02*
D03*
D40*
X3400Y565D02*
D03*
X3405Y265D02*
D03*
X3944Y345D02*
D03*
X4368Y463D02*
D03*
X4141Y460D02*
D03*
X3180Y410D02*
D03*
X4144Y295D02*
D03*
X3175Y305D02*
D03*
X3407Y474D02*
D03*
X3405Y345D02*
D03*
X3469Y159D02*
D03*
X3705Y149D02*
D03*
X1995Y430D02*
D03*
X2695D02*
D03*
X4981Y503D02*
D03*
X4610Y170D02*
D03*
X4600Y310D02*
D03*
X1995Y320D02*
D03*
X2695Y310D02*
D03*
X2024Y684D02*
D03*
X3559Y494D02*
D03*
X2104Y684D02*
D03*
X3561Y403D02*
D03*
X2104Y90D02*
D03*
X3561Y314D02*
D03*
X2835Y305D02*
D03*
X2665Y685D02*
D03*
X3559Y224D02*
D03*
X2835Y215D02*
D03*
X5330Y546D02*
D03*
X5110Y213D02*
D03*
Y288D02*
D03*
X5150Y418D02*
D03*
X5520Y405D02*
D03*
X4367Y603D02*
D03*
X4370Y138D02*
D03*
X4340Y338D02*
D03*
X3400Y1265D02*
D03*
X3405Y965D02*
D03*
X3944Y1045D02*
D03*
X4368Y1163D02*
D03*
X4141Y1160D02*
D03*
X3180Y1110D02*
D03*
X4144Y995D02*
D03*
X3175Y1005D02*
D03*
X3407Y1174D02*
D03*
X3405Y1045D02*
D03*
X3469Y859D02*
D03*
X3705Y849D02*
D03*
X1995Y1130D02*
D03*
X2695D02*
D03*
X4981Y1203D02*
D03*
X4610Y870D02*
D03*
X4600Y1010D02*
D03*
X1995Y1020D02*
D03*
X2695Y1010D02*
D03*
X2024Y1384D02*
D03*
X3559Y1194D02*
D03*
X2104Y1384D02*
D03*
X3561Y1103D02*
D03*
X2104Y790D02*
D03*
X3561Y1014D02*
D03*
X2835Y1005D02*
D03*
X2665Y1385D02*
D03*
X3559Y924D02*
D03*
X2835Y915D02*
D03*
X5330Y1246D02*
D03*
X5110Y913D02*
D03*
Y988D02*
D03*
X5150Y1118D02*
D03*
X5520Y1105D02*
D03*
X4367Y1303D02*
D03*
X4370Y838D02*
D03*
X4340Y1038D02*
D03*
X3400Y1965D02*
D03*
X3405Y1665D02*
D03*
X3944Y1745D02*
D03*
X4368Y1863D02*
D03*
X4141Y1860D02*
D03*
X3180Y1810D02*
D03*
X4144Y1695D02*
D03*
X3175Y1705D02*
D03*
X3407Y1874D02*
D03*
X3405Y1745D02*
D03*
X3469Y1559D02*
D03*
X3705Y1549D02*
D03*
X1995Y1830D02*
D03*
X2695D02*
D03*
X4981Y1903D02*
D03*
X4610Y1570D02*
D03*
X4600Y1710D02*
D03*
X1995Y1720D02*
D03*
X2695Y1710D02*
D03*
X2024Y2084D02*
D03*
X3559Y1894D02*
D03*
X2104Y2084D02*
D03*
X3561Y1803D02*
D03*
X2104Y1490D02*
D03*
X3561Y1714D02*
D03*
X2835Y1705D02*
D03*
X2665Y2085D02*
D03*
X3559Y1624D02*
D03*
X2835Y1615D02*
D03*
X5330Y1946D02*
D03*
X5110Y1613D02*
D03*
Y1688D02*
D03*
X5150Y1818D02*
D03*
X5520Y1805D02*
D03*
X4367Y2003D02*
D03*
X4370Y1538D02*
D03*
X4340Y1738D02*
D03*
X3400Y2665D02*
D03*
X3405Y2365D02*
D03*
X3944Y2445D02*
D03*
X4368Y2563D02*
D03*
X4141Y2560D02*
D03*
X3180Y2510D02*
D03*
X4144Y2395D02*
D03*
X3175Y2405D02*
D03*
X3407Y2574D02*
D03*
X3405Y2445D02*
D03*
X3469Y2259D02*
D03*
X3705Y2249D02*
D03*
X1995Y2530D02*
D03*
X2695D02*
D03*
X4981Y2603D02*
D03*
X4610Y2270D02*
D03*
X4600Y2410D02*
D03*
X1995Y2420D02*
D03*
X2695Y2410D02*
D03*
X2024Y2784D02*
D03*
X3559Y2594D02*
D03*
X2104Y2784D02*
D03*
X3561Y2503D02*
D03*
X2104Y2190D02*
D03*
X3561Y2414D02*
D03*
X2835Y2405D02*
D03*
X2665Y2785D02*
D03*
X3559Y2324D02*
D03*
X2835Y2315D02*
D03*
X5330Y2646D02*
D03*
X5110Y2313D02*
D03*
Y2388D02*
D03*
X5150Y2518D02*
D03*
X5520Y2505D02*
D03*
X4367Y2703D02*
D03*
X4370Y2238D02*
D03*
X4340Y2438D02*
D03*
X3400Y3365D02*
D03*
X3405Y3065D02*
D03*
X3944Y3145D02*
D03*
X4368Y3263D02*
D03*
X4141Y3260D02*
D03*
X3180Y3210D02*
D03*
X4144Y3095D02*
D03*
X3175Y3105D02*
D03*
X3407Y3274D02*
D03*
X3405Y3145D02*
D03*
X3469Y2959D02*
D03*
X3705Y2949D02*
D03*
X1995Y3230D02*
D03*
X2695D02*
D03*
X4981Y3303D02*
D03*
X4610Y2970D02*
D03*
X4600Y3110D02*
D03*
X1995Y3120D02*
D03*
X2695Y3110D02*
D03*
X2024Y3484D02*
D03*
X3559Y3294D02*
D03*
X2104Y3484D02*
D03*
X3561Y3203D02*
D03*
X2104Y2890D02*
D03*
X3561Y3114D02*
D03*
X2835Y3105D02*
D03*
X2665Y3485D02*
D03*
X3559Y3024D02*
D03*
X2835Y3015D02*
D03*
X5330Y3346D02*
D03*
X5110Y3013D02*
D03*
Y3088D02*
D03*
X5150Y3218D02*
D03*
X5520Y3205D02*
D03*
X4367Y3403D02*
D03*
X4370Y2938D02*
D03*
X4340Y3138D02*
D03*
X3400Y4065D02*
D03*
X3405Y3765D02*
D03*
X3944Y3845D02*
D03*
X4368Y3963D02*
D03*
X4141Y3960D02*
D03*
X3180Y3910D02*
D03*
X4144Y3795D02*
D03*
X3175Y3805D02*
D03*
X3407Y3974D02*
D03*
X3405Y3845D02*
D03*
X3469Y3659D02*
D03*
X3705Y3649D02*
D03*
X1995Y3930D02*
D03*
X2695D02*
D03*
X4981Y4003D02*
D03*
X4610Y3670D02*
D03*
X4600Y3810D02*
D03*
X1995Y3820D02*
D03*
X2695Y3810D02*
D03*
X2024Y4184D02*
D03*
X3559Y3994D02*
D03*
X2104Y4184D02*
D03*
X3561Y3903D02*
D03*
X2104Y3590D02*
D03*
X3561Y3814D02*
D03*
X2835Y3805D02*
D03*
X2665Y4185D02*
D03*
X3559Y3724D02*
D03*
X2835Y3715D02*
D03*
X5330Y4046D02*
D03*
X5110Y3713D02*
D03*
Y3788D02*
D03*
X5150Y3918D02*
D03*
X5520Y3905D02*
D03*
X4367Y4103D02*
D03*
X4370Y3638D02*
D03*
X4340Y3838D02*
D03*
X3400Y4765D02*
D03*
X3405Y4465D02*
D03*
X3944Y4545D02*
D03*
X4368Y4663D02*
D03*
X4141Y4660D02*
D03*
X3180Y4610D02*
D03*
X4144Y4495D02*
D03*
X3175Y4505D02*
D03*
X3407Y4674D02*
D03*
X3405Y4545D02*
D03*
X3469Y4359D02*
D03*
X3705Y4349D02*
D03*
X1995Y4630D02*
D03*
X2695D02*
D03*
X4981Y4703D02*
D03*
X4610Y4370D02*
D03*
X4600Y4510D02*
D03*
X1995Y4520D02*
D03*
X2695Y4510D02*
D03*
X2024Y4884D02*
D03*
X3559Y4694D02*
D03*
X2104Y4884D02*
D03*
X3561Y4603D02*
D03*
X2104Y4290D02*
D03*
X3561Y4514D02*
D03*
X2835Y4505D02*
D03*
X2665Y4885D02*
D03*
X3559Y4424D02*
D03*
X2835Y4415D02*
D03*
X5330Y4746D02*
D03*
X5110Y4413D02*
D03*
Y4488D02*
D03*
X5150Y4618D02*
D03*
X5520Y4605D02*
D03*
X4367Y4803D02*
D03*
X4370Y4338D02*
D03*
X4340Y4538D02*
D03*
X5520Y5307D02*
D03*
X3944Y5247D02*
D03*
X5330Y5448D02*
D03*
X5150Y5320D02*
D03*
X4981Y5405D02*
D03*
X5110Y5115D02*
D03*
Y5190D02*
D03*
X4340Y5240D02*
D03*
X4367Y5365D02*
D03*
X4366Y5505D02*
D03*
X4369Y5040D02*
D03*
X4610Y5072D02*
D03*
X4600Y5212D02*
D03*
X4144Y5197D02*
D03*
X4141Y5362D02*
D03*
X3400Y5467D02*
D03*
X3405Y5167D02*
D03*
X3180Y5312D02*
D03*
X3175Y5207D02*
D03*
X3406Y5376D02*
D03*
X3405Y5247D02*
D03*
X3468Y5061D02*
D03*
X3704Y5051D02*
D03*
X1995Y5332D02*
D03*
X2695D02*
D03*
X1995Y5222D02*
D03*
X2695Y5212D02*
D03*
X2024Y5586D02*
D03*
X3559Y5396D02*
D03*
X2104Y5586D02*
D03*
X3561Y5305D02*
D03*
X2104Y4992D02*
D03*
X3560Y5216D02*
D03*
X2835Y5207D02*
D03*
X2665Y5587D02*
D03*
X3559Y5126D02*
D03*
X2835Y5117D02*
D03*
M02*
