G04*
G04 #@! TF.GenerationSoftware,Altium Limited,Altium Designer,19.0.10 (269)*
G04*
G04 Layer_Color=128*
%FSLAX23Y23*%
%MOIN*%
G70*
G01*
G75*
%ADD10C,0.008*%
%ADD12C,0.010*%
%ADD13C,0.004*%
%ADD14C,0.020*%
%ADD46C,0.002*%
D10*
X1086Y4424D02*
Y4774D01*
Y4424D02*
X1275D01*
Y4774D01*
X1086D02*
X1275D01*
D12*
X7360Y5700D02*
X7370Y5690D01*
D13*
X2258Y5390D02*
X2431D01*
Y5194D02*
Y5390D01*
X2258Y5194D02*
X2431D01*
X2258D02*
Y5390D01*
Y5365D02*
X2284Y5390D01*
X2259Y4688D02*
X2432D01*
Y4492D02*
Y4688D01*
X2259Y4492D02*
X2432D01*
X2259D02*
Y4688D01*
Y4663D02*
X2284Y4688D01*
X2259Y3988D02*
X2432D01*
Y3792D02*
Y3988D01*
X2259Y3792D02*
X2432D01*
X2259D02*
Y3988D01*
Y3963D02*
X2284Y3988D01*
X2259Y3288D02*
X2432D01*
Y3092D02*
Y3288D01*
X2259Y3092D02*
X2432D01*
X2259D02*
Y3288D01*
Y3263D02*
X2284Y3288D01*
X2259Y2588D02*
X2432D01*
Y2392D02*
Y2588D01*
X2259Y2392D02*
X2432D01*
X2259D02*
Y2588D01*
Y2563D02*
X2284Y2588D01*
X2259Y1888D02*
X2432D01*
Y1692D02*
Y1888D01*
X2259Y1692D02*
X2432D01*
X2259D02*
Y1888D01*
Y1863D02*
X2284Y1888D01*
X2259Y1188D02*
X2432D01*
Y992D02*
Y1188D01*
X2259Y992D02*
X2432D01*
X2259D02*
Y1188D01*
Y1163D02*
X2284Y1188D01*
X2259Y488D02*
X2432D01*
Y292D02*
Y488D01*
X2259Y292D02*
X2432D01*
X2259D02*
Y488D01*
Y463D02*
X2284Y488D01*
X4718Y475D02*
X4768Y525D01*
X4718Y135D02*
Y525D01*
Y135D02*
X4872D01*
Y525D01*
X4718D02*
X4872D01*
X5381Y195D02*
X5407Y220D01*
Y195D02*
Y391D01*
X5234D02*
X5407D01*
X5234Y195D02*
Y391D01*
Y195D02*
X5407D01*
X4425Y525D02*
X4475D01*
Y604D01*
X4425D02*
X4475D01*
X4425Y525D02*
Y604D01*
Y459D02*
X4475D01*
X4425Y380D02*
Y459D01*
Y380D02*
X4475D01*
Y459D01*
X4425Y88D02*
X4475D01*
Y167D01*
X4425D02*
X4475D01*
X4425Y88D02*
Y167D01*
Y315D02*
X4475D01*
X4425Y236D02*
Y315D01*
Y236D02*
X4475D01*
Y315D01*
X4718Y1225D02*
X4872D01*
Y835D02*
Y1225D01*
X4718Y835D02*
X4872D01*
X4718D02*
Y1225D01*
Y1175D02*
X4768Y1225D01*
X5381Y895D02*
X5407Y920D01*
Y895D02*
Y1091D01*
X5234D02*
X5407D01*
X5234Y895D02*
Y1091D01*
Y895D02*
X5407D01*
X4425Y1225D02*
X4475D01*
Y1304D01*
X4425D02*
X4475D01*
X4425Y1225D02*
Y1304D01*
Y1159D02*
X4475D01*
X4425Y1080D02*
Y1159D01*
Y1080D02*
X4475D01*
Y1159D01*
X4425Y788D02*
X4475D01*
Y867D01*
X4425D02*
X4475D01*
X4425Y788D02*
Y867D01*
Y1015D02*
X4475D01*
X4425Y936D02*
Y1015D01*
Y936D02*
X4475D01*
Y1015D01*
X4718Y1875D02*
X4768Y1925D01*
X4718Y1535D02*
Y1925D01*
Y1535D02*
X4872D01*
Y1925D01*
X4718D02*
X4872D01*
X5381Y1595D02*
X5407Y1620D01*
Y1595D02*
Y1791D01*
X5234D02*
X5407D01*
X5234Y1595D02*
Y1791D01*
Y1595D02*
X5407D01*
X4425Y1925D02*
X4475D01*
Y2004D01*
X4425D02*
X4475D01*
X4425Y1925D02*
Y2004D01*
Y1859D02*
X4475D01*
X4425Y1780D02*
Y1859D01*
Y1780D02*
X4475D01*
Y1859D01*
X4425Y1488D02*
X4475D01*
Y1567D01*
X4425D02*
X4475D01*
X4425Y1488D02*
Y1567D01*
Y1715D02*
X4475D01*
X4425Y1636D02*
Y1715D01*
Y1636D02*
X4475D01*
Y1715D01*
X4718Y2575D02*
X4768Y2625D01*
X4718Y2235D02*
Y2625D01*
Y2235D02*
X4872D01*
Y2625D01*
X4718D02*
X4872D01*
X5381Y2295D02*
X5407Y2320D01*
Y2295D02*
Y2491D01*
X5234D02*
X5407D01*
X5234Y2295D02*
Y2491D01*
Y2295D02*
X5407D01*
X4425Y2625D02*
X4475D01*
Y2704D01*
X4425D02*
X4475D01*
X4425Y2625D02*
Y2704D01*
Y2559D02*
X4475D01*
X4425Y2480D02*
Y2559D01*
Y2480D02*
X4475D01*
Y2559D01*
X4425Y2188D02*
X4475D01*
Y2267D01*
X4425D02*
X4475D01*
X4425Y2188D02*
Y2267D01*
Y2415D02*
X4475D01*
X4425Y2336D02*
Y2415D01*
Y2336D02*
X4475D01*
Y2415D01*
X4718Y3275D02*
X4768Y3325D01*
X4718Y2935D02*
Y3325D01*
Y2935D02*
X4872D01*
Y3325D01*
X4718D02*
X4872D01*
X5381Y2995D02*
X5407Y3020D01*
Y2995D02*
Y3191D01*
X5234D02*
X5407D01*
X5234Y2995D02*
Y3191D01*
Y2995D02*
X5407D01*
X4425Y3325D02*
X4475D01*
Y3404D01*
X4425D02*
X4475D01*
X4425Y3325D02*
Y3404D01*
Y3259D02*
X4475D01*
X4425Y3180D02*
Y3259D01*
Y3180D02*
X4475D01*
Y3259D01*
X4425Y2888D02*
X4475D01*
Y2967D01*
X4425D02*
X4475D01*
X4425Y2888D02*
Y2967D01*
Y3115D02*
X4475D01*
X4425Y3036D02*
Y3115D01*
Y3036D02*
X4475D01*
Y3115D01*
X4718Y3975D02*
X4768Y4025D01*
X4718Y3635D02*
Y4025D01*
Y3635D02*
X4872D01*
Y4025D01*
X4718D02*
X4872D01*
X5381Y3695D02*
X5407Y3720D01*
Y3695D02*
Y3891D01*
X5234D02*
X5407D01*
X5234Y3695D02*
Y3891D01*
Y3695D02*
X5407D01*
X4425Y4025D02*
X4475D01*
Y4104D01*
X4425D02*
X4475D01*
X4425Y4025D02*
Y4104D01*
Y3959D02*
X4475D01*
X4425Y3880D02*
Y3959D01*
Y3880D02*
X4475D01*
Y3959D01*
X4425Y3588D02*
X4475D01*
Y3667D01*
X4425D02*
X4475D01*
X4425Y3588D02*
Y3667D01*
Y3815D02*
X4475D01*
X4425Y3736D02*
Y3815D01*
Y3736D02*
X4475D01*
Y3815D01*
X4718Y4675D02*
X4768Y4725D01*
X4718Y4335D02*
Y4725D01*
Y4335D02*
X4872D01*
Y4725D01*
X4718D02*
X4872D01*
X5381Y4395D02*
X5407Y4420D01*
Y4395D02*
Y4591D01*
X5234D02*
X5407D01*
X5234Y4395D02*
Y4591D01*
Y4395D02*
X5407D01*
X4425Y4725D02*
X4475D01*
Y4804D01*
X4425D02*
X4475D01*
X4425Y4725D02*
Y4804D01*
Y4659D02*
X4475D01*
X4425Y4580D02*
Y4659D01*
Y4580D02*
X4475D01*
Y4659D01*
X4425Y4288D02*
X4475D01*
Y4367D01*
X4425D02*
X4475D01*
X4425Y4288D02*
Y4367D01*
Y4515D02*
X4475D01*
X4425Y4436D02*
Y4515D01*
Y4436D02*
X4475D01*
Y4515D01*
X5381Y5097D02*
X5407Y5122D01*
Y5097D02*
Y5293D01*
X5233D02*
X5407D01*
X5233Y5097D02*
Y5293D01*
Y5097D02*
X5407D01*
X4718Y5377D02*
X4768Y5427D01*
X4718Y5037D02*
Y5427D01*
Y5037D02*
X4871D01*
Y5427D01*
X4718D02*
X4871D01*
X4425Y4990D02*
X4474D01*
Y5069D01*
X4425D02*
X4474D01*
X4425Y4990D02*
Y5069D01*
Y5217D02*
X4474D01*
X4425Y5138D02*
Y5217D01*
Y5138D02*
X4474D01*
Y5217D01*
X4425Y5427D02*
X4474D01*
Y5506D01*
X4425D02*
X4474D01*
X4425Y5427D02*
Y5506D01*
Y5361D02*
X4474D01*
X4425Y5282D02*
Y5361D01*
Y5282D02*
X4474D01*
Y5361D01*
X2586Y3380D02*
Y3430D01*
Y3380D02*
X2664D01*
Y3430D01*
X2586D02*
X2664D01*
X2586Y825D02*
Y875D01*
Y825D02*
X2664D01*
Y875D01*
X2586D02*
X2664D01*
X2586Y1280D02*
Y1330D01*
Y1280D02*
X2664D01*
Y1330D01*
X2586D02*
X2664D01*
X2585Y5027D02*
Y5077D01*
Y5027D02*
X2664D01*
Y5077D01*
X2585D02*
X2664D01*
X2586Y2680D02*
Y2730D01*
Y2680D02*
X2664D01*
Y2730D01*
X2586D02*
X2664D01*
X2586Y2925D02*
Y2975D01*
Y2925D02*
X2664D01*
Y2975D01*
X2586D02*
X2664D01*
X2586Y2225D02*
Y2275D01*
Y2225D02*
X2664D01*
Y2275D01*
X2586D02*
X2664D01*
X2586Y4080D02*
Y4130D01*
Y4080D02*
X2664D01*
Y4130D01*
X2586D02*
X2664D01*
X2586Y125D02*
Y175D01*
Y125D02*
X2664D01*
Y175D01*
X2586D02*
X2664D01*
X2586Y4780D02*
Y4830D01*
Y4780D02*
X2664D01*
Y4830D01*
X2586D02*
X2664D01*
X2585Y5482D02*
Y5532D01*
Y5482D02*
X2664D01*
Y5532D01*
X2585D02*
X2664D01*
X2586Y4325D02*
Y4375D01*
Y4325D02*
X2664D01*
Y4375D01*
X2586D02*
X2664D01*
X2586Y1980D02*
Y2030D01*
Y1980D02*
X2664D01*
Y2030D01*
X2586D02*
X2664D01*
X2586Y3625D02*
Y3675D01*
Y3625D02*
X2664D01*
Y3675D01*
X2586D02*
X2664D01*
X2586Y580D02*
Y630D01*
Y580D02*
X2664D01*
Y630D01*
X2586D02*
X2664D01*
X2586Y1525D02*
Y1575D01*
Y1525D02*
X2664D01*
Y1575D01*
X2586D02*
X2664D01*
X4294Y5167D02*
Y5217D01*
X4216D02*
X4294D01*
X4216Y5167D02*
Y5217D01*
Y5167D02*
X4294D01*
X4295Y265D02*
Y315D01*
X4216D02*
X4295D01*
X4216Y265D02*
Y315D01*
Y265D02*
X4295D01*
X4289Y830D02*
Y880D01*
X4211D02*
X4289D01*
X4211Y830D02*
Y880D01*
Y830D02*
X4289D01*
X3249Y4441D02*
X3328D01*
Y4391D02*
Y4441D01*
X3249Y4391D02*
X3328D01*
X3249D02*
Y4441D01*
X4211Y1841D02*
Y1890D01*
Y1841D02*
X4289D01*
Y1890D01*
X4211D02*
X4289D01*
X3996Y4418D02*
X4075D01*
Y4368D02*
Y4418D01*
X3996Y4368D02*
X4075D01*
X3996D02*
Y4418D01*
X4289Y130D02*
Y180D01*
X4211D02*
X4289D01*
X4211Y130D02*
Y180D01*
Y130D02*
X4289D01*
X3996Y3718D02*
X4075D01*
Y3668D02*
Y3718D01*
X3996Y3668D02*
X4075D01*
X3996D02*
Y3718D01*
X4295Y965D02*
Y1015D01*
X4216D02*
X4295D01*
X4216Y965D02*
Y1015D01*
Y965D02*
X4295D01*
X3249Y3741D02*
X3328D01*
Y3691D02*
Y3741D01*
X3249Y3691D02*
X3328D01*
X3249D02*
Y3741D01*
X4211Y567D02*
Y616D01*
Y567D02*
X4289D01*
Y616D01*
X4211D02*
X4289D01*
X3249Y1641D02*
X3328D01*
Y1591D02*
Y1641D01*
X3249Y1591D02*
X3328D01*
X3249D02*
Y1641D01*
X4295Y3065D02*
Y3115D01*
X4216D02*
X4295D01*
X4216Y3065D02*
Y3115D01*
Y3065D02*
X4295D01*
Y3765D02*
Y3815D01*
X4216D02*
X4295D01*
X4216Y3765D02*
Y3815D01*
Y3765D02*
X4295D01*
X4289Y1530D02*
Y1580D01*
X4211D02*
X4289D01*
X4211Y1530D02*
Y1580D01*
Y1530D02*
X4289D01*
X4295Y4465D02*
Y4515D01*
X4216D02*
X4295D01*
X4216Y4465D02*
Y4515D01*
Y4465D02*
X4295D01*
X3249Y2341D02*
X3328D01*
Y2291D02*
Y2341D01*
X3249Y2291D02*
X3328D01*
X3249D02*
Y2341D01*
X4211Y4767D02*
Y4816D01*
Y4767D02*
X4289D01*
Y4816D01*
X4211D02*
X4289D01*
X3996Y5120D02*
X4074D01*
Y5070D02*
Y5120D01*
X3996Y5070D02*
X4074D01*
X3996D02*
Y5120D01*
X3996Y2318D02*
X4075D01*
Y2268D02*
Y2318D01*
X3996Y2268D02*
X4075D01*
X3996D02*
Y2318D01*
X4006Y3136D02*
X4084D01*
Y3086D02*
Y3136D01*
X4006Y3086D02*
X4084D01*
X4006D02*
Y3136D01*
X3249Y3041D02*
X3328D01*
Y2991D02*
Y3041D01*
X3249Y2991D02*
X3328D01*
X3249D02*
Y3041D01*
X4211Y1141D02*
Y1190D01*
Y1141D02*
X4289D01*
Y1190D01*
X4211D02*
X4289D01*
X4211Y2541D02*
Y2590D01*
Y2541D02*
X4289D01*
Y2590D01*
X4211D02*
X4289D01*
X3996Y3018D02*
X4075D01*
Y2968D02*
Y3018D01*
X3996Y2968D02*
X4075D01*
X3996D02*
Y3018D01*
X3249Y941D02*
X3328D01*
Y891D02*
Y941D01*
X3249Y891D02*
X3328D01*
X3249D02*
Y941D01*
X4295Y1665D02*
Y1715D01*
X4216D02*
X4295D01*
X4216Y1665D02*
Y1715D01*
Y1665D02*
X4295D01*
X4006Y2436D02*
X4084D01*
Y2386D02*
Y2436D01*
X4006Y2386D02*
X4084D01*
X4006D02*
Y2436D01*
X4211Y1967D02*
Y2016D01*
Y1967D02*
X4289D01*
Y2016D01*
X4211D02*
X4289D01*
X3249Y241D02*
X3328D01*
Y191D02*
Y241D01*
X3249Y191D02*
X3328D01*
X3249D02*
Y241D01*
X4211Y441D02*
Y490D01*
Y441D02*
X4289D01*
Y490D01*
X4211D02*
X4289D01*
X4210Y5469D02*
Y5518D01*
Y5469D02*
X4289D01*
Y5518D01*
X4210D02*
X4289D01*
X4211Y1267D02*
Y1316D01*
Y1267D02*
X4289D01*
Y1316D01*
X4211D02*
X4289D01*
X4005Y5238D02*
X4084D01*
Y5188D02*
Y5238D01*
X4005Y5188D02*
X4084D01*
X4005D02*
Y5238D01*
X3996Y1618D02*
X4075D01*
Y1568D02*
Y1618D01*
X3996Y1568D02*
X4075D01*
X3996D02*
Y1618D01*
X4289Y4330D02*
Y4380D01*
X4211D02*
X4289D01*
X4211Y4330D02*
Y4380D01*
Y4330D02*
X4289D01*
Y3630D02*
Y3680D01*
X4211D02*
X4289D01*
X4211Y3630D02*
Y3680D01*
Y3630D02*
X4289D01*
X3996Y918D02*
X4075D01*
Y868D02*
Y918D01*
X3996Y868D02*
X4075D01*
X3996D02*
Y918D01*
X4289Y2230D02*
Y2280D01*
X4211D02*
X4289D01*
X4211Y2230D02*
Y2280D01*
Y2230D02*
X4289D01*
X4295Y2365D02*
Y2415D01*
X4216D02*
X4295D01*
X4216Y2365D02*
Y2415D01*
Y2365D02*
X4295D01*
X4211Y4641D02*
Y4690D01*
Y4641D02*
X4289D01*
Y4690D01*
X4211D02*
X4289D01*
X4210Y5343D02*
Y5392D01*
Y5343D02*
X4289D01*
Y5392D01*
X4210D02*
X4289D01*
X4289Y2930D02*
Y2980D01*
X4211D02*
X4289D01*
X4211Y2930D02*
Y2980D01*
Y2930D02*
X4289D01*
X4289Y5032D02*
Y5082D01*
X4210D02*
X4289D01*
X4210Y5032D02*
Y5082D01*
Y5032D02*
X4289D01*
X4006Y3836D02*
X4084D01*
Y3786D02*
Y3836D01*
X4006Y3786D02*
X4084D01*
X4006D02*
Y3836D01*
Y1736D02*
X4084D01*
Y1686D02*
Y1736D01*
X4006Y1686D02*
X4084D01*
X4006D02*
Y1736D01*
X4211Y3367D02*
Y3416D01*
Y3367D02*
X4289D01*
Y3416D01*
X4211D02*
X4289D01*
X4211Y4067D02*
Y4116D01*
Y4067D02*
X4289D01*
Y4116D01*
X4211D02*
X4289D01*
X4211Y3241D02*
Y3290D01*
Y3241D02*
X4289D01*
Y3290D01*
X4211D02*
X4289D01*
X3249Y5143D02*
X3328D01*
Y5093D02*
Y5143D01*
X3249Y5093D02*
X3328D01*
X3249D02*
Y5143D01*
X4006Y4536D02*
X4084D01*
Y4486D02*
Y4536D01*
X4006Y4486D02*
X4084D01*
X4006D02*
Y4536D01*
X4211Y3941D02*
Y3990D01*
Y3941D02*
X4289D01*
Y3990D01*
X4211D02*
X4289D01*
X4006Y1036D02*
X4084D01*
Y986D02*
Y1036D01*
X4006Y986D02*
X4084D01*
X4006D02*
Y1036D01*
X4211Y2667D02*
Y2716D01*
Y2667D02*
X4289D01*
Y2716D01*
X4211D02*
X4289D01*
X3996Y218D02*
X4075D01*
Y168D02*
Y218D01*
X3996Y168D02*
X4075D01*
X3996D02*
Y218D01*
X2104Y4780D02*
Y4830D01*
X2026D02*
X2104D01*
X2026Y4780D02*
Y4830D01*
Y4780D02*
X2104D01*
X2026Y836D02*
Y886D01*
Y836D02*
X2104D01*
Y886D01*
X2026D02*
X2104D01*
X2026Y2236D02*
Y2286D01*
Y2236D02*
X2104D01*
Y2286D01*
X2026D02*
X2104D01*
Y1280D02*
Y1330D01*
X2026D02*
X2104D01*
X2026Y1280D02*
Y1330D01*
Y1280D02*
X2104D01*
Y225D02*
Y275D01*
X2026D02*
X2104D01*
X2026Y225D02*
Y275D01*
Y225D02*
X2104D01*
X2664Y3995D02*
Y4045D01*
X2586D02*
X2664D01*
X2586Y3995D02*
Y4045D01*
Y3995D02*
X2664D01*
X2025Y5038D02*
Y5088D01*
Y5038D02*
X2104D01*
Y5088D01*
X2025D02*
X2104D01*
X2026Y1900D02*
Y1950D01*
Y1900D02*
X2104D01*
Y1950D01*
X2026D02*
X2104D01*
X2586Y1615D02*
Y1665D01*
Y1615D02*
X2664D01*
Y1665D01*
X2586D02*
X2664D01*
X2104Y2680D02*
Y2730D01*
X2026D02*
X2104D01*
X2026Y2680D02*
Y2730D01*
Y2680D02*
X2104D01*
X2026Y4000D02*
Y4050D01*
Y4000D02*
X2104D01*
Y4050D01*
X2026D02*
X2104D01*
Y1980D02*
Y2030D01*
X2026D02*
X2104D01*
X2026Y1980D02*
Y2030D01*
Y1980D02*
X2104D01*
X2026Y4700D02*
Y4750D01*
Y4700D02*
X2104D01*
Y4750D01*
X2026D02*
X2104D01*
X2664Y495D02*
Y545D01*
X2586D02*
X2664D01*
X2586Y495D02*
Y545D01*
Y495D02*
X2664D01*
X2026Y3300D02*
Y3350D01*
Y3300D02*
X2104D01*
Y3350D01*
X2026D02*
X2104D01*
X2664Y2595D02*
Y2645D01*
X2586D02*
X2664D01*
X2586Y2595D02*
Y2645D01*
Y2595D02*
X2664D01*
X2586Y915D02*
Y965D01*
Y915D02*
X2664D01*
Y965D01*
X2586D02*
X2664D01*
X2104Y1625D02*
Y1675D01*
X2026D02*
X2104D01*
X2026Y1625D02*
Y1675D01*
Y1625D02*
X2104D01*
Y3725D02*
Y3775D01*
X2026D02*
X2104D01*
X2026Y3725D02*
Y3775D01*
Y3725D02*
X2104D01*
X2586Y215D02*
Y265D01*
Y215D02*
X2664D01*
Y265D01*
X2586D02*
X2664D01*
Y1895D02*
Y1945D01*
X2586D02*
X2664D01*
X2586Y1895D02*
Y1945D01*
Y1895D02*
X2664D01*
X2586Y4415D02*
Y4465D01*
Y4415D02*
X2664D01*
Y4465D01*
X2586D02*
X2664D01*
X2025Y5402D02*
Y5452D01*
Y5402D02*
X2104D01*
Y5452D01*
X2025D02*
X2104D01*
X2104Y2325D02*
Y2375D01*
X2026D02*
X2104D01*
X2026Y2325D02*
Y2375D01*
Y2325D02*
X2104D01*
X2104Y5127D02*
Y5177D01*
X2025D02*
X2104D01*
X2025Y5127D02*
Y5177D01*
Y5127D02*
X2104D01*
X2664Y3295D02*
Y3345D01*
X2586D02*
X2664D01*
X2586Y3295D02*
Y3345D01*
Y3295D02*
X2664D01*
Y1195D02*
Y1245D01*
X2586D02*
X2664D01*
X2586Y1195D02*
Y1245D01*
Y1195D02*
X2664D01*
Y4695D02*
Y4745D01*
X2586D02*
X2664D01*
X2586Y4695D02*
Y4745D01*
Y4695D02*
X2664D01*
X2026Y136D02*
Y186D01*
Y136D02*
X2104D01*
Y186D01*
X2026D02*
X2104D01*
X2585Y5117D02*
Y5167D01*
Y5117D02*
X2664D01*
Y5167D01*
X2585D02*
X2664D01*
X2104Y4425D02*
Y4475D01*
X2026D02*
X2104D01*
X2026Y4425D02*
Y4475D01*
Y4425D02*
X2104D01*
X2104Y5482D02*
Y5532D01*
X2025D02*
X2104D01*
X2025Y5482D02*
Y5532D01*
Y5482D02*
X2104D01*
X2026Y1536D02*
Y1586D01*
Y1536D02*
X2104D01*
Y1586D01*
X2026D02*
X2104D01*
Y925D02*
Y975D01*
X2026D02*
X2104D01*
X2026Y925D02*
Y975D01*
Y925D02*
X2104D01*
X2026Y4336D02*
Y4386D01*
Y4336D02*
X2104D01*
Y4386D01*
X2026D02*
X2104D01*
X2026Y2600D02*
Y2650D01*
Y2600D02*
X2104D01*
Y2650D01*
X2026D02*
X2104D01*
X2026Y2936D02*
Y2986D01*
Y2936D02*
X2104D01*
Y2986D01*
X2026D02*
X2104D01*
X2026Y3636D02*
Y3686D01*
Y3636D02*
X2104D01*
Y3686D01*
X2026D02*
X2104D01*
X2026Y1200D02*
Y1250D01*
Y1200D02*
X2104D01*
Y1250D01*
X2026D02*
X2104D01*
X2026Y500D02*
Y550D01*
Y500D02*
X2104D01*
Y550D01*
X2026D02*
X2104D01*
Y4080D02*
Y4130D01*
X2026D02*
X2104D01*
X2026Y4080D02*
Y4130D01*
Y4080D02*
X2104D01*
Y3380D02*
Y3430D01*
X2026D02*
X2104D01*
X2026Y3380D02*
Y3430D01*
Y3380D02*
X2104D01*
Y3025D02*
Y3075D01*
X2026D02*
X2104D01*
X2026Y3025D02*
Y3075D01*
Y3025D02*
X2104D01*
X2586Y3715D02*
Y3765D01*
Y3715D02*
X2664D01*
Y3765D01*
X2586D02*
X2664D01*
X2664Y5397D02*
Y5447D01*
X2585D02*
X2664D01*
X2585Y5397D02*
Y5447D01*
Y5397D02*
X2664D01*
X2586Y3015D02*
Y3065D01*
Y3015D02*
X2664D01*
Y3065D01*
X2586D02*
X2664D01*
X2104Y580D02*
Y630D01*
X2026D02*
X2104D01*
X2026Y580D02*
Y630D01*
Y580D02*
X2104D01*
X2586Y2315D02*
Y2365D01*
Y2315D02*
X2664D01*
Y2365D01*
X2586D02*
X2664D01*
X4006Y336D02*
X4084D01*
Y286D02*
Y336D01*
X4006Y286D02*
X4084D01*
X4006D02*
Y336D01*
X3248Y5223D02*
X3327D01*
Y5174D02*
Y5223D01*
X3248Y5174D02*
X3327D01*
X3248D02*
Y5223D01*
X3249Y4521D02*
X3327D01*
Y4472D02*
Y4521D01*
X3249Y4472D02*
X3327D01*
X3249D02*
Y4521D01*
Y3821D02*
X3327D01*
Y3772D02*
Y3821D01*
X3249Y3772D02*
X3327D01*
X3249D02*
Y3821D01*
Y3121D02*
X3327D01*
Y3072D02*
Y3121D01*
X3249Y3072D02*
X3327D01*
X3249D02*
Y3121D01*
Y2421D02*
X3327D01*
Y2372D02*
Y2421D01*
X3249Y2372D02*
X3327D01*
X3249D02*
Y2421D01*
Y1721D02*
X3327D01*
Y1672D02*
Y1721D01*
X3249Y1672D02*
X3327D01*
X3249D02*
Y1721D01*
Y1021D02*
X3327D01*
Y972D02*
Y1021D01*
X3249Y972D02*
X3327D01*
X3249D02*
Y1021D01*
Y321D02*
X3327D01*
Y272D02*
Y321D01*
X3249Y272D02*
X3327D01*
X3249D02*
Y321D01*
X3990Y5352D02*
X4069D01*
Y5303D02*
Y5352D01*
X3990Y5303D02*
X4069D01*
X3990D02*
Y5352D01*
X3991Y4650D02*
X4069D01*
Y4601D02*
Y4650D01*
X3991Y4601D02*
X4069D01*
X3991D02*
Y4650D01*
Y3950D02*
X4069D01*
Y3901D02*
Y3950D01*
X3991Y3901D02*
X4069D01*
X3991D02*
Y3950D01*
Y3250D02*
X4069D01*
Y3201D02*
Y3250D01*
X3991Y3201D02*
X4069D01*
X3991D02*
Y3250D01*
Y2550D02*
X4069D01*
Y2501D02*
Y2550D01*
X3991Y2501D02*
X4069D01*
X3991D02*
Y2550D01*
Y1850D02*
X4069D01*
Y1801D02*
Y1850D01*
X3991Y1801D02*
X4069D01*
X3991D02*
Y1850D01*
Y1150D02*
X4069D01*
Y1101D02*
Y1150D01*
X3991Y1101D02*
X4069D01*
X3991D02*
Y1150D01*
Y450D02*
X4069D01*
Y401D02*
Y450D01*
X3991Y401D02*
X4069D01*
X3991D02*
Y450D01*
X3248Y5343D02*
X3327D01*
Y5294D02*
Y5343D01*
X3248Y5294D02*
X3327D01*
X3248D02*
Y5343D01*
X3249Y4641D02*
X3327D01*
Y4592D02*
Y4641D01*
X3249Y4592D02*
X3327D01*
X3249D02*
Y4641D01*
Y3941D02*
X3327D01*
Y3892D02*
Y3941D01*
X3249Y3892D02*
X3327D01*
X3249D02*
Y3941D01*
Y3241D02*
X3327D01*
Y3192D02*
Y3241D01*
X3249Y3192D02*
X3327D01*
X3249D02*
Y3241D01*
Y2541D02*
X3327D01*
Y2492D02*
Y2541D01*
X3249Y2492D02*
X3327D01*
X3249D02*
Y2541D01*
Y1841D02*
X3327D01*
Y1792D02*
Y1841D01*
X3249Y1792D02*
X3327D01*
X3249D02*
Y1841D01*
Y1141D02*
X3327D01*
Y1092D02*
Y1141D01*
X3249Y1092D02*
X3327D01*
X3249D02*
Y1141D01*
Y441D02*
X3327D01*
Y392D02*
Y441D01*
X3249Y392D02*
X3327D01*
X3249D02*
Y441D01*
X3990Y5447D02*
X4069D01*
Y5397D02*
Y5447D01*
X3990Y5397D02*
X4069D01*
X3990D02*
Y5447D01*
X3991Y4745D02*
X4069D01*
Y4695D02*
Y4745D01*
X3991Y4695D02*
X4069D01*
X3991D02*
Y4745D01*
Y4045D02*
X4069D01*
Y3995D02*
Y4045D01*
X3991Y3995D02*
X4069D01*
X3991D02*
Y4045D01*
Y3345D02*
X4069D01*
Y3295D02*
Y3345D01*
X3991Y3295D02*
X4069D01*
X3991D02*
Y3345D01*
Y2645D02*
X4069D01*
Y2595D02*
Y2645D01*
X3991Y2595D02*
X4069D01*
X3991D02*
Y2645D01*
Y1945D02*
X4069D01*
Y1895D02*
Y1945D01*
X3991Y1895D02*
X4069D01*
X3991D02*
Y1945D01*
Y1245D02*
X4069D01*
Y1195D02*
Y1245D01*
X3991Y1195D02*
X4069D01*
X3991D02*
Y1245D01*
Y545D02*
X4069D01*
Y495D02*
Y545D01*
X3991Y495D02*
X4069D01*
X3991D02*
Y545D01*
X3252Y5438D02*
X3330D01*
Y5388D02*
Y5438D01*
X3252Y5388D02*
X3330D01*
X3252D02*
Y5438D01*
X3252Y4736D02*
X3331D01*
Y4686D02*
Y4736D01*
X3252Y4686D02*
X3331D01*
X3252D02*
Y4736D01*
Y4036D02*
X3331D01*
Y3986D02*
Y4036D01*
X3252Y3986D02*
X3331D01*
X3252D02*
Y4036D01*
Y3336D02*
X3331D01*
Y3286D02*
Y3336D01*
X3252Y3286D02*
X3331D01*
X3252D02*
Y3336D01*
Y2636D02*
X3331D01*
Y2586D02*
Y2636D01*
X3252Y2586D02*
X3331D01*
X3252D02*
Y2636D01*
Y1936D02*
X3331D01*
Y1886D02*
Y1936D01*
X3252Y1886D02*
X3331D01*
X3252D02*
Y1936D01*
Y1236D02*
X3331D01*
Y1186D02*
Y1236D01*
X3252Y1186D02*
X3331D01*
X3252D02*
Y1236D01*
Y536D02*
X3331D01*
Y486D02*
Y536D01*
X3252Y486D02*
X3331D01*
X3252D02*
Y536D01*
X3672Y5414D02*
X3845D01*
Y5107D02*
Y5414D01*
X3672Y5107D02*
X3845D01*
X3672D02*
Y5414D01*
Y5389D02*
X3698Y5414D01*
X3673Y4712D02*
X3846D01*
Y4405D02*
Y4712D01*
X3673Y4405D02*
X3846D01*
X3673D02*
Y4712D01*
Y4687D02*
X3698Y4712D01*
X3673Y4012D02*
X3846D01*
Y3705D02*
Y4012D01*
X3673Y3705D02*
X3846D01*
X3673D02*
Y4012D01*
Y3987D02*
X3698Y4012D01*
X3673Y3312D02*
X3846D01*
Y3005D02*
Y3312D01*
X3673Y3005D02*
X3846D01*
X3673D02*
Y3312D01*
Y3287D02*
X3698Y3312D01*
X3673Y2587D02*
X3698Y2612D01*
X3673Y2305D02*
Y2612D01*
Y2305D02*
X3846D01*
Y2612D01*
X3673D02*
X3846D01*
X3673Y1912D02*
X3846D01*
Y1605D02*
Y1912D01*
X3673Y1605D02*
X3846D01*
X3673D02*
Y1912D01*
Y1887D02*
X3698Y1912D01*
X3673Y1212D02*
X3846D01*
Y905D02*
Y1212D01*
X3673Y905D02*
X3846D01*
X3673D02*
Y1212D01*
Y1187D02*
X3698Y1212D01*
X3673Y512D02*
X3846D01*
Y205D02*
Y512D01*
X3673Y205D02*
X3846D01*
X3673D02*
Y512D01*
Y487D02*
X3698Y512D01*
D14*
X1000Y0D02*
Y5700D01*
X7370D01*
Y0D02*
Y5700D01*
X1000Y0D02*
X7370D01*
D46*
X1447Y4703D02*
X1483D01*
X1465Y4685D02*
Y4721D01*
X1547Y4703D02*
X1583D01*
X1565Y4685D02*
Y4721D01*
X1447Y4603D02*
X1483D01*
X1465Y4585D02*
Y4621D01*
X1547Y4603D02*
X1583D01*
X1565Y4585D02*
Y4621D01*
X1447Y4503D02*
X1483D01*
X1465Y4485D02*
Y4521D01*
X1547Y4503D02*
X1583D01*
X1565Y4485D02*
Y4521D01*
X1447Y4403D02*
X1483D01*
X1465Y4385D02*
Y4421D01*
X1547Y4403D02*
X1583D01*
X1565Y4385D02*
Y4421D01*
X1162Y4250D02*
X1198D01*
X1180Y4232D02*
Y4268D01*
X1162Y4150D02*
X1198D01*
X1180Y4132D02*
Y4168D01*
X1447Y1903D02*
X1483D01*
X1465Y1885D02*
Y1921D01*
X1547Y1903D02*
X1583D01*
X1565Y1885D02*
Y1921D01*
X1447Y1803D02*
X1483D01*
X1465Y1785D02*
Y1821D01*
X1547Y1803D02*
X1583D01*
X1565Y1785D02*
Y1821D01*
X1447Y1703D02*
X1483D01*
X1465Y1685D02*
Y1721D01*
X1547Y1703D02*
X1583D01*
X1565Y1685D02*
Y1721D01*
X1447Y1603D02*
X1483D01*
X1465Y1585D02*
Y1621D01*
X1547Y1603D02*
X1583D01*
X1565Y1585D02*
Y1621D01*
X1447Y506D02*
X1483D01*
X1465Y488D02*
Y523D01*
X1547Y506D02*
X1583D01*
X1565Y488D02*
Y523D01*
X1447Y406D02*
X1483D01*
X1465Y388D02*
Y423D01*
X1547Y406D02*
X1583D01*
X1565Y388D02*
Y423D01*
X1447Y306D02*
X1483D01*
X1465Y288D02*
Y323D01*
X1547Y306D02*
X1583D01*
X1565Y288D02*
Y323D01*
X1447Y206D02*
X1483D01*
X1465Y188D02*
Y223D01*
X1547Y206D02*
X1583D01*
X1565Y188D02*
Y223D01*
X1447Y2603D02*
X1483D01*
X1465Y2585D02*
Y2621D01*
X1547Y2603D02*
X1583D01*
X1565Y2585D02*
Y2621D01*
X1447Y2503D02*
X1483D01*
X1465Y2485D02*
Y2521D01*
X1547Y2503D02*
X1583D01*
X1565Y2485D02*
Y2521D01*
X1447Y2403D02*
X1483D01*
X1465Y2385D02*
Y2421D01*
X1547Y2403D02*
X1583D01*
X1565Y2385D02*
Y2421D01*
X1447Y2303D02*
X1483D01*
X1465Y2285D02*
Y2321D01*
X1547Y2303D02*
X1583D01*
X1565Y2285D02*
Y2321D01*
X7127Y1080D02*
X7163D01*
X7145Y1062D02*
Y1098D01*
X7027Y1080D02*
X7063D01*
X7045Y1062D02*
Y1098D01*
X6927Y1080D02*
X6963D01*
X6945Y1062D02*
Y1098D01*
X6827Y1080D02*
X6863D01*
X6845Y1062D02*
Y1098D01*
X6727Y1080D02*
X6763D01*
X6745Y1062D02*
Y1098D01*
X6627Y1080D02*
X6663D01*
X6645Y1062D02*
Y1098D01*
X6527Y1080D02*
X6563D01*
X6545Y1062D02*
Y1098D01*
X6427Y1080D02*
X6463D01*
X6445Y1062D02*
Y1098D01*
X6327Y1080D02*
X6363D01*
X6345Y1062D02*
Y1098D01*
X6227Y1080D02*
X6263D01*
X6245Y1062D02*
Y1098D01*
X6127Y1080D02*
X6163D01*
X6145Y1062D02*
Y1098D01*
X6027Y1080D02*
X6063D01*
X6045Y1062D02*
Y1098D01*
X5927Y1080D02*
X5963D01*
X5945Y1062D02*
Y1098D01*
X5827Y1080D02*
X5863D01*
X5845Y1062D02*
Y1098D01*
X1447Y1204D02*
X1483D01*
X1465Y1186D02*
Y1222D01*
X1547Y1204D02*
X1583D01*
X1565Y1186D02*
Y1222D01*
X1447Y1104D02*
X1483D01*
X1465Y1086D02*
Y1122D01*
X1547Y1104D02*
X1583D01*
X1565Y1086D02*
Y1122D01*
X1447Y1004D02*
X1483D01*
X1465Y986D02*
Y1022D01*
X1547Y1004D02*
X1583D01*
X1565Y986D02*
Y1022D01*
X1447Y904D02*
X1483D01*
X1465Y886D02*
Y922D01*
X1547Y904D02*
X1583D01*
X1565Y886D02*
Y922D01*
X1447Y3303D02*
X1483D01*
X1465Y3285D02*
Y3321D01*
X1547Y3303D02*
X1583D01*
X1565Y3285D02*
Y3321D01*
X1447Y3203D02*
X1483D01*
X1465Y3185D02*
Y3221D01*
X1547Y3203D02*
X1583D01*
X1565Y3185D02*
Y3221D01*
X1447Y3103D02*
X1483D01*
X1465Y3085D02*
Y3121D01*
X1547Y3103D02*
X1583D01*
X1565Y3085D02*
Y3121D01*
X1447Y3003D02*
X1483D01*
X1465Y2985D02*
Y3021D01*
X1547Y3003D02*
X1583D01*
X1565Y2985D02*
Y3021D01*
X1447Y4003D02*
X1483D01*
X1465Y3985D02*
Y4021D01*
X1547Y4003D02*
X1583D01*
X1565Y3985D02*
Y4021D01*
X1447Y3903D02*
X1483D01*
X1465Y3885D02*
Y3921D01*
X1547Y3903D02*
X1583D01*
X1565Y3885D02*
Y3921D01*
X1447Y3803D02*
X1483D01*
X1465Y3785D02*
Y3821D01*
X1547Y3803D02*
X1583D01*
X1565Y3785D02*
Y3821D01*
X1447Y3703D02*
X1483D01*
X1465Y3685D02*
Y3721D01*
X1547Y3703D02*
X1583D01*
X1565Y3685D02*
Y3721D01*
X1447Y5402D02*
X1482D01*
X1465Y5384D02*
Y5420D01*
X1547Y5402D02*
X1582D01*
X1565Y5384D02*
Y5420D01*
X1447Y5302D02*
X1482D01*
X1465Y5284D02*
Y5320D01*
X1547Y5302D02*
X1582D01*
X1565Y5284D02*
Y5320D01*
X1447Y5202D02*
X1482D01*
X1465Y5184D02*
Y5220D01*
X1547Y5202D02*
X1582D01*
X1565Y5184D02*
Y5220D01*
X1447Y5102D02*
X1482D01*
X1465Y5084D02*
Y5120D01*
X1547Y5102D02*
X1582D01*
X1565Y5084D02*
Y5120D01*
X7127Y1677D02*
X7163D01*
X7145Y1659D02*
Y1694D01*
X7027Y1677D02*
X7063D01*
X7045Y1659D02*
Y1694D01*
X6927Y1677D02*
X6963D01*
X6945Y1659D02*
Y1694D01*
X6827Y1677D02*
X6863D01*
X6845Y1659D02*
Y1694D01*
X6727Y1677D02*
X6763D01*
X6745Y1659D02*
Y1694D01*
X6627Y1677D02*
X6663D01*
X6645Y1659D02*
Y1694D01*
X6527Y1677D02*
X6563D01*
X6545Y1659D02*
Y1694D01*
X6427Y1677D02*
X6463D01*
X6445Y1659D02*
Y1694D01*
X6327Y1677D02*
X6363D01*
X6345Y1659D02*
Y1694D01*
X6227Y1677D02*
X6263D01*
X6245Y1659D02*
Y1694D01*
X6127Y1677D02*
X6163D01*
X6145Y1659D02*
Y1694D01*
X6027Y1677D02*
X6063D01*
X6045Y1659D02*
Y1694D01*
X5927Y1677D02*
X5963D01*
X5945Y1659D02*
Y1694D01*
X5827Y1677D02*
X5863D01*
X5845Y1659D02*
Y1694D01*
X1162Y4940D02*
X1198D01*
X1180Y4922D02*
Y4958D01*
X1262Y4940D02*
X1298D01*
X1280Y4922D02*
Y4958D01*
X1362Y4940D02*
X1398D01*
X1380Y4922D02*
Y4958D01*
X1165Y4694D02*
X1195D01*
X1180Y4680D02*
Y4709D01*
X1165Y4594D02*
X1195D01*
X1180Y4580D02*
Y4609D01*
X1165Y4494D02*
X1195D01*
X1180Y4480D02*
Y4509D01*
X5807Y3900D02*
X5843D01*
X5825Y3882D02*
Y3918D01*
X5907Y3900D02*
X5943D01*
X5925Y3882D02*
Y3918D01*
X6007Y3900D02*
X6043D01*
X6025Y3882D02*
Y3918D01*
X6107Y3900D02*
X6143D01*
X6125Y3882D02*
Y3918D01*
X6207Y3900D02*
X6243D01*
X6225Y3882D02*
Y3918D01*
X6307Y3900D02*
X6343D01*
X6325Y3882D02*
Y3918D01*
X6407Y3900D02*
X6443D01*
X6425Y3882D02*
Y3918D01*
X6507Y3900D02*
X6543D01*
X6525Y3882D02*
Y3918D01*
X6607Y3900D02*
X6643D01*
X6625Y3882D02*
Y3918D01*
X6707Y3900D02*
X6743D01*
X6725Y3882D02*
Y3918D01*
X6807Y3900D02*
X6843D01*
X6825Y3882D02*
Y3918D01*
X6907Y3900D02*
X6943D01*
X6925Y3882D02*
Y3918D01*
X7007Y3900D02*
X7043D01*
X7025Y3882D02*
Y3918D01*
X7107Y3900D02*
X7143D01*
X7125Y3882D02*
Y3918D01*
X5807Y4499D02*
X5843D01*
X5825Y4481D02*
Y4516D01*
X5907Y4499D02*
X5943D01*
X5925Y4481D02*
Y4516D01*
X6007Y4499D02*
X6043D01*
X6025Y4481D02*
Y4516D01*
X6107Y4499D02*
X6143D01*
X6125Y4481D02*
Y4516D01*
X6207Y4499D02*
X6243D01*
X6225Y4481D02*
Y4516D01*
X6307Y4499D02*
X6343D01*
X6325Y4481D02*
Y4516D01*
X6407Y4499D02*
X6443D01*
X6425Y4481D02*
Y4516D01*
X6507Y4499D02*
X6543D01*
X6525Y4481D02*
Y4516D01*
X6607Y4499D02*
X6643D01*
X6625Y4481D02*
Y4516D01*
X6707Y4499D02*
X6743D01*
X6725Y4481D02*
Y4516D01*
X6807Y4499D02*
X6843D01*
X6825Y4481D02*
Y4516D01*
X6907Y4499D02*
X6943D01*
X6925Y4481D02*
Y4516D01*
X7007Y4499D02*
X7043D01*
X7025Y4481D02*
Y4516D01*
X7107Y4499D02*
X7143D01*
X7125Y4481D02*
Y4516D01*
X3386Y565D02*
X3414D01*
X3400Y551D02*
Y579D01*
X3391Y265D02*
X3419D01*
X3405Y251D02*
Y279D01*
X4127Y460D02*
X4155D01*
X4141Y446D02*
Y474D01*
X3166Y410D02*
X3194D01*
X3180Y396D02*
Y424D01*
X4354Y463D02*
X4382D01*
X4368Y449D02*
Y477D01*
X4136Y305D02*
X4164D01*
X4150Y291D02*
Y319D01*
X3161Y305D02*
X3189D01*
X3175Y291D02*
Y319D01*
X3391Y345D02*
X3419D01*
X3405Y331D02*
Y359D01*
X3393Y474D02*
X3421D01*
X3407Y460D02*
Y488D01*
X3692Y150D02*
X3720D01*
X3706Y136D02*
Y164D01*
X3455Y159D02*
X3483D01*
X3469Y145D02*
Y173D01*
X1981Y430D02*
X2009D01*
X1995Y416D02*
Y444D01*
X2681Y430D02*
X2709D01*
X2695Y416D02*
Y444D01*
X4581Y463D02*
X4609D01*
X4595Y449D02*
Y477D01*
X4586Y310D02*
X4614D01*
X4600Y296D02*
Y324D01*
X4596Y170D02*
X4624D01*
X4610Y156D02*
Y184D01*
X4967Y503D02*
X4995D01*
X4981Y489D02*
Y517D01*
X1981Y320D02*
X2009D01*
X1995Y306D02*
Y334D01*
X2681Y310D02*
X2709D01*
X2695Y296D02*
Y324D01*
X3545Y494D02*
X3573D01*
X3559Y480D02*
Y508D01*
X2090Y684D02*
X2118D01*
X2104Y670D02*
Y698D01*
X2010Y684D02*
X2038D01*
X2024Y670D02*
Y698D01*
X3547Y403D02*
X3575D01*
X3561Y389D02*
Y417D01*
X2090Y90D02*
X2118D01*
X2104Y76D02*
Y104D01*
X3547Y314D02*
X3575D01*
X3561Y300D02*
Y328D01*
X2821Y305D02*
X2849D01*
X2835Y291D02*
Y319D01*
X3545Y224D02*
X3573D01*
X3559Y210D02*
Y238D01*
X2821Y215D02*
X2849D01*
X2835Y201D02*
Y229D01*
X2651Y685D02*
X2679D01*
X2665Y671D02*
Y699D01*
X5316Y546D02*
X5344D01*
X5330Y532D02*
Y560D01*
X5506Y405D02*
X5534D01*
X5520Y391D02*
Y419D01*
X5136Y418D02*
X5164D01*
X5150Y404D02*
Y432D01*
X5096Y288D02*
X5124D01*
X5110Y274D02*
Y302D01*
X4966Y233D02*
X4994D01*
X4980Y219D02*
Y247D01*
X5096Y213D02*
X5124D01*
X5110Y199D02*
Y227D01*
X4966Y163D02*
X4994D01*
X4980Y149D02*
Y177D01*
X4353Y603D02*
X4381D01*
X4367Y589D02*
Y617D01*
X4356Y138D02*
X4384D01*
X4370Y124D02*
Y152D01*
X4326Y360D02*
X4354D01*
X4340Y346D02*
Y374D01*
X3386Y1265D02*
X3414D01*
X3400Y1251D02*
Y1279D01*
X3391Y965D02*
X3419D01*
X3405Y951D02*
Y979D01*
X4127Y1160D02*
X4155D01*
X4141Y1146D02*
Y1174D01*
X3166Y1110D02*
X3194D01*
X3180Y1096D02*
Y1124D01*
X4354Y1163D02*
X4382D01*
X4368Y1149D02*
Y1177D01*
X4136Y1005D02*
X4164D01*
X4150Y991D02*
Y1019D01*
X3161Y1005D02*
X3189D01*
X3175Y991D02*
Y1019D01*
X3391Y1045D02*
X3419D01*
X3405Y1031D02*
Y1059D01*
X3393Y1174D02*
X3421D01*
X3407Y1160D02*
Y1188D01*
X3692Y850D02*
X3720D01*
X3706Y836D02*
Y864D01*
X3455Y859D02*
X3483D01*
X3469Y845D02*
Y873D01*
X1981Y1130D02*
X2009D01*
X1995Y1116D02*
Y1144D01*
X2681Y1130D02*
X2709D01*
X2695Y1116D02*
Y1144D01*
X4581Y1163D02*
X4609D01*
X4595Y1149D02*
Y1177D01*
X4586Y1010D02*
X4614D01*
X4600Y996D02*
Y1024D01*
X4596Y870D02*
X4624D01*
X4610Y856D02*
Y884D01*
X4967Y1203D02*
X4995D01*
X4981Y1189D02*
Y1217D01*
X1981Y1020D02*
X2009D01*
X1995Y1006D02*
Y1034D01*
X2681Y1010D02*
X2709D01*
X2695Y996D02*
Y1024D01*
X3545Y1194D02*
X3573D01*
X3559Y1180D02*
Y1208D01*
X2090Y1384D02*
X2118D01*
X2104Y1370D02*
Y1398D01*
X2010Y1384D02*
X2038D01*
X2024Y1370D02*
Y1398D01*
X3547Y1103D02*
X3575D01*
X3561Y1089D02*
Y1117D01*
X2090Y790D02*
X2118D01*
X2104Y776D02*
Y804D01*
X3547Y1014D02*
X3575D01*
X3561Y1000D02*
Y1028D01*
X2821Y1005D02*
X2849D01*
X2835Y991D02*
Y1019D01*
X3545Y924D02*
X3573D01*
X3559Y910D02*
Y938D01*
X2821Y915D02*
X2849D01*
X2835Y901D02*
Y929D01*
X2651Y1385D02*
X2679D01*
X2665Y1371D02*
Y1399D01*
X5316Y1246D02*
X5344D01*
X5330Y1232D02*
Y1260D01*
X5506Y1105D02*
X5534D01*
X5520Y1091D02*
Y1119D01*
X5136Y1118D02*
X5164D01*
X5150Y1104D02*
Y1132D01*
X5096Y988D02*
X5124D01*
X5110Y974D02*
Y1002D01*
X4966Y933D02*
X4994D01*
X4980Y919D02*
Y947D01*
X5096Y913D02*
X5124D01*
X5110Y899D02*
Y927D01*
X4966Y863D02*
X4994D01*
X4980Y849D02*
Y877D01*
X4353Y1303D02*
X4381D01*
X4367Y1289D02*
Y1317D01*
X4356Y838D02*
X4384D01*
X4370Y824D02*
Y852D01*
X4326Y1060D02*
X4354D01*
X4340Y1046D02*
Y1074D01*
X3386Y1965D02*
X3414D01*
X3400Y1951D02*
Y1979D01*
X3391Y1665D02*
X3419D01*
X3405Y1651D02*
Y1679D01*
X4127Y1860D02*
X4155D01*
X4141Y1846D02*
Y1874D01*
X3166Y1810D02*
X3194D01*
X3180Y1796D02*
Y1824D01*
X4354Y1863D02*
X4382D01*
X4368Y1849D02*
Y1877D01*
X4136Y1705D02*
X4164D01*
X4150Y1691D02*
Y1719D01*
X3161Y1705D02*
X3189D01*
X3175Y1691D02*
Y1719D01*
X3391Y1745D02*
X3419D01*
X3405Y1731D02*
Y1759D01*
X3393Y1874D02*
X3421D01*
X3407Y1860D02*
Y1888D01*
X3692Y1550D02*
X3720D01*
X3706Y1536D02*
Y1564D01*
X3455Y1559D02*
X3483D01*
X3469Y1545D02*
Y1573D01*
X1981Y1830D02*
X2009D01*
X1995Y1816D02*
Y1844D01*
X2681Y1830D02*
X2709D01*
X2695Y1816D02*
Y1844D01*
X4581Y1863D02*
X4609D01*
X4595Y1849D02*
Y1877D01*
X4586Y1710D02*
X4614D01*
X4600Y1696D02*
Y1724D01*
X4596Y1570D02*
X4624D01*
X4610Y1556D02*
Y1584D01*
X4967Y1903D02*
X4995D01*
X4981Y1889D02*
Y1917D01*
X1981Y1720D02*
X2009D01*
X1995Y1706D02*
Y1734D01*
X2681Y1710D02*
X2709D01*
X2695Y1696D02*
Y1724D01*
X3545Y1894D02*
X3573D01*
X3559Y1880D02*
Y1908D01*
X2090Y2084D02*
X2118D01*
X2104Y2070D02*
Y2098D01*
X2010Y2084D02*
X2038D01*
X2024Y2070D02*
Y2098D01*
X3547Y1803D02*
X3575D01*
X3561Y1789D02*
Y1817D01*
X2090Y1490D02*
X2118D01*
X2104Y1476D02*
Y1504D01*
X3547Y1714D02*
X3575D01*
X3561Y1700D02*
Y1728D01*
X2821Y1705D02*
X2849D01*
X2835Y1691D02*
Y1719D01*
X3545Y1624D02*
X3573D01*
X3559Y1610D02*
Y1638D01*
X2821Y1615D02*
X2849D01*
X2835Y1601D02*
Y1629D01*
X2651Y2085D02*
X2679D01*
X2665Y2071D02*
Y2099D01*
X5316Y1946D02*
X5344D01*
X5330Y1932D02*
Y1960D01*
X5506Y1805D02*
X5534D01*
X5520Y1791D02*
Y1819D01*
X5136Y1818D02*
X5164D01*
X5150Y1804D02*
Y1832D01*
X5096Y1688D02*
X5124D01*
X5110Y1674D02*
Y1702D01*
X4966Y1633D02*
X4994D01*
X4980Y1619D02*
Y1647D01*
X5096Y1613D02*
X5124D01*
X5110Y1599D02*
Y1627D01*
X4966Y1563D02*
X4994D01*
X4980Y1549D02*
Y1577D01*
X4353Y2003D02*
X4381D01*
X4367Y1989D02*
Y2017D01*
X4356Y1538D02*
X4384D01*
X4370Y1524D02*
Y1552D01*
X4326Y1760D02*
X4354D01*
X4340Y1746D02*
Y1774D01*
X3386Y2665D02*
X3414D01*
X3400Y2651D02*
Y2679D01*
X3391Y2365D02*
X3419D01*
X3405Y2351D02*
Y2379D01*
X4127Y2560D02*
X4155D01*
X4141Y2546D02*
Y2574D01*
X3166Y2510D02*
X3194D01*
X3180Y2496D02*
Y2524D01*
X4354Y2563D02*
X4382D01*
X4368Y2549D02*
Y2577D01*
X4136Y2405D02*
X4164D01*
X4150Y2391D02*
Y2419D01*
X3161Y2405D02*
X3189D01*
X3175Y2391D02*
Y2419D01*
X3391Y2445D02*
X3419D01*
X3405Y2431D02*
Y2459D01*
X3393Y2574D02*
X3421D01*
X3407Y2560D02*
Y2588D01*
X3692Y2250D02*
X3720D01*
X3706Y2236D02*
Y2264D01*
X3455Y2259D02*
X3483D01*
X3469Y2245D02*
Y2273D01*
X1981Y2530D02*
X2009D01*
X1995Y2516D02*
Y2544D01*
X2681Y2530D02*
X2709D01*
X2695Y2516D02*
Y2544D01*
X4581Y2563D02*
X4609D01*
X4595Y2549D02*
Y2577D01*
X4586Y2410D02*
X4614D01*
X4600Y2396D02*
Y2424D01*
X4596Y2270D02*
X4624D01*
X4610Y2256D02*
Y2284D01*
X4967Y2603D02*
X4995D01*
X4981Y2589D02*
Y2617D01*
X1981Y2420D02*
X2009D01*
X1995Y2406D02*
Y2434D01*
X2681Y2410D02*
X2709D01*
X2695Y2396D02*
Y2424D01*
X3545Y2594D02*
X3573D01*
X3559Y2580D02*
Y2608D01*
X2090Y2784D02*
X2118D01*
X2104Y2770D02*
Y2798D01*
X2010Y2784D02*
X2038D01*
X2024Y2770D02*
Y2798D01*
X3547Y2503D02*
X3575D01*
X3561Y2489D02*
Y2517D01*
X2090Y2190D02*
X2118D01*
X2104Y2176D02*
Y2204D01*
X3547Y2414D02*
X3575D01*
X3561Y2400D02*
Y2428D01*
X2821Y2405D02*
X2849D01*
X2835Y2391D02*
Y2419D01*
X3545Y2324D02*
X3573D01*
X3559Y2310D02*
Y2338D01*
X2821Y2315D02*
X2849D01*
X2835Y2301D02*
Y2329D01*
X2651Y2785D02*
X2679D01*
X2665Y2771D02*
Y2799D01*
X5316Y2646D02*
X5344D01*
X5330Y2632D02*
Y2660D01*
X5506Y2505D02*
X5534D01*
X5520Y2491D02*
Y2519D01*
X5136Y2518D02*
X5164D01*
X5150Y2504D02*
Y2532D01*
X5096Y2388D02*
X5124D01*
X5110Y2374D02*
Y2402D01*
X4966Y2333D02*
X4994D01*
X4980Y2319D02*
Y2347D01*
X5096Y2313D02*
X5124D01*
X5110Y2299D02*
Y2327D01*
X4966Y2263D02*
X4994D01*
X4980Y2249D02*
Y2277D01*
X4353Y2703D02*
X4381D01*
X4367Y2689D02*
Y2717D01*
X4356Y2238D02*
X4384D01*
X4370Y2224D02*
Y2252D01*
X4326Y2460D02*
X4354D01*
X4340Y2446D02*
Y2474D01*
X3386Y3365D02*
X3414D01*
X3400Y3351D02*
Y3379D01*
X3391Y3065D02*
X3419D01*
X3405Y3051D02*
Y3079D01*
X4127Y3260D02*
X4155D01*
X4141Y3246D02*
Y3274D01*
X3166Y3210D02*
X3194D01*
X3180Y3196D02*
Y3224D01*
X4354Y3263D02*
X4382D01*
X4368Y3249D02*
Y3277D01*
X4136Y3105D02*
X4164D01*
X4150Y3091D02*
Y3119D01*
X3161Y3105D02*
X3189D01*
X3175Y3091D02*
Y3119D01*
X3391Y3145D02*
X3419D01*
X3405Y3131D02*
Y3159D01*
X3393Y3274D02*
X3421D01*
X3407Y3260D02*
Y3288D01*
X3692Y2950D02*
X3720D01*
X3706Y2936D02*
Y2964D01*
X3455Y2959D02*
X3483D01*
X3469Y2945D02*
Y2973D01*
X1981Y3230D02*
X2009D01*
X1995Y3216D02*
Y3244D01*
X2681Y3230D02*
X2709D01*
X2695Y3216D02*
Y3244D01*
X4581Y3263D02*
X4609D01*
X4595Y3249D02*
Y3277D01*
X4586Y3110D02*
X4614D01*
X4600Y3096D02*
Y3124D01*
X4596Y2970D02*
X4624D01*
X4610Y2956D02*
Y2984D01*
X4967Y3303D02*
X4995D01*
X4981Y3289D02*
Y3317D01*
X1981Y3120D02*
X2009D01*
X1995Y3106D02*
Y3134D01*
X2681Y3110D02*
X2709D01*
X2695Y3096D02*
Y3124D01*
X3545Y3294D02*
X3573D01*
X3559Y3280D02*
Y3308D01*
X2090Y3484D02*
X2118D01*
X2104Y3470D02*
Y3498D01*
X2010Y3484D02*
X2038D01*
X2024Y3470D02*
Y3498D01*
X3547Y3203D02*
X3575D01*
X3561Y3189D02*
Y3217D01*
X2090Y2890D02*
X2118D01*
X2104Y2876D02*
Y2904D01*
X3547Y3114D02*
X3575D01*
X3561Y3100D02*
Y3128D01*
X2821Y3105D02*
X2849D01*
X2835Y3091D02*
Y3119D01*
X3545Y3024D02*
X3573D01*
X3559Y3010D02*
Y3038D01*
X2821Y3015D02*
X2849D01*
X2835Y3001D02*
Y3029D01*
X2651Y3485D02*
X2679D01*
X2665Y3471D02*
Y3499D01*
X5316Y3346D02*
X5344D01*
X5330Y3332D02*
Y3360D01*
X5506Y3205D02*
X5534D01*
X5520Y3191D02*
Y3219D01*
X5136Y3218D02*
X5164D01*
X5150Y3204D02*
Y3232D01*
X5096Y3088D02*
X5124D01*
X5110Y3074D02*
Y3102D01*
X4966Y3033D02*
X4994D01*
X4980Y3019D02*
Y3047D01*
X5096Y3013D02*
X5124D01*
X5110Y2999D02*
Y3027D01*
X4966Y2963D02*
X4994D01*
X4980Y2949D02*
Y2977D01*
X4353Y3403D02*
X4381D01*
X4367Y3389D02*
Y3417D01*
X4356Y2938D02*
X4384D01*
X4370Y2924D02*
Y2952D01*
X4326Y3160D02*
X4354D01*
X4340Y3146D02*
Y3174D01*
X3386Y4065D02*
X3414D01*
X3400Y4051D02*
Y4079D01*
X3391Y3765D02*
X3419D01*
X3405Y3751D02*
Y3779D01*
X4127Y3960D02*
X4155D01*
X4141Y3946D02*
Y3974D01*
X3166Y3910D02*
X3194D01*
X3180Y3896D02*
Y3924D01*
X4354Y3963D02*
X4382D01*
X4368Y3949D02*
Y3977D01*
X4136Y3805D02*
X4164D01*
X4150Y3791D02*
Y3819D01*
X3161Y3805D02*
X3189D01*
X3175Y3791D02*
Y3819D01*
X3391Y3845D02*
X3419D01*
X3405Y3831D02*
Y3859D01*
X3393Y3974D02*
X3421D01*
X3407Y3960D02*
Y3988D01*
X3692Y3650D02*
X3720D01*
X3706Y3636D02*
Y3664D01*
X3455Y3659D02*
X3483D01*
X3469Y3645D02*
Y3673D01*
X1981Y3930D02*
X2009D01*
X1995Y3916D02*
Y3944D01*
X2681Y3930D02*
X2709D01*
X2695Y3916D02*
Y3944D01*
X4581Y3963D02*
X4609D01*
X4595Y3949D02*
Y3977D01*
X4586Y3810D02*
X4614D01*
X4600Y3796D02*
Y3824D01*
X4596Y3670D02*
X4624D01*
X4610Y3656D02*
Y3684D01*
X4967Y4003D02*
X4995D01*
X4981Y3989D02*
Y4017D01*
X1981Y3820D02*
X2009D01*
X1995Y3806D02*
Y3834D01*
X2681Y3810D02*
X2709D01*
X2695Y3796D02*
Y3824D01*
X3545Y3994D02*
X3573D01*
X3559Y3980D02*
Y4008D01*
X2090Y4184D02*
X2118D01*
X2104Y4170D02*
Y4198D01*
X2010Y4184D02*
X2038D01*
X2024Y4170D02*
Y4198D01*
X3547Y3903D02*
X3575D01*
X3561Y3889D02*
Y3917D01*
X2090Y3590D02*
X2118D01*
X2104Y3576D02*
Y3604D01*
X3547Y3814D02*
X3575D01*
X3561Y3800D02*
Y3828D01*
X2821Y3805D02*
X2849D01*
X2835Y3791D02*
Y3819D01*
X3545Y3724D02*
X3573D01*
X3559Y3710D02*
Y3738D01*
X2821Y3715D02*
X2849D01*
X2835Y3701D02*
Y3729D01*
X2651Y4185D02*
X2679D01*
X2665Y4171D02*
Y4199D01*
X5316Y4046D02*
X5344D01*
X5330Y4032D02*
Y4060D01*
X5506Y3905D02*
X5534D01*
X5520Y3891D02*
Y3919D01*
X5136Y3918D02*
X5164D01*
X5150Y3904D02*
Y3932D01*
X5096Y3788D02*
X5124D01*
X5110Y3774D02*
Y3802D01*
X4966Y3733D02*
X4994D01*
X4980Y3719D02*
Y3747D01*
X5096Y3713D02*
X5124D01*
X5110Y3699D02*
Y3727D01*
X4966Y3663D02*
X4994D01*
X4980Y3649D02*
Y3677D01*
X4353Y4103D02*
X4381D01*
X4367Y4089D02*
Y4117D01*
X4356Y3638D02*
X4384D01*
X4370Y3624D02*
Y3652D01*
X4326Y3860D02*
X4354D01*
X4340Y3846D02*
Y3874D01*
X3386Y4765D02*
X3414D01*
X3400Y4751D02*
Y4779D01*
X3391Y4465D02*
X3419D01*
X3405Y4451D02*
Y4479D01*
X4127Y4660D02*
X4155D01*
X4141Y4646D02*
Y4674D01*
X3166Y4610D02*
X3194D01*
X3180Y4596D02*
Y4624D01*
X4354Y4663D02*
X4382D01*
X4368Y4649D02*
Y4677D01*
X4136Y4505D02*
X4164D01*
X4150Y4491D02*
Y4519D01*
X3161Y4505D02*
X3189D01*
X3175Y4491D02*
Y4519D01*
X3391Y4545D02*
X3419D01*
X3405Y4531D02*
Y4559D01*
X3393Y4674D02*
X3421D01*
X3407Y4660D02*
Y4688D01*
X3692Y4350D02*
X3720D01*
X3706Y4336D02*
Y4364D01*
X3455Y4359D02*
X3483D01*
X3469Y4345D02*
Y4373D01*
X1981Y4630D02*
X2009D01*
X1995Y4616D02*
Y4644D01*
X2681Y4630D02*
X2709D01*
X2695Y4616D02*
Y4644D01*
X4581Y4663D02*
X4609D01*
X4595Y4649D02*
Y4677D01*
X4586Y4510D02*
X4614D01*
X4600Y4496D02*
Y4524D01*
X4596Y4370D02*
X4624D01*
X4610Y4356D02*
Y4384D01*
X4967Y4703D02*
X4995D01*
X4981Y4689D02*
Y4717D01*
X1981Y4520D02*
X2009D01*
X1995Y4506D02*
Y4534D01*
X2681Y4510D02*
X2709D01*
X2695Y4496D02*
Y4524D01*
X3545Y4694D02*
X3573D01*
X3559Y4680D02*
Y4708D01*
X2090Y4884D02*
X2118D01*
X2104Y4870D02*
Y4898D01*
X2010Y4884D02*
X2038D01*
X2024Y4870D02*
Y4898D01*
X3547Y4603D02*
X3575D01*
X3561Y4589D02*
Y4617D01*
X2090Y4290D02*
X2118D01*
X2104Y4276D02*
Y4304D01*
X3547Y4514D02*
X3575D01*
X3561Y4500D02*
Y4528D01*
X2821Y4505D02*
X2849D01*
X2835Y4491D02*
Y4519D01*
X3545Y4424D02*
X3573D01*
X3559Y4410D02*
Y4438D01*
X2821Y4415D02*
X2849D01*
X2835Y4401D02*
Y4429D01*
X2651Y4885D02*
X2679D01*
X2665Y4871D02*
Y4899D01*
X5316Y4746D02*
X5344D01*
X5330Y4732D02*
Y4760D01*
X5506Y4605D02*
X5534D01*
X5520Y4591D02*
Y4619D01*
X5136Y4618D02*
X5164D01*
X5150Y4604D02*
Y4632D01*
X5096Y4488D02*
X5124D01*
X5110Y4474D02*
Y4502D01*
X4966Y4433D02*
X4994D01*
X4980Y4419D02*
Y4447D01*
X5096Y4413D02*
X5124D01*
X5110Y4399D02*
Y4427D01*
X4966Y4363D02*
X4994D01*
X4980Y4349D02*
Y4377D01*
X4353Y4803D02*
X4381D01*
X4367Y4789D02*
Y4817D01*
X4356Y4338D02*
X4384D01*
X4370Y4324D02*
Y4352D01*
X4326Y4560D02*
X4354D01*
X4340Y4546D02*
Y4574D01*
X4581Y5365D02*
X4609D01*
X4595Y5351D02*
Y5379D01*
X4136Y5207D02*
X4164D01*
X4150Y5193D02*
Y5221D01*
X3386Y5467D02*
X3414D01*
X3400Y5453D02*
Y5481D01*
X3391Y5167D02*
X3419D01*
X3405Y5153D02*
Y5181D01*
X4353Y5365D02*
X4381D01*
X4367Y5351D02*
Y5379D01*
X4127Y5362D02*
X4155D01*
X4141Y5348D02*
Y5376D01*
X3166Y5312D02*
X3194D01*
X3180Y5298D02*
Y5326D01*
X3161Y5207D02*
X3189D01*
X3175Y5193D02*
Y5221D01*
X3392Y5376D02*
X3420D01*
X3406Y5362D02*
Y5390D01*
X3391Y5247D02*
X3419D01*
X3405Y5233D02*
Y5261D01*
X3454Y5061D02*
X3482D01*
X3468Y5047D02*
Y5075D01*
X3691Y5052D02*
X3719D01*
X3705Y5038D02*
Y5066D01*
X1981Y5332D02*
X2009D01*
X1995Y5318D02*
Y5346D01*
X2681Y5332D02*
X2709D01*
X2695Y5318D02*
Y5346D01*
X4586Y5212D02*
X4614D01*
X4600Y5198D02*
Y5226D01*
X4596Y5072D02*
X4624D01*
X4610Y5058D02*
Y5086D01*
X4967Y5405D02*
X4995D01*
X4981Y5391D02*
Y5419D01*
X1981Y5222D02*
X2009D01*
X1995Y5208D02*
Y5236D01*
X2681Y5212D02*
X2709D01*
X2695Y5198D02*
Y5226D01*
X2010Y5586D02*
X2038D01*
X2024Y5572D02*
Y5600D01*
X3545Y5396D02*
X3573D01*
X3559Y5382D02*
Y5410D01*
X2090Y5586D02*
X2118D01*
X2104Y5572D02*
Y5600D01*
X3547Y5305D02*
X3575D01*
X3561Y5291D02*
Y5319D01*
X2090Y4992D02*
X2118D01*
X2104Y4978D02*
Y5006D01*
X3546Y5216D02*
X3574D01*
X3560Y5202D02*
Y5230D01*
X2821Y5207D02*
X2849D01*
X2835Y5193D02*
Y5221D01*
X2651Y5587D02*
X2679D01*
X2665Y5573D02*
Y5601D01*
X3545Y5126D02*
X3573D01*
X3559Y5112D02*
Y5140D01*
X2821Y5117D02*
X2849D01*
X2835Y5103D02*
Y5131D01*
X5316Y5448D02*
X5344D01*
X5330Y5434D02*
Y5462D01*
X5096Y5115D02*
X5124D01*
X5110Y5101D02*
Y5129D01*
X4966Y5065D02*
X4994D01*
X4980Y5051D02*
Y5079D01*
X5096Y5190D02*
X5124D01*
X5110Y5176D02*
Y5204D01*
X4966Y5135D02*
X4994D01*
X4980Y5121D02*
Y5149D01*
X5136Y5320D02*
X5164D01*
X5150Y5306D02*
Y5334D01*
X5506Y5307D02*
X5534D01*
X5520Y5293D02*
Y5321D01*
X4352Y5505D02*
X4380D01*
X4366Y5491D02*
Y5519D01*
X4355Y5040D02*
X4383D01*
X4369Y5026D02*
Y5054D01*
X4326Y5262D02*
X4354D01*
X4340Y5248D02*
Y5276D01*
M02*
