M48
;Layer_Color=9474304
;FILE_FORMAT=2:3
INCH,LZ
;TYPE=PLATED
T1F00S00C0.028
T2F00S00C0.029
T3F00S00C0.035
%
T01
X02104Y0009
X01995Y0032
Y0043
X02024Y00684
X02104
Y0079
X01995Y0102
Y0113
X02024Y01384
X02104
Y0149
X02665Y01385
X02695Y0113
Y0101
X02835Y01005
Y00915
X02665Y00685
X02695Y0043
Y0031
X02835Y00305
Y00215
X03175Y00305
X0318Y0041
X03405Y00345
Y00265
X03469Y00159
X03559Y00224
X03561Y00314
X03561Y00403
X03559Y00494
X03407Y00474
X034Y00565
X03469Y00859
X03559Y00924
X03561Y01014
X03561Y01103
X03559Y01194
X03407Y01174
X034Y01265
X03405Y01045
Y00965
X03175Y01005
X0318Y0111
X03469Y01559
X03706Y0155
X0437Y01538
X04367Y01303
X04368Y01163
X0434Y0106
X0415Y01005
X04141Y0116
X04595Y01163
X046Y0101
X0461Y0087
X0437Y00838
X04367Y00603
X04368Y00463
X0434Y0036
X0415Y00305
X04141Y0046
X04595Y00463
X046Y0031
X0461Y0017
X0437Y00138
X03706Y0015
Y0085
X0498Y00863
Y00933
X0511Y00913
Y00988
X0515Y01118
X04981Y01203
X0533Y01246
X0552Y01105
Y00405
X0533Y00546
X0515Y00418
X0511Y00288
Y00213
X0498Y00233
Y00163
X04981Y00503
X0498Y01563
Y01633
X0511Y01613
Y01688
X0515Y01818
X04981Y01903
X0498Y02263
Y02333
X0511Y02313
Y02388
X0515Y02518
X04981Y02603
X0498Y02963
Y03033
X0511Y03013
Y03088
X0533Y02646
X0552Y02505
Y01805
X0533Y01946
X04595Y01863
X046Y0171
X0461Y0157
X0434Y0176
X04368Y01863
X04367Y02003
X0437Y02238
X0434Y0246
X04368Y02563
X04367Y02703
X0437Y02938
X0461Y0297
X046Y0311
X0415Y03105
X04141Y0256
X0415Y02405
X046Y0241
X0461Y0227
X04595Y02563
X03559Y02594
X03561Y02503
X03561Y02414
X03559Y02324
X03469Y02259
X03405Y02365
Y02445
X03407Y02574
X034Y02665
X03469Y02959
X03559Y03024
X03561Y03114
X03405Y03065
X03175Y03105
X0318Y0251
X03175Y02405
X0318Y0181
X03175Y01705
X03405Y01665
Y01745
X03407Y01874
X034Y01965
X03559Y01894
X03561Y01803
X03561Y01714
X03559Y01624
X0415Y01705
X04141Y0186
X03706Y0225
Y0295
X02835Y03015
Y03105
X02695Y0311
X02665Y02785
X02695Y0253
Y0241
X02835Y02405
Y02315
X02665Y02085
X02695Y0183
Y0171
X02835Y01705
Y01615
X01995Y0172
Y0183
X02024Y02084
X02104
Y0219
X01995Y0242
Y0253
X02024Y02784
X02104
Y0289
X01995Y0312
Y0323
X02024Y03484
X02104
Y0359
X01995Y0382
Y0393
X02024Y04184
X02104
Y0429
X01995Y0452
Y0463
X02695
Y0451
X02835Y04505
Y04415
X02665Y04185
X02695Y0393
Y0381
X02835Y03805
Y03715
X02665Y03485
X02695Y0323
X0318Y0321
X03405Y03145
X03407Y03274
X034Y03365
X03559Y03294
X03561Y03203
X03559Y03724
X03561Y03814
X03561Y03903
X03559Y03994
X03407Y03974
X034Y04065
X03405Y03845
Y03765
X03469Y03659
X03706Y0365
X0415Y03805
X04141Y0396
X04368Y03963
X0434Y0386
X0437Y03638
X04367Y03403
X04368Y03263
X0434Y0316
X04141Y0326
X04595Y03263
X0461Y0367
X046Y0381
X04595Y03963
X04367Y04103
X0437Y04338
X0434Y0456
X04368Y04663
X04595
X046Y0451
X0461Y0437
X0415Y04505
X04141Y0466
X03561Y04603
X03561Y04514
X03559Y04424
X03469Y04359
X03405Y04465
Y04545
X03407Y04674
X0318Y0461
X03175Y04505
X0318Y0391
X03175Y03805
X03706Y0435
X0498Y04363
Y04433
X0511Y04413
Y04488
X0515Y04618
X0552Y04605
Y03905
X0533Y04046
X0515Y03918
X0511Y03788
Y03713
X0498Y03733
Y03663
X04981Y04003
Y03303
X0515Y03218
X0533Y03346
X0552Y03205
X0533Y04746
X04981Y04703
X0498Y05065
Y05135
X0511Y05115
Y0519
X0515Y0532
X04981Y05405
X0533Y05448
X0552Y05307
X04595Y05365
X046Y05212
X0461Y05072
X04369Y0504
X04367Y04803
X0434Y05262
X04367Y05365
X04366Y05505
X04141Y05362
X0415Y05207
X0356Y05216
X03561Y05305
X03559Y05396
X03406Y05376
X034Y05467
X03405Y05247
Y05167
X03468Y05061
X03559Y05126
X03705Y05052
X03559Y04694
X034Y04765
X03175Y05207
X0318Y05312
X02835Y05207
Y05117
X02695Y05212
Y05332
X02665Y05587
X02104Y05586
X02024
X01995Y05332
Y05222
X02104Y04992
X02104Y04884
X02024
X02665Y04885
T02
X0118Y04494
Y04594
Y04694
T03
X01465Y00206
Y00306
Y00406
Y00506
Y00904
Y01004
Y01104
Y01204
X01565
Y01104
Y01004
Y00904
Y00506
Y00406
Y00306
Y00206
X05845Y0108
X05945
X06045
X06145
X06245
X06345
X06445
X06545
X06645
X06745
X06845
X06945
X07045
X07145
Y01677
X07045
X06945
X06845
X06745
X06645
X06545
X06445
X06345
X06245
X06145
X06045
X05945
X05845
X01565Y01703
Y01803
Y01903
Y01603
Y02303
Y02403
Y02503
Y02603
Y03003
Y03103
X01465
Y03003
Y02603
Y02503
Y02403
Y02303
Y01903
Y01803
Y01703
Y01603
Y03203
Y03303
Y03703
Y03803
Y03903
Y04003
Y04403
Y04503
Y04603
X0118Y0425
Y0415
X01565Y04003
Y03903
Y03803
Y03703
Y03303
Y03203
Y04403
Y04503
Y04603
X05825Y04499
X05925
X06025
X06125
X06225
Y039
X06125
X06025
X05925
X05825
X06325
X06425
X06525
X06625
X06725
X06825
X06925
X07025
X07125
Y04499
X07025
X06925
X06825
X06725
X06625
X06525
X06425
X06325
X01565Y04703
X01565Y05102
Y05202
Y05302
Y05402
X01465
Y05302
Y05202
Y05102
X0138Y0494
X0128
X0118
X01465Y04703
M30
