G04*
G04 #@! TF.GenerationSoftware,Altium Limited,Altium Designer,19.0.10 (269)*
G04*
G04 Layer_Physical_Order=2*
G04 Layer_Color=32768*
%FSLAX23Y23*%
%MOIN*%
G70*
G01*
G75*
%ADD10C,0.008*%
%ADD12C,0.010*%
%ADD13C,0.020*%
%ADD14C,0.004*%
%ADD41C,0.040*%
%ADD42C,0.075*%
G04:AMPARAMS|DCode=43|XSize=95.433mil|YSize=95.433mil|CornerRadius=0mil|HoleSize=0mil|Usage=FLASHONLY|Rotation=0.000|XOffset=0mil|YOffset=0mil|HoleType=Round|Shape=Relief|Width=10mil|Gap=10mil|Entries=4|*
%AMTHD43*
7,0,0,0.095,0.075,0.010,45*
%
%ADD43THD43*%
%ADD44C,0.069*%
G04:AMPARAMS|DCode=45|XSize=89.134mil|YSize=89.134mil|CornerRadius=0mil|HoleSize=0mil|Usage=FLASHONLY|Rotation=0.000|XOffset=0mil|YOffset=0mil|HoleType=Round|Shape=Relief|Width=10mil|Gap=10mil|Entries=4|*
%AMTHD45*
7,0,0,0.089,0.069,0.010,45*
%
%ADD45THD45*%
%ADD46C,0.068*%
G04:AMPARAMS|DCode=47|XSize=88mil|YSize=88mil|CornerRadius=0mil|HoleSize=0mil|Usage=FLASHONLY|Rotation=0.000|XOffset=0mil|YOffset=0mil|HoleType=Round|Shape=Relief|Width=10mil|Gap=10mil|Entries=4|*
%AMTHD47*
7,0,0,0.088,0.068,0.010,45*
%
%ADD47THD47*%
D10*
X1086Y4424D02*
Y4774D01*
Y4424D02*
X1275D01*
Y4774D01*
X1086D02*
X1275D01*
D12*
X7360Y5700D02*
X7370Y5690D01*
D13*
X1000Y0D02*
Y5700D01*
X7370D01*
Y0D02*
Y5700D01*
X1000Y0D02*
X7370D01*
D14*
X4718Y475D02*
X4768Y525D01*
X4718Y135D02*
Y525D01*
Y135D02*
X4872D01*
Y525D01*
X4718D02*
X4872D01*
X5381Y195D02*
X5407Y220D01*
Y195D02*
Y391D01*
X5234D02*
X5407D01*
X5234Y195D02*
Y391D01*
Y195D02*
X5407D01*
X4425Y525D02*
X4475D01*
Y604D01*
X4425D02*
X4475D01*
X4425Y525D02*
Y604D01*
Y459D02*
X4475D01*
X4425Y380D02*
Y459D01*
Y380D02*
X4475D01*
Y459D01*
X4425Y88D02*
X4475D01*
Y167D01*
X4425D02*
X4475D01*
X4425Y88D02*
Y167D01*
Y315D02*
X4475D01*
X4425Y236D02*
Y315D01*
Y236D02*
X4475D01*
Y315D01*
X4718Y1225D02*
X4872D01*
Y835D02*
Y1225D01*
X4718Y835D02*
X4872D01*
X4718D02*
Y1225D01*
Y1175D02*
X4768Y1225D01*
X5381Y895D02*
X5407Y920D01*
Y895D02*
Y1091D01*
X5234D02*
X5407D01*
X5234Y895D02*
Y1091D01*
Y895D02*
X5407D01*
X4425Y1225D02*
X4475D01*
Y1304D01*
X4425D02*
X4475D01*
X4425Y1225D02*
Y1304D01*
Y1159D02*
X4475D01*
X4425Y1080D02*
Y1159D01*
Y1080D02*
X4475D01*
Y1159D01*
X4425Y788D02*
X4475D01*
Y867D01*
X4425D02*
X4475D01*
X4425Y788D02*
Y867D01*
Y1015D02*
X4475D01*
X4425Y936D02*
Y1015D01*
Y936D02*
X4475D01*
Y1015D01*
X4718Y1875D02*
X4768Y1925D01*
X4718Y1535D02*
Y1925D01*
Y1535D02*
X4872D01*
Y1925D01*
X4718D02*
X4872D01*
X5381Y1595D02*
X5407Y1620D01*
Y1595D02*
Y1791D01*
X5234D02*
X5407D01*
X5234Y1595D02*
Y1791D01*
Y1595D02*
X5407D01*
X4425Y1925D02*
X4475D01*
Y2004D01*
X4425D02*
X4475D01*
X4425Y1925D02*
Y2004D01*
Y1859D02*
X4475D01*
X4425Y1780D02*
Y1859D01*
Y1780D02*
X4475D01*
Y1859D01*
X4425Y1488D02*
X4475D01*
Y1567D01*
X4425D02*
X4475D01*
X4425Y1488D02*
Y1567D01*
Y1715D02*
X4475D01*
X4425Y1636D02*
Y1715D01*
Y1636D02*
X4475D01*
Y1715D01*
X4718Y2575D02*
X4768Y2625D01*
X4718Y2235D02*
Y2625D01*
Y2235D02*
X4872D01*
Y2625D01*
X4718D02*
X4872D01*
X5381Y2295D02*
X5407Y2320D01*
Y2295D02*
Y2491D01*
X5234D02*
X5407D01*
X5234Y2295D02*
Y2491D01*
Y2295D02*
X5407D01*
X4425Y2625D02*
X4475D01*
Y2704D01*
X4425D02*
X4475D01*
X4425Y2625D02*
Y2704D01*
Y2559D02*
X4475D01*
X4425Y2480D02*
Y2559D01*
Y2480D02*
X4475D01*
Y2559D01*
X4425Y2188D02*
X4475D01*
Y2267D01*
X4425D02*
X4475D01*
X4425Y2188D02*
Y2267D01*
Y2415D02*
X4475D01*
X4425Y2336D02*
Y2415D01*
Y2336D02*
X4475D01*
Y2415D01*
X4718Y3275D02*
X4768Y3325D01*
X4718Y2935D02*
Y3325D01*
Y2935D02*
X4872D01*
Y3325D01*
X4718D02*
X4872D01*
X5381Y2995D02*
X5407Y3020D01*
Y2995D02*
Y3191D01*
X5234D02*
X5407D01*
X5234Y2995D02*
Y3191D01*
Y2995D02*
X5407D01*
X4425Y3325D02*
X4475D01*
Y3404D01*
X4425D02*
X4475D01*
X4425Y3325D02*
Y3404D01*
Y3259D02*
X4475D01*
X4425Y3180D02*
Y3259D01*
Y3180D02*
X4475D01*
Y3259D01*
X4425Y2888D02*
X4475D01*
Y2967D01*
X4425D02*
X4475D01*
X4425Y2888D02*
Y2967D01*
Y3115D02*
X4475D01*
X4425Y3036D02*
Y3115D01*
Y3036D02*
X4475D01*
Y3115D01*
X4718Y3975D02*
X4768Y4025D01*
X4718Y3635D02*
Y4025D01*
Y3635D02*
X4872D01*
Y4025D01*
X4718D02*
X4872D01*
X5381Y3695D02*
X5407Y3720D01*
Y3695D02*
Y3891D01*
X5234D02*
X5407D01*
X5234Y3695D02*
Y3891D01*
Y3695D02*
X5407D01*
X4425Y4025D02*
X4475D01*
Y4104D01*
X4425D02*
X4475D01*
X4425Y4025D02*
Y4104D01*
Y3959D02*
X4475D01*
X4425Y3880D02*
Y3959D01*
Y3880D02*
X4475D01*
Y3959D01*
X4425Y3588D02*
X4475D01*
Y3667D01*
X4425D02*
X4475D01*
X4425Y3588D02*
Y3667D01*
Y3815D02*
X4475D01*
X4425Y3736D02*
Y3815D01*
Y3736D02*
X4475D01*
Y3815D01*
X4718Y4675D02*
X4768Y4725D01*
X4718Y4335D02*
Y4725D01*
Y4335D02*
X4872D01*
Y4725D01*
X4718D02*
X4872D01*
X5381Y4395D02*
X5407Y4420D01*
Y4395D02*
Y4591D01*
X5234D02*
X5407D01*
X5234Y4395D02*
Y4591D01*
Y4395D02*
X5407D01*
X4425Y4725D02*
X4475D01*
Y4804D01*
X4425D02*
X4475D01*
X4425Y4725D02*
Y4804D01*
Y4659D02*
X4475D01*
X4425Y4580D02*
Y4659D01*
Y4580D02*
X4475D01*
Y4659D01*
X4425Y4288D02*
X4475D01*
Y4367D01*
X4425D02*
X4475D01*
X4425Y4288D02*
Y4367D01*
Y4515D02*
X4475D01*
X4425Y4436D02*
Y4515D01*
Y4436D02*
X4475D01*
Y4515D01*
X5381Y5097D02*
X5407Y5122D01*
Y5097D02*
Y5293D01*
X5233D02*
X5407D01*
X5233Y5097D02*
Y5293D01*
Y5097D02*
X5407D01*
X4718Y5377D02*
X4768Y5427D01*
X4718Y5037D02*
Y5427D01*
Y5037D02*
X4871D01*
Y5427D01*
X4718D02*
X4871D01*
X4425Y4990D02*
X4474D01*
Y5069D01*
X4425D02*
X4474D01*
X4425Y4990D02*
Y5069D01*
Y5217D02*
X4474D01*
X4425Y5138D02*
Y5217D01*
Y5138D02*
X4474D01*
Y5217D01*
X4425Y5427D02*
X4474D01*
Y5506D01*
X4425D02*
X4474D01*
X4425Y5427D02*
Y5506D01*
Y5361D02*
X4474D01*
X4425Y5282D02*
Y5361D01*
Y5282D02*
X4474D01*
Y5361D01*
X2586Y3380D02*
Y3430D01*
Y3380D02*
X2664D01*
Y3430D01*
X2586D02*
X2664D01*
X2586Y825D02*
Y875D01*
Y825D02*
X2664D01*
Y875D01*
X2586D02*
X2664D01*
X2586Y1280D02*
Y1330D01*
Y1280D02*
X2664D01*
Y1330D01*
X2586D02*
X2664D01*
X2585Y5027D02*
Y5077D01*
Y5027D02*
X2664D01*
Y5077D01*
X2585D02*
X2664D01*
X2586Y2680D02*
Y2730D01*
Y2680D02*
X2664D01*
Y2730D01*
X2586D02*
X2664D01*
X2586Y2925D02*
Y2975D01*
Y2925D02*
X2664D01*
Y2975D01*
X2586D02*
X2664D01*
X2586Y2225D02*
Y2275D01*
Y2225D02*
X2664D01*
Y2275D01*
X2586D02*
X2664D01*
X2586Y4080D02*
Y4130D01*
Y4080D02*
X2664D01*
Y4130D01*
X2586D02*
X2664D01*
X2586Y125D02*
Y175D01*
Y125D02*
X2664D01*
Y175D01*
X2586D02*
X2664D01*
X2586Y4780D02*
Y4830D01*
Y4780D02*
X2664D01*
Y4830D01*
X2586D02*
X2664D01*
X2585Y5482D02*
Y5532D01*
Y5482D02*
X2664D01*
Y5532D01*
X2585D02*
X2664D01*
X2586Y4325D02*
Y4375D01*
Y4325D02*
X2664D01*
Y4375D01*
X2586D02*
X2664D01*
X2586Y1980D02*
Y2030D01*
Y1980D02*
X2664D01*
Y2030D01*
X2586D02*
X2664D01*
X2586Y3625D02*
Y3675D01*
Y3625D02*
X2664D01*
Y3675D01*
X2586D02*
X2664D01*
X2586Y580D02*
Y630D01*
Y580D02*
X2664D01*
Y630D01*
X2586D02*
X2664D01*
X2586Y1525D02*
Y1575D01*
Y1525D02*
X2664D01*
Y1575D01*
X2586D02*
X2664D01*
X4294Y5167D02*
Y5217D01*
X4216D02*
X4294D01*
X4216Y5167D02*
Y5217D01*
Y5167D02*
X4294D01*
X4295Y265D02*
Y315D01*
X4216D02*
X4295D01*
X4216Y265D02*
Y315D01*
Y265D02*
X4295D01*
X4289Y830D02*
Y880D01*
X4211D02*
X4289D01*
X4211Y830D02*
Y880D01*
Y830D02*
X4289D01*
X3249Y4441D02*
X3328D01*
Y4391D02*
Y4441D01*
X3249Y4391D02*
X3328D01*
X3249D02*
Y4441D01*
X4211Y1841D02*
Y1890D01*
Y1841D02*
X4289D01*
Y1890D01*
X4211D02*
X4289D01*
X3996Y4418D02*
X4075D01*
Y4368D02*
Y4418D01*
X3996Y4368D02*
X4075D01*
X3996D02*
Y4418D01*
X4289Y130D02*
Y180D01*
X4211D02*
X4289D01*
X4211Y130D02*
Y180D01*
Y130D02*
X4289D01*
X3996Y3718D02*
X4075D01*
Y3668D02*
Y3718D01*
X3996Y3668D02*
X4075D01*
X3996D02*
Y3718D01*
X4295Y965D02*
Y1015D01*
X4216D02*
X4295D01*
X4216Y965D02*
Y1015D01*
Y965D02*
X4295D01*
X3249Y3741D02*
X3328D01*
Y3691D02*
Y3741D01*
X3249Y3691D02*
X3328D01*
X3249D02*
Y3741D01*
X4211Y567D02*
Y616D01*
Y567D02*
X4289D01*
Y616D01*
X4211D02*
X4289D01*
X3249Y1641D02*
X3328D01*
Y1591D02*
Y1641D01*
X3249Y1591D02*
X3328D01*
X3249D02*
Y1641D01*
X4295Y3065D02*
Y3115D01*
X4216D02*
X4295D01*
X4216Y3065D02*
Y3115D01*
Y3065D02*
X4295D01*
Y3765D02*
Y3815D01*
X4216D02*
X4295D01*
X4216Y3765D02*
Y3815D01*
Y3765D02*
X4295D01*
X4289Y1530D02*
Y1580D01*
X4211D02*
X4289D01*
X4211Y1530D02*
Y1580D01*
Y1530D02*
X4289D01*
X4295Y4465D02*
Y4515D01*
X4216D02*
X4295D01*
X4216Y4465D02*
Y4515D01*
Y4465D02*
X4295D01*
X3249Y2341D02*
X3328D01*
Y2291D02*
Y2341D01*
X3249Y2291D02*
X3328D01*
X3249D02*
Y2341D01*
X4211Y4767D02*
Y4816D01*
Y4767D02*
X4289D01*
Y4816D01*
X4211D02*
X4289D01*
X3996Y5120D02*
X4074D01*
Y5070D02*
Y5120D01*
X3996Y5070D02*
X4074D01*
X3996D02*
Y5120D01*
X3996Y2318D02*
X4075D01*
Y2268D02*
Y2318D01*
X3996Y2268D02*
X4075D01*
X3996D02*
Y2318D01*
X4006Y3136D02*
X4084D01*
Y3086D02*
Y3136D01*
X4006Y3086D02*
X4084D01*
X4006D02*
Y3136D01*
X3249Y3041D02*
X3328D01*
Y2991D02*
Y3041D01*
X3249Y2991D02*
X3328D01*
X3249D02*
Y3041D01*
X4211Y1141D02*
Y1190D01*
Y1141D02*
X4289D01*
Y1190D01*
X4211D02*
X4289D01*
X4211Y2541D02*
Y2590D01*
Y2541D02*
X4289D01*
Y2590D01*
X4211D02*
X4289D01*
X3996Y3018D02*
X4075D01*
Y2968D02*
Y3018D01*
X3996Y2968D02*
X4075D01*
X3996D02*
Y3018D01*
X3249Y941D02*
X3328D01*
Y891D02*
Y941D01*
X3249Y891D02*
X3328D01*
X3249D02*
Y941D01*
X4295Y1665D02*
Y1715D01*
X4216D02*
X4295D01*
X4216Y1665D02*
Y1715D01*
Y1665D02*
X4295D01*
X4006Y2436D02*
X4084D01*
Y2386D02*
Y2436D01*
X4006Y2386D02*
X4084D01*
X4006D02*
Y2436D01*
X4211Y1967D02*
Y2016D01*
Y1967D02*
X4289D01*
Y2016D01*
X4211D02*
X4289D01*
X3249Y241D02*
X3328D01*
Y191D02*
Y241D01*
X3249Y191D02*
X3328D01*
X3249D02*
Y241D01*
X4211Y441D02*
Y490D01*
Y441D02*
X4289D01*
Y490D01*
X4211D02*
X4289D01*
X4210Y5469D02*
Y5518D01*
Y5469D02*
X4289D01*
Y5518D01*
X4210D02*
X4289D01*
X4211Y1267D02*
Y1316D01*
Y1267D02*
X4289D01*
Y1316D01*
X4211D02*
X4289D01*
X4005Y5238D02*
X4084D01*
Y5188D02*
Y5238D01*
X4005Y5188D02*
X4084D01*
X4005D02*
Y5238D01*
X3996Y1618D02*
X4075D01*
Y1568D02*
Y1618D01*
X3996Y1568D02*
X4075D01*
X3996D02*
Y1618D01*
X4289Y4330D02*
Y4380D01*
X4211D02*
X4289D01*
X4211Y4330D02*
Y4380D01*
Y4330D02*
X4289D01*
Y3630D02*
Y3680D01*
X4211D02*
X4289D01*
X4211Y3630D02*
Y3680D01*
Y3630D02*
X4289D01*
X3996Y918D02*
X4075D01*
Y868D02*
Y918D01*
X3996Y868D02*
X4075D01*
X3996D02*
Y918D01*
X4289Y2230D02*
Y2280D01*
X4211D02*
X4289D01*
X4211Y2230D02*
Y2280D01*
Y2230D02*
X4289D01*
X4295Y2365D02*
Y2415D01*
X4216D02*
X4295D01*
X4216Y2365D02*
Y2415D01*
Y2365D02*
X4295D01*
X4211Y4641D02*
Y4690D01*
Y4641D02*
X4289D01*
Y4690D01*
X4211D02*
X4289D01*
X4210Y5343D02*
Y5392D01*
Y5343D02*
X4289D01*
Y5392D01*
X4210D02*
X4289D01*
X4289Y2930D02*
Y2980D01*
X4211D02*
X4289D01*
X4211Y2930D02*
Y2980D01*
Y2930D02*
X4289D01*
X4289Y5032D02*
Y5082D01*
X4210D02*
X4289D01*
X4210Y5032D02*
Y5082D01*
Y5032D02*
X4289D01*
X4006Y3836D02*
X4084D01*
Y3786D02*
Y3836D01*
X4006Y3786D02*
X4084D01*
X4006D02*
Y3836D01*
Y1736D02*
X4084D01*
Y1686D02*
Y1736D01*
X4006Y1686D02*
X4084D01*
X4006D02*
Y1736D01*
X4211Y3367D02*
Y3416D01*
Y3367D02*
X4289D01*
Y3416D01*
X4211D02*
X4289D01*
X4211Y4067D02*
Y4116D01*
Y4067D02*
X4289D01*
Y4116D01*
X4211D02*
X4289D01*
X4211Y3241D02*
Y3290D01*
Y3241D02*
X4289D01*
Y3290D01*
X4211D02*
X4289D01*
X3249Y5143D02*
X3328D01*
Y5093D02*
Y5143D01*
X3249Y5093D02*
X3328D01*
X3249D02*
Y5143D01*
X4006Y4536D02*
X4084D01*
Y4486D02*
Y4536D01*
X4006Y4486D02*
X4084D01*
X4006D02*
Y4536D01*
X4211Y3941D02*
Y3990D01*
Y3941D02*
X4289D01*
Y3990D01*
X4211D02*
X4289D01*
X4006Y1036D02*
X4084D01*
Y986D02*
Y1036D01*
X4006Y986D02*
X4084D01*
X4006D02*
Y1036D01*
X4211Y2667D02*
Y2716D01*
Y2667D02*
X4289D01*
Y2716D01*
X4211D02*
X4289D01*
X3996Y218D02*
X4075D01*
Y168D02*
Y218D01*
X3996Y168D02*
X4075D01*
X3996D02*
Y218D01*
X2104Y4780D02*
Y4830D01*
X2026D02*
X2104D01*
X2026Y4780D02*
Y4830D01*
Y4780D02*
X2104D01*
X2241Y4741D02*
X2291Y4791D01*
X2241Y4389D02*
Y4791D01*
Y4389D02*
X2450D01*
Y4791D01*
X2241D02*
X2450D01*
X2026Y836D02*
Y886D01*
Y836D02*
X2104D01*
Y886D01*
X2026D02*
X2104D01*
X2026Y2236D02*
Y2286D01*
Y2236D02*
X2104D01*
Y2286D01*
X2026D02*
X2104D01*
X2241Y2641D02*
X2291Y2691D01*
X2241Y2289D02*
Y2691D01*
Y2289D02*
X2450D01*
Y2691D01*
X2241D02*
X2450D01*
X2241Y3341D02*
X2291Y3391D01*
X2241Y2989D02*
Y3391D01*
Y2989D02*
X2450D01*
Y3391D01*
X2241D02*
X2450D01*
X2104Y1280D02*
Y1330D01*
X2026D02*
X2104D01*
X2026Y1280D02*
Y1330D01*
Y1280D02*
X2104D01*
Y225D02*
Y275D01*
X2026D02*
X2104D01*
X2026Y225D02*
Y275D01*
Y225D02*
X2104D01*
X2664Y3995D02*
Y4045D01*
X2586D02*
X2664D01*
X2586Y3995D02*
Y4045D01*
Y3995D02*
X2664D01*
X2025Y5038D02*
Y5088D01*
Y5038D02*
X2104D01*
Y5088D01*
X2025D02*
X2104D01*
X2240Y5443D02*
X2290Y5493D01*
X2240Y5091D02*
Y5493D01*
Y5091D02*
X2449D01*
Y5493D01*
X2240D02*
X2449D01*
X2026Y1900D02*
Y1950D01*
Y1900D02*
X2104D01*
Y1950D01*
X2026D02*
X2104D01*
X2586Y1615D02*
Y1665D01*
Y1615D02*
X2664D01*
Y1665D01*
X2586D02*
X2664D01*
X2104Y2680D02*
Y2730D01*
X2026D02*
X2104D01*
X2026Y2680D02*
Y2730D01*
Y2680D02*
X2104D01*
X2026Y4000D02*
Y4050D01*
Y4000D02*
X2104D01*
Y4050D01*
X2026D02*
X2104D01*
X2241Y1941D02*
X2291Y1991D01*
X2241Y1589D02*
Y1991D01*
Y1589D02*
X2450D01*
Y1991D01*
X2241D02*
X2450D01*
X2104Y1980D02*
Y2030D01*
X2026D02*
X2104D01*
X2026Y1980D02*
Y2030D01*
Y1980D02*
X2104D01*
X2026Y4700D02*
Y4750D01*
Y4700D02*
X2104D01*
Y4750D01*
X2026D02*
X2104D01*
X2664Y495D02*
Y545D01*
X2586D02*
X2664D01*
X2586Y495D02*
Y545D01*
Y495D02*
X2664D01*
X2026Y3300D02*
Y3350D01*
Y3300D02*
X2104D01*
Y3350D01*
X2026D02*
X2104D01*
X2664Y2595D02*
Y2645D01*
X2586D02*
X2664D01*
X2586Y2595D02*
Y2645D01*
Y2595D02*
X2664D01*
X2586Y915D02*
Y965D01*
Y915D02*
X2664D01*
Y965D01*
X2586D02*
X2664D01*
X2104Y1625D02*
Y1675D01*
X2026D02*
X2104D01*
X2026Y1625D02*
Y1675D01*
Y1625D02*
X2104D01*
Y3725D02*
Y3775D01*
X2026D02*
X2104D01*
X2026Y3725D02*
Y3775D01*
Y3725D02*
X2104D01*
X2586Y215D02*
Y265D01*
Y215D02*
X2664D01*
Y265D01*
X2586D02*
X2664D01*
Y1895D02*
Y1945D01*
X2586D02*
X2664D01*
X2586Y1895D02*
Y1945D01*
Y1895D02*
X2664D01*
X2586Y4415D02*
Y4465D01*
Y4415D02*
X2664D01*
Y4465D01*
X2586D02*
X2664D01*
X2025Y5402D02*
Y5452D01*
Y5402D02*
X2104D01*
Y5452D01*
X2025D02*
X2104D01*
X2104Y2325D02*
Y2375D01*
X2026D02*
X2104D01*
X2026Y2325D02*
Y2375D01*
Y2325D02*
X2104D01*
X2104Y5127D02*
Y5177D01*
X2025D02*
X2104D01*
X2025Y5127D02*
Y5177D01*
Y5127D02*
X2104D01*
X2664Y3295D02*
Y3345D01*
X2586D02*
X2664D01*
X2586Y3295D02*
Y3345D01*
Y3295D02*
X2664D01*
Y1195D02*
Y1245D01*
X2586D02*
X2664D01*
X2586Y1195D02*
Y1245D01*
Y1195D02*
X2664D01*
Y4695D02*
Y4745D01*
X2586D02*
X2664D01*
X2586Y4695D02*
Y4745D01*
Y4695D02*
X2664D01*
X2026Y136D02*
Y186D01*
Y136D02*
X2104D01*
Y186D01*
X2026D02*
X2104D01*
X2585Y5117D02*
Y5167D01*
Y5117D02*
X2664D01*
Y5167D01*
X2585D02*
X2664D01*
X2104Y4425D02*
Y4475D01*
X2026D02*
X2104D01*
X2026Y4425D02*
Y4475D01*
Y4425D02*
X2104D01*
X2104Y5482D02*
Y5532D01*
X2025D02*
X2104D01*
X2025Y5482D02*
Y5532D01*
Y5482D02*
X2104D01*
X2026Y1536D02*
Y1586D01*
Y1536D02*
X2104D01*
Y1586D01*
X2026D02*
X2104D01*
Y925D02*
Y975D01*
X2026D02*
X2104D01*
X2026Y925D02*
Y975D01*
Y925D02*
X2104D01*
X2026Y4336D02*
Y4386D01*
Y4336D02*
X2104D01*
Y4386D01*
X2026D02*
X2104D01*
X2026Y2600D02*
Y2650D01*
Y2600D02*
X2104D01*
Y2650D01*
X2026D02*
X2104D01*
X2241Y541D02*
X2291Y591D01*
X2241Y189D02*
Y591D01*
Y189D02*
X2450D01*
Y591D01*
X2241D02*
X2450D01*
X2026Y2936D02*
Y2986D01*
Y2936D02*
X2104D01*
Y2986D01*
X2026D02*
X2104D01*
X2241Y4041D02*
X2291Y4091D01*
X2241Y3689D02*
Y4091D01*
Y3689D02*
X2450D01*
Y4091D01*
X2241D02*
X2450D01*
X2026Y3636D02*
Y3686D01*
Y3636D02*
X2104D01*
Y3686D01*
X2026D02*
X2104D01*
X2026Y1200D02*
Y1250D01*
Y1200D02*
X2104D01*
Y1250D01*
X2026D02*
X2104D01*
X2026Y500D02*
Y550D01*
Y500D02*
X2104D01*
Y550D01*
X2026D02*
X2104D01*
Y4080D02*
Y4130D01*
X2026D02*
X2104D01*
X2026Y4080D02*
Y4130D01*
Y4080D02*
X2104D01*
Y3380D02*
Y3430D01*
X2026D02*
X2104D01*
X2026Y3380D02*
Y3430D01*
Y3380D02*
X2104D01*
X2241Y1291D02*
X2450D01*
Y889D02*
Y1291D01*
X2241Y889D02*
X2450D01*
X2241D02*
Y1291D01*
Y1241D02*
X2291Y1291D01*
X2104Y3025D02*
Y3075D01*
X2026D02*
X2104D01*
X2026Y3025D02*
Y3075D01*
Y3025D02*
X2104D01*
X2586Y3715D02*
Y3765D01*
Y3715D02*
X2664D01*
Y3765D01*
X2586D02*
X2664D01*
X2664Y5397D02*
Y5447D01*
X2585D02*
X2664D01*
X2585Y5397D02*
Y5447D01*
Y5397D02*
X2664D01*
X2586Y3015D02*
Y3065D01*
Y3015D02*
X2664D01*
Y3065D01*
X2586D02*
X2664D01*
X2104Y580D02*
Y630D01*
X2026D02*
X2104D01*
X2026Y580D02*
Y630D01*
Y580D02*
X2104D01*
X2586Y2315D02*
Y2365D01*
Y2315D02*
X2664D01*
Y2365D01*
X2586D02*
X2664D01*
X4006Y336D02*
X4084D01*
Y286D02*
Y336D01*
X4006Y286D02*
X4084D01*
X4006D02*
Y336D01*
X3248Y5223D02*
X3327D01*
Y5174D02*
Y5223D01*
X3248Y5174D02*
X3327D01*
X3248D02*
Y5223D01*
X3249Y4521D02*
X3327D01*
Y4472D02*
Y4521D01*
X3249Y4472D02*
X3327D01*
X3249D02*
Y4521D01*
Y3821D02*
X3327D01*
Y3772D02*
Y3821D01*
X3249Y3772D02*
X3327D01*
X3249D02*
Y3821D01*
Y3121D02*
X3327D01*
Y3072D02*
Y3121D01*
X3249Y3072D02*
X3327D01*
X3249D02*
Y3121D01*
Y2421D02*
X3327D01*
Y2372D02*
Y2421D01*
X3249Y2372D02*
X3327D01*
X3249D02*
Y2421D01*
Y1721D02*
X3327D01*
Y1672D02*
Y1721D01*
X3249Y1672D02*
X3327D01*
X3249D02*
Y1721D01*
Y1021D02*
X3327D01*
Y972D02*
Y1021D01*
X3249Y972D02*
X3327D01*
X3249D02*
Y1021D01*
Y321D02*
X3327D01*
Y272D02*
Y321D01*
X3249Y272D02*
X3327D01*
X3249D02*
Y321D01*
X3990Y5352D02*
X4069D01*
Y5303D02*
Y5352D01*
X3990Y5303D02*
X4069D01*
X3990D02*
Y5352D01*
X3991Y4650D02*
X4069D01*
Y4601D02*
Y4650D01*
X3991Y4601D02*
X4069D01*
X3991D02*
Y4650D01*
Y3950D02*
X4069D01*
Y3901D02*
Y3950D01*
X3991Y3901D02*
X4069D01*
X3991D02*
Y3950D01*
Y3250D02*
X4069D01*
Y3201D02*
Y3250D01*
X3991Y3201D02*
X4069D01*
X3991D02*
Y3250D01*
Y2550D02*
X4069D01*
Y2501D02*
Y2550D01*
X3991Y2501D02*
X4069D01*
X3991D02*
Y2550D01*
Y1850D02*
X4069D01*
Y1801D02*
Y1850D01*
X3991Y1801D02*
X4069D01*
X3991D02*
Y1850D01*
Y1150D02*
X4069D01*
Y1101D02*
Y1150D01*
X3991Y1101D02*
X4069D01*
X3991D02*
Y1150D01*
Y450D02*
X4069D01*
Y401D02*
Y450D01*
X3991Y401D02*
X4069D01*
X3991D02*
Y450D01*
X3248Y5343D02*
X3327D01*
Y5294D02*
Y5343D01*
X3248Y5294D02*
X3327D01*
X3248D02*
Y5343D01*
X3249Y4641D02*
X3327D01*
Y4592D02*
Y4641D01*
X3249Y4592D02*
X3327D01*
X3249D02*
Y4641D01*
Y3941D02*
X3327D01*
Y3892D02*
Y3941D01*
X3249Y3892D02*
X3327D01*
X3249D02*
Y3941D01*
Y3241D02*
X3327D01*
Y3192D02*
Y3241D01*
X3249Y3192D02*
X3327D01*
X3249D02*
Y3241D01*
Y2541D02*
X3327D01*
Y2492D02*
Y2541D01*
X3249Y2492D02*
X3327D01*
X3249D02*
Y2541D01*
Y1841D02*
X3327D01*
Y1792D02*
Y1841D01*
X3249Y1792D02*
X3327D01*
X3249D02*
Y1841D01*
Y1141D02*
X3327D01*
Y1092D02*
Y1141D01*
X3249Y1092D02*
X3327D01*
X3249D02*
Y1141D01*
Y441D02*
X3327D01*
Y392D02*
Y441D01*
X3249Y392D02*
X3327D01*
X3249D02*
Y441D01*
X3990Y5447D02*
X4069D01*
Y5397D02*
Y5447D01*
X3990Y5397D02*
X4069D01*
X3990D02*
Y5447D01*
X3991Y4745D02*
X4069D01*
Y4695D02*
Y4745D01*
X3991Y4695D02*
X4069D01*
X3991D02*
Y4745D01*
Y4045D02*
X4069D01*
Y3995D02*
Y4045D01*
X3991Y3995D02*
X4069D01*
X3991D02*
Y4045D01*
Y3345D02*
X4069D01*
Y3295D02*
Y3345D01*
X3991Y3295D02*
X4069D01*
X3991D02*
Y3345D01*
Y2645D02*
X4069D01*
Y2595D02*
Y2645D01*
X3991Y2595D02*
X4069D01*
X3991D02*
Y2645D01*
Y1945D02*
X4069D01*
Y1895D02*
Y1945D01*
X3991Y1895D02*
X4069D01*
X3991D02*
Y1945D01*
Y1245D02*
X4069D01*
Y1195D02*
Y1245D01*
X3991Y1195D02*
X4069D01*
X3991D02*
Y1245D01*
Y545D02*
X4069D01*
Y495D02*
Y545D01*
X3991Y495D02*
X4069D01*
X3991D02*
Y545D01*
X3252Y5438D02*
X3330D01*
Y5388D02*
Y5438D01*
X3252Y5388D02*
X3330D01*
X3252D02*
Y5438D01*
X3252Y4736D02*
X3331D01*
Y4686D02*
Y4736D01*
X3252Y4686D02*
X3331D01*
X3252D02*
Y4736D01*
Y4036D02*
X3331D01*
Y3986D02*
Y4036D01*
X3252Y3986D02*
X3331D01*
X3252D02*
Y4036D01*
Y3336D02*
X3331D01*
Y3286D02*
Y3336D01*
X3252Y3286D02*
X3331D01*
X3252D02*
Y3336D01*
Y2636D02*
X3331D01*
Y2586D02*
Y2636D01*
X3252Y2586D02*
X3331D01*
X3252D02*
Y2636D01*
Y1936D02*
X3331D01*
Y1886D02*
Y1936D01*
X3252Y1886D02*
X3331D01*
X3252D02*
Y1936D01*
Y1236D02*
X3331D01*
Y1186D02*
Y1236D01*
X3252Y1186D02*
X3331D01*
X3252D02*
Y1236D01*
Y536D02*
X3331D01*
Y486D02*
Y536D01*
X3252Y486D02*
X3331D01*
X3252D02*
Y536D01*
X3672Y5414D02*
X3845D01*
Y5107D02*
Y5414D01*
X3672Y5107D02*
X3845D01*
X3672D02*
Y5414D01*
Y5389D02*
X3698Y5414D01*
X3673Y4712D02*
X3846D01*
Y4405D02*
Y4712D01*
X3673Y4405D02*
X3846D01*
X3673D02*
Y4712D01*
Y4687D02*
X3698Y4712D01*
X3673Y4012D02*
X3846D01*
Y3705D02*
Y4012D01*
X3673Y3705D02*
X3846D01*
X3673D02*
Y4012D01*
Y3987D02*
X3698Y4012D01*
X3673Y3312D02*
X3846D01*
Y3005D02*
Y3312D01*
X3673Y3005D02*
X3846D01*
X3673D02*
Y3312D01*
Y3287D02*
X3698Y3312D01*
X3673Y2587D02*
X3698Y2612D01*
X3673Y2305D02*
Y2612D01*
Y2305D02*
X3846D01*
Y2612D01*
X3673D02*
X3846D01*
X3673Y1912D02*
X3846D01*
Y1605D02*
Y1912D01*
X3673Y1605D02*
X3846D01*
X3673D02*
Y1912D01*
Y1887D02*
X3698Y1912D01*
X3673Y1212D02*
X3846D01*
Y905D02*
Y1212D01*
X3673Y905D02*
X3846D01*
X3673D02*
Y1212D01*
Y1187D02*
X3698Y1212D01*
X3673Y512D02*
X3846D01*
Y205D02*
Y512D01*
X3673Y205D02*
X3846D01*
X3673D02*
Y512D01*
Y487D02*
X3698Y512D01*
D41*
X1000Y0D02*
Y5700D01*
X7370D01*
Y0D02*
Y5700D01*
X1000Y0D02*
X7370D01*
D42*
X1565Y4403D02*
D03*
Y4503D02*
D03*
Y4603D02*
D03*
Y4703D02*
D03*
X1180Y4250D02*
D03*
X1565Y1903D02*
D03*
Y1803D02*
D03*
Y1703D02*
D03*
Y1603D02*
D03*
Y506D02*
D03*
Y406D02*
D03*
Y306D02*
D03*
Y206D02*
D03*
Y2603D02*
D03*
Y2503D02*
D03*
Y2403D02*
D03*
Y2303D02*
D03*
X7045Y1080D02*
D03*
X6945D02*
D03*
X6845D02*
D03*
X6745D02*
D03*
X6645D02*
D03*
X6545D02*
D03*
X6445D02*
D03*
X6345D02*
D03*
X6245D02*
D03*
X6145D02*
D03*
X6045D02*
D03*
X5945D02*
D03*
X5845D02*
D03*
X1565Y1204D02*
D03*
Y1104D02*
D03*
Y1004D02*
D03*
Y904D02*
D03*
Y3303D02*
D03*
Y3203D02*
D03*
Y3103D02*
D03*
Y3003D02*
D03*
Y4003D02*
D03*
Y3903D02*
D03*
Y3803D02*
D03*
Y3703D02*
D03*
X1565Y5402D02*
D03*
Y5302D02*
D03*
Y5202D02*
D03*
Y5102D02*
D03*
X7145Y1677D02*
D03*
X6945D02*
D03*
X6845D02*
D03*
X6745D02*
D03*
X6645D02*
D03*
X6545D02*
D03*
X6445D02*
D03*
X6345D02*
D03*
X6245D02*
D03*
X6145D02*
D03*
X6045D02*
D03*
X5945D02*
D03*
X5845D02*
D03*
X1180Y4940D02*
D03*
X1380D02*
D03*
X5925Y3900D02*
D03*
X6025D02*
D03*
X6125D02*
D03*
X6225D02*
D03*
X6325D02*
D03*
X6425D02*
D03*
X6525D02*
D03*
X6625D02*
D03*
X6725D02*
D03*
X6825D02*
D03*
X6925D02*
D03*
X7025D02*
D03*
X7125D02*
D03*
X5825Y4499D02*
D03*
X6025D02*
D03*
X6125D02*
D03*
X6225D02*
D03*
X6325D02*
D03*
X6425D02*
D03*
X6525D02*
D03*
X6625D02*
D03*
X6725D02*
D03*
X6825D02*
D03*
X6925D02*
D03*
X7025D02*
D03*
X7125D02*
D03*
D43*
X1465Y4403D02*
D03*
Y4503D02*
D03*
Y4603D02*
D03*
Y4703D02*
D03*
X1180Y4150D02*
D03*
X1465Y1903D02*
D03*
Y1803D02*
D03*
Y1703D02*
D03*
Y1603D02*
D03*
Y506D02*
D03*
Y406D02*
D03*
Y306D02*
D03*
Y206D02*
D03*
Y2603D02*
D03*
Y2503D02*
D03*
Y2403D02*
D03*
Y2303D02*
D03*
X7145Y1080D02*
D03*
X1465Y1204D02*
D03*
Y1104D02*
D03*
Y1004D02*
D03*
Y904D02*
D03*
Y3303D02*
D03*
Y3203D02*
D03*
Y3103D02*
D03*
Y3003D02*
D03*
Y4003D02*
D03*
Y3903D02*
D03*
Y3803D02*
D03*
Y3703D02*
D03*
X1465Y5402D02*
D03*
Y5302D02*
D03*
Y5202D02*
D03*
Y5102D02*
D03*
X7045Y1677D02*
D03*
X1280Y4940D02*
D03*
X5825Y3900D02*
D03*
X5925Y4499D02*
D03*
D44*
X1180Y4694D02*
D03*
Y4594D02*
D03*
D45*
Y4494D02*
D03*
D46*
X3400Y565D02*
D03*
X3405Y265D02*
D03*
X4141Y460D02*
D03*
X3180Y410D02*
D03*
X4150Y305D02*
D03*
X3175D02*
D03*
X3405Y345D02*
D03*
X3706Y150D02*
D03*
X1995Y430D02*
D03*
X2695D02*
D03*
X4595Y463D02*
D03*
X4600Y310D02*
D03*
X4981Y503D02*
D03*
X3559Y494D02*
D03*
X2104Y684D02*
D03*
X3561Y403D02*
D03*
X2104Y90D02*
D03*
X3561Y314D02*
D03*
X2835Y305D02*
D03*
X3559Y224D02*
D03*
X2835Y215D02*
D03*
X5150Y418D02*
D03*
X5110Y288D02*
D03*
X4980Y233D02*
D03*
X5110Y213D02*
D03*
X4980Y163D02*
D03*
X3400Y1265D02*
D03*
X3405Y965D02*
D03*
X4141Y1160D02*
D03*
X3180Y1110D02*
D03*
X4150Y1005D02*
D03*
X3175D02*
D03*
X3405Y1045D02*
D03*
X3706Y850D02*
D03*
X1995Y1130D02*
D03*
X2695D02*
D03*
X4595Y1163D02*
D03*
X4600Y1010D02*
D03*
X4981Y1203D02*
D03*
X3559Y1194D02*
D03*
X2104Y1384D02*
D03*
X3561Y1103D02*
D03*
X2104Y790D02*
D03*
X3561Y1014D02*
D03*
X2835Y1005D02*
D03*
X3559Y924D02*
D03*
X2835Y915D02*
D03*
X5150Y1118D02*
D03*
X5110Y988D02*
D03*
X4980Y933D02*
D03*
X5110Y913D02*
D03*
X4980Y863D02*
D03*
X3400Y1965D02*
D03*
X3405Y1665D02*
D03*
X4141Y1860D02*
D03*
X3180Y1810D02*
D03*
X4150Y1705D02*
D03*
X3175D02*
D03*
X3405Y1745D02*
D03*
X3706Y1550D02*
D03*
X1995Y1830D02*
D03*
X2695D02*
D03*
X4595Y1863D02*
D03*
X4600Y1710D02*
D03*
X4981Y1903D02*
D03*
X3559Y1894D02*
D03*
X2104Y2084D02*
D03*
X3561Y1803D02*
D03*
X2104Y1490D02*
D03*
X3561Y1714D02*
D03*
X2835Y1705D02*
D03*
X3559Y1624D02*
D03*
X2835Y1615D02*
D03*
X5150Y1818D02*
D03*
X5110Y1688D02*
D03*
X4980Y1633D02*
D03*
X5110Y1613D02*
D03*
X4980Y1563D02*
D03*
X3400Y2665D02*
D03*
X3405Y2365D02*
D03*
X4141Y2560D02*
D03*
X3180Y2510D02*
D03*
X4150Y2405D02*
D03*
X3175D02*
D03*
X3405Y2445D02*
D03*
X3706Y2250D02*
D03*
X1995Y2530D02*
D03*
X2695D02*
D03*
X4595Y2563D02*
D03*
X4600Y2410D02*
D03*
X4981Y2603D02*
D03*
X3559Y2594D02*
D03*
X2104Y2784D02*
D03*
X3561Y2503D02*
D03*
X2104Y2190D02*
D03*
X3561Y2414D02*
D03*
X2835Y2405D02*
D03*
X3559Y2324D02*
D03*
X2835Y2315D02*
D03*
X5150Y2518D02*
D03*
X5110Y2388D02*
D03*
X4980Y2333D02*
D03*
X5110Y2313D02*
D03*
X4980Y2263D02*
D03*
X3400Y3365D02*
D03*
X3405Y3065D02*
D03*
X4141Y3260D02*
D03*
X3180Y3210D02*
D03*
X4150Y3105D02*
D03*
X3175D02*
D03*
X3405Y3145D02*
D03*
X3706Y2950D02*
D03*
X1995Y3230D02*
D03*
X2695D02*
D03*
X4595Y3263D02*
D03*
X4600Y3110D02*
D03*
X4981Y3303D02*
D03*
X3559Y3294D02*
D03*
X2104Y3484D02*
D03*
X3561Y3203D02*
D03*
X2104Y2890D02*
D03*
X3561Y3114D02*
D03*
X2835Y3105D02*
D03*
X3559Y3024D02*
D03*
X2835Y3015D02*
D03*
X5150Y3218D02*
D03*
X5110Y3088D02*
D03*
X4980Y3033D02*
D03*
X5110Y3013D02*
D03*
X4980Y2963D02*
D03*
X3400Y4065D02*
D03*
X3405Y3765D02*
D03*
X4141Y3960D02*
D03*
X3180Y3910D02*
D03*
X4150Y3805D02*
D03*
X3175D02*
D03*
X3405Y3845D02*
D03*
X3706Y3650D02*
D03*
X1995Y3930D02*
D03*
X2695D02*
D03*
X4595Y3963D02*
D03*
X4600Y3810D02*
D03*
X4981Y4003D02*
D03*
X3559Y3994D02*
D03*
X2104Y4184D02*
D03*
X3561Y3903D02*
D03*
X2104Y3590D02*
D03*
X3561Y3814D02*
D03*
X2835Y3805D02*
D03*
X3559Y3724D02*
D03*
X2835Y3715D02*
D03*
X5150Y3918D02*
D03*
X5110Y3788D02*
D03*
X4980Y3733D02*
D03*
X5110Y3713D02*
D03*
X4980Y3663D02*
D03*
X3400Y4765D02*
D03*
X3405Y4465D02*
D03*
X4141Y4660D02*
D03*
X3180Y4610D02*
D03*
X4150Y4505D02*
D03*
X3175D02*
D03*
X3405Y4545D02*
D03*
X3706Y4350D02*
D03*
X1995Y4630D02*
D03*
X2695D02*
D03*
X4595Y4663D02*
D03*
X4600Y4510D02*
D03*
X4981Y4703D02*
D03*
X3559Y4694D02*
D03*
X2104Y4884D02*
D03*
X3561Y4603D02*
D03*
X2104Y4290D02*
D03*
X3561Y4514D02*
D03*
X2835Y4505D02*
D03*
X3559Y4424D02*
D03*
X2835Y4415D02*
D03*
X5150Y4618D02*
D03*
X5110Y4488D02*
D03*
X4980Y4433D02*
D03*
X5110Y4413D02*
D03*
X4980Y4363D02*
D03*
X4595Y5365D02*
D03*
X4150Y5207D02*
D03*
X3400Y5467D02*
D03*
X3405Y5167D02*
D03*
X4141Y5362D02*
D03*
X3180Y5312D02*
D03*
X3175Y5207D02*
D03*
X3405Y5247D02*
D03*
X3705Y5052D02*
D03*
X1995Y5332D02*
D03*
X2695D02*
D03*
X4600Y5212D02*
D03*
X4981Y5405D02*
D03*
X3559Y5396D02*
D03*
X2104Y5586D02*
D03*
X3561Y5305D02*
D03*
X2104Y4992D02*
D03*
X3560Y5216D02*
D03*
X2835Y5207D02*
D03*
X3559Y5126D02*
D03*
X2835Y5117D02*
D03*
X5110Y5115D02*
D03*
X4980Y5065D02*
D03*
X5110Y5190D02*
D03*
X4980Y5135D02*
D03*
X5150Y5320D02*
D03*
D47*
X4368Y463D02*
D03*
X3407Y474D02*
D03*
X3469Y159D02*
D03*
X4610Y170D02*
D03*
X1995Y320D02*
D03*
X2695Y310D02*
D03*
X2024Y684D02*
D03*
X2665Y685D02*
D03*
X5330Y546D02*
D03*
X5520Y405D02*
D03*
X4367Y603D02*
D03*
X4370Y138D02*
D03*
X4340Y360D02*
D03*
X4368Y1163D02*
D03*
X3407Y1174D02*
D03*
X3469Y859D02*
D03*
X4610Y870D02*
D03*
X1995Y1020D02*
D03*
X2695Y1010D02*
D03*
X2024Y1384D02*
D03*
X2665Y1385D02*
D03*
X5330Y1246D02*
D03*
X5520Y1105D02*
D03*
X4367Y1303D02*
D03*
X4370Y838D02*
D03*
X4340Y1060D02*
D03*
X4368Y1863D02*
D03*
X3407Y1874D02*
D03*
X3469Y1559D02*
D03*
X4610Y1570D02*
D03*
X1995Y1720D02*
D03*
X2695Y1710D02*
D03*
X2024Y2084D02*
D03*
X2665Y2085D02*
D03*
X5330Y1946D02*
D03*
X5520Y1805D02*
D03*
X4367Y2003D02*
D03*
X4370Y1538D02*
D03*
X4340Y1760D02*
D03*
X4368Y2563D02*
D03*
X3407Y2574D02*
D03*
X3469Y2259D02*
D03*
X4610Y2270D02*
D03*
X1995Y2420D02*
D03*
X2695Y2410D02*
D03*
X2024Y2784D02*
D03*
X2665Y2785D02*
D03*
X5330Y2646D02*
D03*
X5520Y2505D02*
D03*
X4367Y2703D02*
D03*
X4370Y2238D02*
D03*
X4340Y2460D02*
D03*
X4368Y3263D02*
D03*
X3407Y3274D02*
D03*
X3469Y2959D02*
D03*
X4610Y2970D02*
D03*
X1995Y3120D02*
D03*
X2695Y3110D02*
D03*
X2024Y3484D02*
D03*
X2665Y3485D02*
D03*
X5330Y3346D02*
D03*
X5520Y3205D02*
D03*
X4367Y3403D02*
D03*
X4370Y2938D02*
D03*
X4340Y3160D02*
D03*
X4368Y3963D02*
D03*
X3407Y3974D02*
D03*
X3469Y3659D02*
D03*
X4610Y3670D02*
D03*
X1995Y3820D02*
D03*
X2695Y3810D02*
D03*
X2024Y4184D02*
D03*
X2665Y4185D02*
D03*
X5330Y4046D02*
D03*
X5520Y3905D02*
D03*
X4367Y4103D02*
D03*
X4370Y3638D02*
D03*
X4340Y3860D02*
D03*
X4368Y4663D02*
D03*
X3407Y4674D02*
D03*
X3469Y4359D02*
D03*
X4610Y4370D02*
D03*
X1995Y4520D02*
D03*
X2695Y4510D02*
D03*
X2024Y4884D02*
D03*
X2665Y4885D02*
D03*
X5330Y4746D02*
D03*
X5520Y4605D02*
D03*
X4367Y4803D02*
D03*
X4370Y4338D02*
D03*
X4340Y4560D02*
D03*
X4367Y5365D02*
D03*
X3406Y5376D02*
D03*
X3468Y5061D02*
D03*
X4610Y5072D02*
D03*
X1995Y5222D02*
D03*
X2695Y5212D02*
D03*
X2024Y5586D02*
D03*
X2665Y5587D02*
D03*
X5330Y5448D02*
D03*
X5520Y5307D02*
D03*
X4366Y5505D02*
D03*
X4369Y5040D02*
D03*
X4340Y5262D02*
D03*
M02*
